<svg xmlns="http://www.w3.org/2000/svg" width="258.5" height="57.069" viewBox="0 0 258.5 57.069">
  <g id="Grupo_293" data-name="Grupo 293" transform="translate(-86.5 -56.931)">
    <text id="Sistema_Solar" data-name="Sistema Solar" transform="translate(141 84)" fill="#fff" font-size="25" font-family="SegoeUI-Bold, Segoe UI" font-weight="700" letter-spacing="0.02em"><tspan x="0" y="0">Sistema Solar</tspan></text>
    <g id="Grupo_237" data-name="Grupo 237" transform="translate(4)">
      <path id="Caminho_592" data-name="Caminho 592" d="M0,0H255.138" transform="translate(82.5 96.5)" fill="none" stroke="#fbd285" stroke-width="2"/>
      <line id="Linha_10" data-name="Linha 10" y1="18" transform="translate(337.5 95.5)" fill="none" stroke="#fbd285" stroke-width="2"/>
      <path id="Caminho_593" data-name="Caminho 593" d="M0,33V-7.569" transform="translate(83.5 64.5)" fill="none" stroke="#fbd285" stroke-width="2"/>
    </g>
    <g id="Caminho_568" data-name="Caminho 568" transform="translate(338 107)" fill="#fbd285">
      <path d="M 3.5 6.5 C 1.845790028572083 6.5 0.5 5.154210090637207 0.5 3.5 C 0.5 1.845790028572083 1.845790028572083 0.5 3.5 0.5 C 5.154210090637207 0.5 6.5 1.845790028572083 6.5 3.5 C 6.5 5.154210090637207 5.154210090637207 6.5 3.5 6.5 Z" stroke="none"/>
      <path d="M 3.5 1 C 2.121500015258789 1 1 2.121500015258789 1 3.5 C 1 4.878499984741211 2.121500015258789 6 3.5 6 C 4.878499984741211 6 6 4.878499984741211 6 3.5 C 6 2.121500015258789 4.878499984741211 1 3.5 1 M 3.5 0 C 5.433000087738037 0 7 1.566999912261963 7 3.5 C 7 5.433000087738037 5.433000087738037 7 3.5 7 C 1.566999912261963 7 0 5.433000087738037 0 3.5 C 0 1.566999912261963 1.566999912261963 0 3.5 0 Z" stroke="none" fill="#fbd285"/>
    </g>
  </g>
</svg>
