<svg xmlns="http://www.w3.org/2000/svg" width="81.178" height="32.92" viewBox="0 0 81.178 32.92">
  <g id="Agrupar_174" data-name="Agrupar 174" transform="translate(-539.946 -676)">
    <path id="lightbulb" d="M21.158,6.1a.49.49,0,1,0-.873.447,10.219,10.219,0,0,1-.939,10.792,4.366,4.366,0,0,0-.865,2.617v.063a2.425,2.425,0,0,1-2.422,2.423H11.681V16.228a3.634,3.634,0,0,0,3.139-3.6.491.491,0,1,0-.981,0,2.648,2.648,0,0,1-5.3,0,.491.491,0,1,0-.981,0,3.634,3.634,0,0,0,3.139,3.6v6.211H6.323A2.425,2.425,0,0,1,3.9,20.016v-.063A4.413,4.413,0,0,0,3,17.3,10.222,10.222,0,0,1,11.172.981h.019a10.14,10.14,0,0,1,8.124,4.025.49.49,0,0,0,.78-.595A11.292,11.292,0,0,0,16.23,1.2,11.174,11.174,0,0,0,3.241,3.33,11.17,11.17,0,0,0,2.219,17.883a3.441,3.441,0,0,1,.7,2.07v.063a3.4,3.4,0,0,0,1.219,2.608,2.073,2.073,0,0,0,.306,3.888,2.073,2.073,0,0,0,1.713,3.241H7.55a3.656,3.656,0,0,0,7.247,0h1.392A2.073,2.073,0,0,0,17.9,26.512a2.073,2.073,0,0,0,.329-3.878,3.4,3.4,0,0,0,1.231-2.618v-.063a3.38,3.38,0,0,1,.667-2.027A11.2,11.2,0,0,0,21.158,6.1ZM11.174,31.939a2.68,2.68,0,0,1-2.63-2.186H13.8a2.68,2.68,0,0,1-2.63,2.186Zm6.18-8.519a1.093,1.093,0,1,1,0,2.186H8.816a.49.49,0,1,0,0,.981h7.373a1.093,1.093,0,1,1,0,2.186H6.158a1.093,1.093,0,0,1,0-2.186h.7a.49.49,0,0,0,0-.981H4.993a1.093,1.093,0,0,1,0-2.186Zm0,0" transform="translate(539.947 676)" fill="#fff"/>
    <text id="Dica" transform="translate(578.124 701)" fill="#fff" font-size="22" font-family="SegoeUI, Segoe UI"><tspan x="0" y="0">Dica</tspan></text>
  </g>
</svg>
