<svg xmlns="http://www.w3.org/2000/svg" width="101.49" height="109.32" viewBox="0 0 101.49 109.32">
  <g id="Agrupar_136" data-name="Agrupar 136" transform="translate(-878.118 -615)">
    <g id="die" transform="translate(890.928 615)">
      <g id="Agrupar_76" data-name="Agrupar 76" transform="translate(0.001 28.994)">
        <path id="Caminho_344" data-name="Caminho 344" d="M55.257,157.116v.362c0-.111.029-.222.04-.331Z" transform="translate(-55.257 -157.116)" fill="#707070"/>
        <path id="Caminho_345" data-name="Caminho 345" d="M81.217,208.994c-2.63,0-5.38-2.667-6.136-5.954s.757-5.954,3.387-5.954,5.38,2.665,6.139,5.954-.759,5.954-3.39,5.954M66.444,189.148c-2.63,0-5.38-2.665-6.136-5.954s.757-5.951,3.387-5.951,5.38,2.665,6.136,5.951-.757,5.954-3.387,5.954m23.214-.961a5.2,5.2,0,0,1-1.09-.648L56.754,162.013a3.772,3.772,0,0,1-1.495-2.932v32.382c0,5.4,2.892,6.573,2.892,6.573l30.623,24.076a5.578,5.578,0,0,0,1.4.841,2.914,2.914,0,0,1-.513-1.6V188.188Z" transform="translate(-55.259 -158.718)" fill="#707070"/>
      </g>
      <g id="Agrupar_77" data-name="Agrupar 77" transform="translate(39.162 28.993)">
        <path id="Caminho_346" data-name="Caminho 346" d="M298.635,177.63c-.664,2.95-3.077,5.337-5.385,5.337s-3.638-2.387-2.972-5.337,3.075-5.334,5.382-5.334,3.641,2.389,2.974,5.334m-8.108,13.508c-.669,3.1-3.114,5.612-5.454,5.612s-3.683-2.511-3.011-5.612,3.12-5.612,5.456-5.612,3.684,2.511,3.009,5.612m-9.362,13.947c-.64,3.006-2.961,5.443-5.181,5.443s-3.5-2.437-2.858-5.443,2.961-5.446,5.178-5.446,3.5,2.437,2.86,5.446M300.9,160.814l-32.025,25.749a5.1,5.1,0,0,1-.876.558v33.258a2.922,2.922,0,0,1-.529,1.625,5.567,5.567,0,0,0,1.453-.868c4.819-3.789,30.66-24.076,30.66-24.076s2.815-1.169,2.815-6.573V157.882a3.773,3.773,0,0,1-1.5,2.932" transform="translate(-267.467 -157.739)" fill="#707070"/>
        <path id="Caminho_347" data-name="Caminho 347" d="M456.659,157.122c0,.042.016.085.016.13v-.143Z" transform="translate(-421.746 -157.109)" fill="#dd2e44"/>
      </g>
      <path id="Caminho_348" data-name="Caminho 348" d="M93.621,22.821c4.26,0,7.716,2.762,7.716,6.173s-3.456,6.173-7.716,6.173S85.9,32.4,85.9,28.994s3.453-6.173,7.716-6.173M127.848,26.2,95.709,1.21a6.041,6.041,0,0,0-7.256,0L56.748,26.425a3.807,3.807,0,0,0-1.455,2.6c-.011.111-.04.22-.04.331a3.772,3.772,0,0,0,1.495,2.932L88.562,57.815a5.208,5.208,0,0,0,1.09.648V91.632a2.915,2.915,0,0,0,.513,1.6,2.44,2.44,0,0,0,4.25.026,2.924,2.924,0,0,0,.529-1.625V58.373a5.119,5.119,0,0,0,.876-.558l32.028-25.749a3.772,3.772,0,0,0,1.495-2.932c0-.042-.013-.085-.016-.127a3.776,3.776,0,0,0-1.479-2.8" transform="translate(-55.253 0)" fill="#969696"/>
      <g id="Agrupar_78" data-name="Agrupar 78" transform="translate(30.652 22.821)">
        <path id="Caminho_349" data-name="Caminho 349" d="M229.068,136.01c4.26,0,7.716-2.762,7.716-6.173s-3.456-6.173-7.716-6.173-7.716,2.762-7.716,6.173,3.453,6.173,7.716,6.173" transform="translate(-221.352 -123.664)" fill="#fff"/>
        <path id="Caminho_350" data-name="Caminho 350" d="M395.707,235.979c-2.307,0-4.718,2.389-5.382,5.334s.664,5.337,2.972,5.337,4.721-2.387,5.385-5.337-.664-5.334-2.974-5.334" transform="translate(-359.002 -215.252)" fill="#fff"/>
        <path id="Caminho_351" data-name="Caminho 351" d="M351.264,307.673c-2.336,0-4.781,2.511-5.453,5.612s.672,5.612,3.009,5.612,4.784-2.511,5.456-5.612-.672-5.612-3.011-5.612" transform="translate(-322.702 -273.716)" fill="#fff"/>
        <path id="Caminho_352" data-name="Caminho 352" d="M302.6,384.155c-2.22,0-4.538,2.437-5.178,5.446s.64,5.443,2.858,5.443,4.541-2.437,5.181-5.443-.64-5.446-2.86-5.446" transform="translate(-283.247 -336.084)" fill="#fff"/>
      </g>
      <g id="Agrupar_79" data-name="Agrupar 79" transform="translate(4.854 47.519)">
        <path id="Caminho_353" data-name="Caminho 353" d="M85.137,257.5c-2.63,0-4.146,2.665-3.387,5.951s3.506,5.954,6.136,5.954,4.146-2.665,3.387-5.954-3.506-5.951-6.136-5.951" transform="translate(-81.554 -257.502)" fill="#e1e8ed"/>
        <path id="Caminho_354" data-name="Caminho 354" d="M165.19,365.028c-2.63,0-4.146,2.665-3.39,5.954s3.509,5.954,6.139,5.954,4.146-2.667,3.387-5.954-3.506-5.954-6.136-5.954" transform="translate(-146.833 -345.185)" fill="#e1e8ed"/>
      </g>
    </g>
    <ellipse id="Elipse_245" data-name="Elipse 245" cx="50.745" cy="5.912" rx="50.745" ry="5.912" transform="translate(878.118 712.495)" fill="#707070"/>
  </g>
</svg>
