<svg xmlns="http://www.w3.org/2000/svg" xmlns:xlink="http://www.w3.org/1999/xlink" width="340.529" height="340.529" viewBox="0 0 340.529 340.529"><defs><linearGradient id="a" x1="0.5" x2="0.5" y2="1" gradientUnits="objectBoundingBox"><stop offset="0" stop-color="#ff7676"/><stop offset="1" stop-color="#e54ea2"/></linearGradient></defs><g transform="translate(-145.006 -235.006)"><g transform="translate(210.185 298.488)"><g transform="translate(0 0)"><rect width="14.491" height="54.343" transform="translate(97.86 72.457)" fill="#f0c419"/><path d="M51.358,47.489,40.49,54.734,29.621,47.489l-3.239-5.626a3.623,3.623,0,0,1,0-3.239l2.174-3.811A3.623,3.623,0,0,1,31.7,33H49.366a3.622,3.622,0,0,1,3.043,1.663l2.536,3.963a3.623,3.623,0,0,1,0,3.239Z" transform="translate(64.616 86.557)" fill="#f29c1f"/><path d="M61.851,37l1.159,2.282a11.908,11.908,0,0,0,7.825,6.3,12.239,12.239,0,0,1,6.594,4.275,12.08,12.08,0,0,1,2.536,7.391v8.731H22V57.252a12.046,12.046,0,0,1,9.13-11.666,11.908,11.908,0,0,0,7.825-6.3L40.114,37Z" transform="translate(54.123 97.045)" fill="#e4c05c"/><path d="M32.642,49.613c-1.413,8.224-4.855,13.767-9.274,16.3a2.7,2.7,0,0,1-3.261-.616,3.263,3.263,0,0,1-.543-.688c-.181-.254-.362-.471-.543-.725a23.86,23.86,0,0,1-2.536-18.332c1.811-8.3,5.76-12.608,10.108-14.419a2.782,2.782,0,0,1,3.188.869A21.738,21.738,0,0,1,32.642,49.613Z" transform="translate(37.54 81.172)" fill="#71c285"/><path d="M19.938,47.146a3.723,3.723,0,0,1-1.6-.362A4.346,4.346,0,0,1,17,45.722a4.706,4.706,0,0,1-.641-.851c-.047-.08-.1-.156-.141-.235a3.623,3.623,0,0,1,6.231-3.692l-.268.25.312-.181a3.587,3.587,0,0,1-2.536,6.133Z" transform="translate(37.753 102.959)" fill="#7ed09e"/><path d="M42.638,51.67c-3.079,4.058-8.912,6.92-17.679,5.543A23.06,23.06,0,0,1,7.569,45.257a3.692,3.692,0,0,1,.181-4.021c3.369-3.587,8.985-4.71,17.317-2.9a28.951,28.951,0,0,1,17.462,9.637A3.1,3.1,0,0,1,42.638,51.67Z" transform="translate(14.936 98.316)" fill="#71c285"/><path d="M35.1,47.936c-3.333,3.3-9.093,5-16.991,2.029A23.958,23.958,0,0,1,3.577,35.147a3.782,3.782,0,0,1,.688-3.876c3.478-2.826,8.731-2.862,16.158.507A30.147,30.147,0,0,1,35.386,44.349a.036.036,0,0,0,.036.036A3.087,3.087,0,0,1,35.1,47.936Z" transform="translate(5.125 76.581)" fill="#71c285"/><path d="M23.335,36.926c-2.935,7.028-6.956,10.8-11.158,11.484a2.576,2.576,0,0,1-2.5-1.522c-.217-.58-.435-1.2-.616-1.811a.584.584,0,0,1-.109-.326,26.15,26.15,0,0,1,2.065-17.5c3.3-7.028,7.391-9.6,11.3-9.673a2.743,2.743,0,0,1,2.355,1.993A24.2,24.2,0,0,1,23.335,36.926Z" transform="translate(18.154 46.11)" fill="#71c285"/><path d="M11.743,33.235A3.623,3.623,0,0,1,8.483,31.2c-.047-.1-.181-.42-.221-.522A12.318,12.318,0,0,1,7.6,28.62,3.623,3.623,0,0,1,14.6,26.783c.156.533.362,1.065.533,1.565a3.623,3.623,0,0,1-1.971,4.594A3.579,3.579,0,0,1,11.743,33.235Z" transform="translate(16.088 63.386)" fill="#7ed09e"/><path d="M27.949,43.374c-3.442,2.572-8.912,3.079-15.687-1.34A25.066,25.066,0,0,1,1.1,24.716a3.6,3.6,0,0,1,1.123-3.623c3.478-2.1,8.188-1.087,14.419,3.659A33.077,33.077,0,0,1,28.638,39.968,3.043,3.043,0,0,1,27.949,43.374Z" transform="translate(-0.988 52.595)" fill="#71c285"/><path d="M27.566,43.736c-2.21,7.644-6.014,12.318-10.4,13.912a2.706,2.706,0,0,1-3.116-1.34c0-.036-.036-.109-.036-.145-.181-.362-.4-.688-.58-1.051a24.526,24.526,0,0,1-.362-18.368c2.645-7.717,6.738-11.122,10.941-12.064a2.754,2.754,0,0,1,2.826,1.449A22.86,22.86,0,0,1,27.566,43.736Z" transform="translate(26.494 64.66)" fill="#71c285"/><path d="M53.421,109.742a3.623,3.623,0,0,1-2.688-1.192c-2.96-3.261-5.579-6.391-8-9.528l-1.087-1.413a188.713,188.713,0,0,1-16.3-24.541l-.674-1.3A183.372,183.372,0,0,1,12.374,44.548l-.746-2.174a178.414,178.414,0,0,1-5.6-19.107,3.623,3.623,0,0,1,7.054-1.641A171.462,171.462,0,0,0,18.475,40l.743,2.174A176.834,176.834,0,0,0,31.057,68.358l.663,1.29A182.152,182.152,0,0,0,47.363,93.16l1.109,1.449c2.308,2.989,4.808,5.963,7.641,9.1a3.623,3.623,0,0,1-2.692,6.036Z" transform="translate(12.052 49.664)" fill="#7ed09e"/><path d="M53.8,63.887c-.181.254-.362.471-.543.725a3.263,3.263,0,0,1-.543.688,2.7,2.7,0,0,1-3.261.616c-4.42-2.536-7.862-8.079-9.274-16.3a21.738,21.738,0,0,1,2.862-17.607,2.782,2.782,0,0,1,3.188-.869c4.347,1.811,8.3,6.123,10.108,14.419A23.86,23.86,0,0,1,53.8,63.887Z" transform="translate(99.855 81.172)" fill="#71c285"/><path d="M45.72,47.072a3.623,3.623,0,0,1-2.536-6.206A3.728,3.728,0,0,1,48.1,39.779a3.514,3.514,0,0,1,1.3,4.789c-.047.087-.1.17-.156.257a5.689,5.689,0,0,1-.75.967c-.043.043-.087.091-.138.134l-.1.1a4.925,4.925,0,0,1-.982.692A3.621,3.621,0,0,1,45.72,47.072ZM45.028,42l-.869-1.811Z" transform="translate(106.846 103.023)" fill="#7ed09e"/><path d="M78.592,45.257A23.06,23.06,0,0,1,61.2,57.213c-8.767,1.377-14.6-1.485-17.679-5.543a3.1,3.1,0,0,1,.109-3.7,28.951,28.951,0,0,1,17.462-9.637c8.333-1.811,13.948-.688,17.317,2.9A3.691,3.691,0,0,1,78.592,45.257Z" transform="translate(109.115 98.316)" fill="#71c285"/><path d="M79.965,35.147A23.958,23.958,0,0,1,65.437,49.965c-7.9,2.971-13.658,1.268-16.991-2.029a3.087,3.087,0,0,1-.326-3.55.036.036,0,0,0,.036-.036A30.146,30.146,0,0,1,63.119,31.778c7.427-3.369,12.68-3.333,16.158-.507A3.782,3.782,0,0,1,79.965,35.147Z" transform="translate(121.545 76.581)" fill="#71c285"/><path d="M63.648,44.751a.583.583,0,0,1-.109.326c-.181.616-.4,1.232-.616,1.811a2.576,2.576,0,0,1-2.5,1.522c-4.2-.688-8.224-4.456-11.158-11.484a24.2,24.2,0,0,1-1.34-17.353A2.743,2.743,0,0,1,50.28,17.58c3.913.072,8.006,2.645,11.3,9.673A26.149,26.149,0,0,1,63.648,44.751Z" transform="translate(119.458 46.11)" fill="#71c285"/><path d="M53.953,33.235a3.577,3.577,0,0,1-1.424-.293,3.623,3.623,0,0,1-1.971-4.594c.185-.5.362-1.033.533-1.565A3.623,3.623,0,0,1,58.1,28.62a12.282,12.282,0,0,1-.616,1.945c-.116.286-.185.46-.272.634A3.623,3.623,0,0,1,53.953,33.235Z" transform="translate(128.429 63.386)" fill="#7ed09e"/><path d="M79.095,24.716A25.066,25.066,0,0,1,67.936,42.033c-6.775,4.42-12.245,3.913-15.687,1.34a3.044,3.044,0,0,1-.688-3.405A33.076,33.076,0,0,1,63.553,24.752c6.231-4.746,10.941-5.76,14.419-3.659A3.6,3.6,0,0,1,79.095,24.716Z" transform="translate(131.002 52.595)" fill="#71c285"/><path d="M59.248,55.112c-.181.362-.4.688-.58,1.051,0,.036-.036.109-.036.145a2.706,2.706,0,0,1-3.116,1.34c-4.384-1.594-8.188-6.268-10.4-13.912a22.86,22.86,0,0,1,.725-17.607A2.754,2.754,0,0,1,48.67,24.68c4.2.942,8.3,4.347,10.941,12.064A24.526,24.526,0,0,1,59.248,55.112Z" transform="translate(111.033 64.66)" fill="#71c285"/><path d="M46.02,63.7a3.623,3.623,0,0,1-2.844-5.862,181.846,181.846,0,0,0,15.7-23.621A3.623,3.623,0,0,1,65.2,37.745,188.727,188.727,0,0,1,48.875,62.312,3.622,3.622,0,0,1,46.02,63.7Z" transform="translate(107.632 84.986)" fill="#7ed09e"/><path d="M54.152,44.991a3.55,3.55,0,0,1-1.21-.21,3.623,3.623,0,0,1-2.2-4.623A171.422,171.422,0,0,0,56.13,21.783a3.623,3.623,0,1,1,7.054,1.641,178.327,178.327,0,0,1-5.615,19.154A3.623,3.623,0,0,1,54.152,44.991Z" transform="translate(128.954 49.493)" fill="#7ed09e"/><path d="M50.609,58.639a3.623,3.623,0,0,1-3.166-5.376A177.018,177.018,0,0,0,59.3,27.03a3.623,3.623,0,0,1,6.825,2.427A183.642,183.642,0,0,1,53.783,56.766,3.623,3.623,0,0,1,50.609,58.639Z" transform="translate(119.669 64.755)" fill="#7ed09e"/><path d="M43.562,55.947a3.623,3.623,0,0,1-2.685-6.054c2.833-3.134,5.333-6.108,7.644-9.1a3.623,3.623,0,0,1,5.731,4.431c-2.424,3.137-5.043,6.257-8,9.528A3.623,3.623,0,0,1,43.562,55.947Z" transform="translate(101.178 103.458)" fill="#7ed09e"/><path d="M13.959,48.489c-3.8-.326-8.333-8.115-9.419-18.621S5.916,10.413,8.959,9c3.079,1.377,5.869,9.492,7.354,19.056S17.147,46.1,13.959,48.489Z" transform="translate(7.641 23.606)" fill="#71c285"/><path d="M64.712,29.868c-1.087,10.506-5.615,18.3-9.419,18.621-3.188-2.391-3.8-10.832-2.355-20.433S57.212,10.377,60.292,9C63.335,10.413,65.8,19.361,64.712,29.868Z" transform="translate(133.321 23.606)" fill="#71c285"/><path d="M52.754,36.476h-19.3a3.623,3.623,0,0,1-2.174-.725L26.065,31.8a3.623,3.623,0,0,1,0-5.123l5.213-3.949a3.623,3.623,0,0,1,2.174-.725h19.3a3.623,3.623,0,0,1,2.174.725l5.213,3.949a3.623,3.623,0,0,1,0,5.123l-5.2,3.949A3.624,3.624,0,0,1,52.754,36.476Z" transform="translate(62.003 57.718)" fill="#f29c1f"/><path d="M117.44,77.606,66.72,84.851,16,77.606l7.246-25.36L66.72,45l43.474,7.246Z" transform="translate(38.386 118.028)" fill="#f0c419"/><rect width="115.931" height="14.491" rx="1" transform="translate(47.141 195.634)" fill="#b19046"/><rect width="94.194" height="14.491" rx="1" transform="translate(58.009 155.782)" fill="#b19046"/><path d="M44.9,45.474h4.6a10.9,10.9,0,0,0,10.8-9.528l1.92-15.4a3.623,3.623,0,0,0-3.587-4.058H43.778l-7.608-7.8L43.126,2h15.4A18.14,18.14,0,0,1,76.492,22.36l-1.92,15.4A25.385,25.385,0,0,1,49.393,59.966H40.155Z" transform="translate(91.289 5.246)" fill="#f29c1f"/><path d="M49.136,59.966H39.9A25.385,25.385,0,0,1,14.719,37.757L12.8,22.36A18.14,18.14,0,0,1,30.768,2h15.4l7.572,7.246-8.224,7.246H30.66a3.623,3.623,0,0,0-3.587,4.058l1.92,15.4a10.9,10.9,0,0,0,10.8,9.528h4.6Z" transform="translate(29.632 5.246)" fill="#f29c1f"/><path d="M52.556,79.7A31.156,31.156,0,0,1,21.432,47.13L23.418,3.46A3.623,3.623,0,0,1,27.041,0H78.076A3.623,3.623,0,0,1,81.7,3.46l1.985,43.67A31.156,31.156,0,0,1,52.556,79.7Z" transform="translate(52.55 0)" fill="#f0c419"/><path d="M28.124,42.858h-.206a3.623,3.623,0,0,1-3.413-3.818L26.317,6.434a3.562,3.562,0,0,1,3.822-3.427,3.623,3.623,0,0,1,3.42,3.826L31.747,39.438A3.623,3.623,0,0,1,28.124,42.858Z" transform="translate(60.679 7.861)" fill="#f3d55b"/><path d="M27.246,57.246H23.623a3.623,3.623,0,1,1,0-7.246h3.623a3.623,3.623,0,1,1,0,7.246Z" transform="translate(48.878 131.142)" fill="#f3d55b"/><path d="M46.737,57.246H28.623a3.623,3.623,0,1,1,0-7.246H46.737a3.623,3.623,0,1,1,0,7.246Z" transform="translate(61.992 131.142)" fill="#f3d55b"/></g></g><g transform="translate(145.006 235.006)"><g transform="translate(0 0)"><path d="M170.264,0C76.619,0,0,76.619,0,170.264S76.619,340.529,170.264,340.529,340.529,263.91,340.529,170.264,263.91,0,170.264,0ZM34.053,170.264c0-74.916,61.3-136.212,136.212-136.212A134.185,134.185,0,0,1,253.694,63L63,253.694A134.185,134.185,0,0,1,34.053,170.264ZM170.264,306.476a134.185,134.185,0,0,1-83.43-28.945l190.7-190.7a134.185,134.185,0,0,1,28.945,83.43C306.476,245.181,245.181,306.476,170.264,306.476Z" transform="translate(0 0)" fill="url(#a)"/></g></g></g></svg>