<svg xmlns="http://www.w3.org/2000/svg" width="296.026" height="295.902" viewBox="0 0 296.026 295.902"><g transform="translate(0.012)"><g transform="translate(-0.012 0)"><rect width="20.407" height="76.527" transform="translate(137.809 102.035)" fill="#f0c419"/><path d="M61.71,53.4,46.4,63.607,31.1,53.4,26.539,45.48a5.1,5.1,0,0,1,0-4.561L29.6,35.552A5.1,5.1,0,0,1,34.023,33H58.9a5.1,5.1,0,0,1,4.285,2.342l3.571,5.581a5.1,5.1,0,0,1,0,4.561Z" transform="translate(101.608 135.362)" fill="#f29c1f"/><path d="M78.119,37l1.633,3.214a16.769,16.769,0,0,0,11.02,8.877,17.236,17.236,0,0,1,9.285,6.02,17.011,17.011,0,0,1,3.571,10.408v12.3H22v-12.3A16.964,16.964,0,0,1,34.856,49.091a16.769,16.769,0,0,0,11.02-8.877L47.509,37Z" transform="translate(85.199 151.765)" fill="#e4c05c"/><path d="M39.567,57.232c-1.99,11.581-6.836,19.387-13.061,22.958a3.8,3.8,0,0,1-4.592-.867,4.6,4.6,0,0,1-.765-.969c-.255-.357-.51-.663-.765-1.02a33.6,33.6,0,0,1-3.571-25.815c2.551-11.683,8.112-17.754,14.234-20.305a3.918,3.918,0,0,1,4.49,1.224A30.612,30.612,0,0,1,39.567,57.232Z" transform="translate(59.264 126.942)" fill="#71c285"/><path d="M21.644,50.367a5.242,5.242,0,0,1-2.25-.51A6.12,6.12,0,0,1,17.5,48.362a6.628,6.628,0,0,1-.9-1.2c-.066-.112-.138-.219-.2-.332a5.1,5.1,0,0,1,8.775-5.2l-.378.352.439-.255a5.051,5.051,0,0,1-3.571,8.637Z" transform="translate(59.597 161.014)" fill="#7ed09e"/><path d="M57.162,57.46c-4.337,5.714-12.55,9.744-24.9,7.806A32.473,32.473,0,0,1,7.777,48.43a5.2,5.2,0,0,1,.255-5.663c4.745-5.051,12.652-6.632,24.386-4.081A40.769,40.769,0,0,1,57.009,52.256,4.372,4.372,0,0,1,57.162,57.46Z" transform="translate(23.916 153.753)" fill="#71c285"/><path d="M48.068,55.585c-4.694,4.643-12.805,7.04-23.927,2.857A33.738,33.738,0,0,1,3.682,37.576a5.326,5.326,0,0,1,.969-5.459c4.9-3.979,12.3-4.03,22.754.714a42.453,42.453,0,0,1,21.07,17.7.051.051,0,0,0,.051.051A4.346,4.346,0,0,1,48.068,55.585Z" transform="translate(8.572 119.763)" fill="#71c285"/><path d="M29.478,44.823c-4.132,9.9-9.8,15.2-15.713,16.173a3.628,3.628,0,0,1-3.52-2.143c-.306-.816-.612-1.684-.867-2.551a.822.822,0,0,1-.153-.459A36.824,36.824,0,0,1,12.132,31.2c4.643-9.9,10.408-13.52,15.918-13.622a3.862,3.862,0,0,1,3.316,2.806A34.084,34.084,0,0,1,29.478,44.823Z" transform="translate(28.948 72.109)" fill="#71c285"/><path d="M13.476,36.937A5.1,5.1,0,0,1,8.885,34.07c-.066-.138-.255-.592-.311-.735a17.346,17.346,0,0,1-.939-2.9A5.1,5.1,0,0,1,17.5,27.851c.219.75.51,1.5.75,2.2a5.1,5.1,0,0,1-2.775,6.469A5.04,5.04,0,0,1,13.476,36.937Z" transform="translate(25.716 99.127)" fill="#7ed09e"/><path d="M38.956,52.894c-4.847,3.622-12.55,4.337-22.091-1.888A35.3,35.3,0,0,1,1.151,26.62a5.066,5.066,0,0,1,1.582-5.1c4.9-2.959,11.53-1.531,20.305,5.153A46.58,46.58,0,0,1,39.925,48.1,4.285,4.285,0,0,1,38.956,52.894Z" transform="translate(-0.988 82.252)" fill="#71c285"/><path d="M34.138,51.526C31.026,62.291,25.669,68.872,19.5,71.117a3.81,3.81,0,0,1-4.388-1.888c0-.051-.051-.153-.051-.2-.255-.51-.561-.969-.816-1.479a34.539,34.539,0,0,1-.51-25.866c3.724-10.867,9.489-15.662,15.407-16.989a3.878,3.878,0,0,1,3.979,2.041A32.191,32.191,0,0,1,34.138,51.526Z" transform="translate(41.991 101.119)" fill="#71c285"/><path d="M72.8,146.811a5.1,5.1,0,0,1-3.785-1.678c-4.168-4.592-7.857-9-11.27-13.418l-1.531-1.99A265.748,265.748,0,0,1,33.252,95.166L32.3,93.334A258.23,258.23,0,0,1,14.992,55l-1.051-3.061A251.246,251.246,0,0,1,6.059,25.037a5.1,5.1,0,0,1,9.933-2.311A241.456,241.456,0,0,0,23.584,48.6l1.046,3.061A249.021,249.021,0,0,0,41.3,88.533l.934,1.816a256.509,256.509,0,0,0,22.029,33.11l1.561,2.041c3.25,4.209,6.77,8.4,10.76,12.811a5.1,5.1,0,0,1-3.791,8.5Z" transform="translate(19.404 77.667)" fill="#7ed09e"/><path d="M59.66,77.333c-.255.357-.51.663-.765,1.02a4.6,4.6,0,0,1-.765.969,3.8,3.8,0,0,1-4.592.867c-6.224-3.571-11.071-11.377-13.061-22.958a30.612,30.612,0,0,1,4.03-24.795A3.918,3.918,0,0,1,49,31.213c6.122,2.551,11.683,8.622,14.234,20.305A33.6,33.6,0,0,1,59.66,77.333Z" transform="translate(156.716 126.942)" fill="#71c285"/><path d="M47.2,50.253a5.1,5.1,0,0,1-3.571-8.739,5.25,5.25,0,0,1,6.923-1.531,4.949,4.949,0,0,1,1.837,6.745c-.066.122-.143.24-.219.362a8.011,8.011,0,0,1-1.056,1.362c-.061.061-.122.128-.194.189l-.138.143a6.937,6.937,0,0,1-1.383.974A5.1,5.1,0,0,1,47.2,50.253Zm-.974-7.142L45,40.56Z" transform="translate(167.649 161.113)" fill="#7ed09e"/><path d="M93.136,48.43A32.473,32.473,0,0,1,68.647,65.266C56.3,67.2,48.087,63.174,43.751,57.46a4.372,4.372,0,0,1,.153-5.2A40.769,40.769,0,0,1,68.494,38.686c11.734-2.551,19.642-.969,24.386,4.081A5.2,5.2,0,0,1,93.136,48.43Z" transform="translate(171.197 153.753)" fill="#71c285"/><path d="M93.134,37.576A33.738,33.738,0,0,1,72.676,58.442c-11.122,4.183-19.234,1.786-23.927-2.857a4.347,4.347,0,0,1-.459-5,.051.051,0,0,0,.051-.051,42.453,42.453,0,0,1,21.07-17.7c10.459-4.745,17.856-4.694,22.754-.714A5.327,5.327,0,0,1,93.134,37.576Z" transform="translate(190.637 119.763)" fill="#71c285"/><path d="M70.481,55.843a.821.821,0,0,1-.153.459c-.255.867-.561,1.735-.867,2.551A3.628,3.628,0,0,1,65.941,61c-5.918-.969-11.581-6.275-15.713-16.173A34.084,34.084,0,0,1,48.34,20.386a3.862,3.862,0,0,1,3.316-2.806c5.51.1,11.275,3.724,15.918,13.622A36.824,36.824,0,0,1,70.481,55.843Z" transform="translate(187.372 72.109)" fill="#71c285"/><path d="M55.432,36.937a5.037,5.037,0,0,1-2.005-.413,5.1,5.1,0,0,1-2.775-6.469c.26-.7.51-1.454.75-2.2a5.1,5.1,0,0,1,9.867,2.587,17.3,17.3,0,0,1-.867,2.74c-.163.4-.26.648-.383.893A5.1,5.1,0,0,1,55.432,36.937Z" transform="translate(201.402 99.127)" fill="#7ed09e"/><path d="M90.436,26.62A35.3,35.3,0,0,1,74.723,51.006c-9.54,6.224-17.244,5.51-22.091,1.888a4.286,4.286,0,0,1-.969-4.8A46.579,46.579,0,0,1,68.55,26.671c8.775-6.683,15.407-8.112,20.305-5.153A5.066,5.066,0,0,1,90.436,26.62Z" transform="translate(205.426 82.252)" fill="#71c285"/><path d="M65.6,67.546c-.255.51-.561.969-.816,1.479,0,.051-.051.153-.051.2a3.81,3.81,0,0,1-4.388,1.888c-6.173-2.245-11.53-8.826-14.642-19.591a32.192,32.192,0,0,1,1.02-24.795A3.878,3.878,0,0,1,50.7,24.691c5.918,1.326,11.683,6.122,15.407,16.989A34.539,34.539,0,0,1,65.6,67.546Z" transform="translate(174.197 101.119)" fill="#71c285"/><path d="M47.5,76.471a5.1,5.1,0,0,1-4-8.255A256.079,256.079,0,0,0,65.6,34.952a5.1,5.1,0,0,1,8.908,4.974,265.772,265.772,0,0,1-22.989,34.6A5.1,5.1,0,0,1,47.5,76.471Z" transform="translate(168.879 132.906)" fill="#7ed09e"/><path d="M55.63,55.655a5,5,0,0,1-1.7-.3,5.1,5.1,0,0,1-3.1-6.51,241.4,241.4,0,0,0,7.591-25.876,5.1,5.1,0,1,1,9.933,2.311,251.122,251.122,0,0,1-7.908,26.973A5.1,5.1,0,0,1,55.63,55.655Z" transform="translate(202.224 77.399)" fill="#7ed09e"/><path d="M52.086,72.5a5.1,5.1,0,0,1-4.459-7.571,249.281,249.281,0,0,0,16.7-36.942A5.1,5.1,0,0,1,73.937,31.4,258.608,258.608,0,0,1,56.555,69.861,5.1,5.1,0,0,1,52.086,72.5Z" transform="translate(187.702 101.268)" fill="#7ed09e"/><path d="M45.04,62.683a5.1,5.1,0,0,1-3.78-8.525c3.99-4.413,7.51-8.6,10.765-12.811A5.1,5.1,0,0,1,60.1,47.587C56.682,52.005,52.994,56.4,48.825,61A5.1,5.1,0,0,1,45.04,62.683Z" transform="translate(158.786 161.794)" fill="#7ed09e"/><path d="M17.911,64.609C12.554,64.15,6.176,53.181,4.646,38.386S6.585,10.99,10.87,9c4.337,1.939,8.265,13.367,10.357,26.835S22.4,61.242,17.911,64.609Z" transform="translate(12.507 36.916)" fill="#71c285"/><path d="M69.821,38.386c-1.531,14.8-7.908,25.764-13.265,26.223-4.49-3.367-5.357-15.254-3.316-28.774S59.26,10.939,63.6,9C67.882,10.99,71.351,23.591,69.821,38.386Z" transform="translate(209.052 36.916)" fill="#71c285"/><path d="M64.083,42.382H36.9a5.1,5.1,0,0,1-3.061-1.02L26.5,35.8a5.1,5.1,0,0,1,0-7.214l7.341-5.561a5.1,5.1,0,0,1,3.061-1.02H64.083a5.1,5.1,0,0,1,3.061,1.02l7.341,5.561a5.1,5.1,0,0,1,0,7.214l-7.321,5.561A5.1,5.1,0,0,1,64.083,42.382Z" transform="translate(97.521 90.264)" fill="#f29c1f"/><path d="M158.85,90.916l-71.425,10.2L16,90.916,26.2,55.2,87.425,45l61.221,10.2Z" transform="translate(60.588 184.58)" fill="#f0c419"/><rect width="163.257" height="20.407" rx="1" transform="translate(66.384 275.495)" fill="#b19046"/><rect width="132.646" height="20.407" rx="1" transform="translate(81.69 219.376)" fill="#b19046"/><path d="M48.465,63.221h6.479A15.356,15.356,0,0,0,70.148,49.8l2.7-21.683A5.1,5.1,0,0,0,67.8,22.407H46.884L36.17,11.423,45.965,2H67.648a25.545,25.545,0,0,1,25.3,28.672l-2.7,21.683A35.748,35.748,0,0,1,54.791,83.628H41.782Z" transform="translate(143.321 8.204)" fill="#f29c1f"/><path d="M64.025,83.628H51.016A35.748,35.748,0,0,1,15.559,52.354l-2.7-21.683A25.545,25.545,0,0,1,38.159,2H59.842L70.5,12.2l-11.581,10.2H38.006a5.1,5.1,0,0,0-5.051,5.714L35.66,49.8a15.356,15.356,0,0,0,15.2,13.418h6.479Z" transform="translate(46.898 8.204)" fill="#f29c1f"/><path d="M65.275,112.239a43.875,43.875,0,0,1-43.829-45.87l2.8-61.5A5.1,5.1,0,0,1,29.343,0h71.869a5.1,5.1,0,0,1,5.1,4.872l2.8,61.5a43.875,43.875,0,0,1-43.834,45.87Z" transform="translate(82.738 0)" fill="#f0c419"/><path d="M29.6,59.13h-.291a5.1,5.1,0,0,1-4.806-5.377L27.058,7.837a5.015,5.015,0,0,1,5.382-4.826A5.1,5.1,0,0,1,37.257,8.4L34.706,54.314A5.1,5.1,0,0,1,29.6,59.13Z" transform="translate(95.451 12.294)" fill="#f3d55b"/><path d="M30.2,60.2H25.1a5.1,5.1,0,1,1,0-10.2h5.1a5.1,5.1,0,1,1,0,10.2Z" transform="translate(76.995 205.088)" fill="#f3d55b"/><path d="M55.611,60.2H30.1a5.1,5.1,0,1,1,0-10.2H55.611a5.1,5.1,0,0,1,0,10.2Z" transform="translate(97.504 205.088)" fill="#f3d55b"/></g></g></svg>