<svg xmlns="http://www.w3.org/2000/svg" xmlns:xlink="http://www.w3.org/1999/xlink" width="295.58" height="287.199" viewBox="0 0 295.58 287.199"><defs><filter id="a" x="0" y="0.231" width="295.58" height="286.968" filterUnits="userSpaceOnUse"><feOffset dy="3" input="SourceAlpha"/><feGaussianBlur stdDeviation="3" result="b"/><feFlood flood-opacity="0.161"/><feComposite operator="in" in2="b"/><feComposite in="SourceGraphic"/></filter></defs><g transform="translate(-31.546 -574.609)"><g transform="translate(40.546 574.609)"><g transform="matrix(1, 0, 0, 1, -9, 0)" filter="url(#a)"><path d="M277.58,150.032A138.766,138.766,0,0,1,204.5,272.309c-19.561,10.534-111.869,10.534-131.43,0a138.8,138.8,0,1,1,204.5-122.277Zm0,0" transform="translate(9 -5.01)" fill="#528ed7"/></g><path d="M273.25,8.5V127.461a8.5,8.5,0,0,1-8.5,8.5H187.194l-28.058,62.251a2.834,2.834,0,0,1-5.166,0l-28.056-62.251H48.354a8.5,8.5,0,0,1-8.5-8.5V8.5a8.5,8.5,0,0,1,8.5-8.5h216.4a8.5,8.5,0,0,1,8.5,8.5Zm0,0" transform="translate(-17.763 0)" fill="#2fcbe0"/><path d="M39.855,69.868V8.5a8.5,8.5,0,0,1,8.5-8.5h216.4a8.5,8.5,0,0,1,8.5,8.5V69.868a138.818,138.818,0,0,0-233.394,0Zm0,0" transform="translate(-17.763 0)" fill="#83e3ea"/><path d="M249.706,421.422H163.6a11.329,11.329,0,0,1-11.331-11.329V397.63A11.329,11.329,0,0,1,163.6,386.3h86.106a11.33,11.33,0,0,1,11.331,11.329v12.463A11.329,11.329,0,0,1,249.706,421.422Zm0,0" transform="translate(-67.864 -172.167)" fill="#fda800"/><path d="M263.827,421.422H195.282a11.327,11.327,0,0,1-11.329-11.329V397.63A11.328,11.328,0,0,1,195.282,386.3h68.545a11.329,11.329,0,0,1,11.331,11.329v12.463A11.329,11.329,0,0,1,263.827,421.422Zm0,0" transform="translate(-81.985 -172.167)" fill="#fdbf43"/><path d="M263.258,430.332v23.7a138.978,138.978,0,0,1-131.426,0v-23.7A11.329,11.329,0,0,1,143.161,419H251.929A11.328,11.328,0,0,1,263.258,430.332Zm0,0" transform="translate(-58.755 -186.742)" fill="#88b9d3"/><path d="M276.922,430.332v23.7a139.08,139.08,0,0,1-114.43,7.715V430.332A11.328,11.328,0,0,1,173.821,419h91.772a11.328,11.328,0,0,1,11.329,11.329Zm0,0" transform="translate(-72.42 -186.742)" fill="#b3d1e1"/><path d="M276.016,455.325a5.664,5.664,0,1,1-5.665-5.664A5.666,5.666,0,0,1,276.016,455.325Zm11.331-5.664a5.666,5.666,0,1,0,5.665,5.664A5.666,5.666,0,0,0,287.347,449.66Zm0,0" transform="translate(-117.966 -200.405)" fill="#6caac9"/><path d="M337.332,455.325a5.664,5.664,0,1,1-5.664-5.664A5.666,5.666,0,0,1,337.332,455.325Zm0,0" transform="translate(-145.293 -200.405)" fill="#fff5f5"/></g><text transform="translate(81.617 663.559)" fill="#f66886" font-size="69" font-family="Helvetica-Bold, Helvetica" font-weight="700" letter-spacing="0.025em"><tspan x="0" y="0">00:00</tspan></text></g></svg>