<svg id="help" xmlns="http://www.w3.org/2000/svg" width="48.871" height="48.871" viewBox="0 0 48.871 48.871">
  <circle id="Elipse_276" data-name="Elipse 276" cx="24.435" cy="24.435" r="24.435" fill="#414141"/>
  <g id="Agrupar_133" data-name="Agrupar 133" transform="translate(4.102 4.338)">
    <path id="Caminho_400" data-name="Caminho 400" d="M81.606,74.451H45.938a2.96,2.96,0,0,1-2.96-2.96V48.411a2.96,2.96,0,0,1,2.96-2.96H81.606a2.96,2.96,0,0,1,2.96,2.96v23.08A2.96,2.96,0,0,1,81.606,74.451Z" transform="translate(-42.978 -45.451)" fill="#707070"/>
    <path id="Caminho_401" data-name="Caminho 401" d="M179.55,240.249l-6.272-8.439,8.357-11.245,8.357,11.245-6.272,8.439A2.6,2.6,0,0,1,179.55,240.249Z" transform="translate(-160.841 -203.85)" fill="#707070"/>
  </g>
  <g id="Agrupar_134" data-name="Agrupar 134" transform="translate(8.298 13.321)">
    <path id="Caminho_402" data-name="Caminho 402" d="M92.869,146.153H88.7V151.2c0,.385-.435.585-.886.585-.435,0-.886-.2-.886-.585V140.133c0-.4.451-.569.886-.569.451,0,.886.167.886.569v4.616h4.164v-4.616c0-.4.451-.569.886-.569.451,0,.886.167.886.569V151.2c0,.385-.435.585-.886.585-.435,0-.886-.2-.886-.585Z" transform="translate(-86.932 -139.564)" fill="#fff"/>
    <path id="Caminho_403" data-name="Caminho 403" d="M192.6,144.965h2.575a.641.641,0,0,1,.585.719.625.625,0,0,1-.585.686H192.6v3.846h4.967c.368,0,.585.368.585.8,0,.368-.184.769-.585.769h-5.954c-.385,0-.786-.2-.786-.585V140.148c0-.385.4-.585.786-.585h5.954c.4,0,.585.4.585.769,0,.435-.217.8-.585.8H192.6Z" transform="translate(-180.908 -139.563)" fill="#fff"/>
    <path id="Caminho_404" data-name="Caminho 404" d="M283.241,151.789c-.385,0-.786-.2-.786-.585V140.133c0-.4.452-.569.886-.569.451,0,.886.167.886.569v10.084h4.348c.351,0,.535.385.535.786,0,.385-.184.786-.535.786Z" transform="translate(-263.792 -139.564)" fill="#fff"/>
    <path id="Caminho_405" data-name="Caminho 405" d="M366.025,140.133a.619.619,0,0,1,.686-.569h3.261c2.057,0,3.663.987,3.663,3.679v.134c0,2.676-1.656,3.7-3.763,3.7H367.8V151.2c0,.385-.435.585-.886.585-.435,0-.886-.2-.886-.585V140.133Zm1.773,1v4.532h2.074c1.237,0,1.99-.7,1.99-2.174v-.2c0-1.472-.753-2.157-1.99-2.157Z" transform="translate(-339.385 -139.564)" fill="#fff"/>
  </g>
</svg>
