<svg xmlns="http://www.w3.org/2000/svg" width="109.242" height="111.694" viewBox="0 0 109.242 111.694"><g transform="translate(-42.758 -614.543)"><g transform="translate(2.212 39.934)"><g transform="translate(40.546 574.609)"><path d="M109.242,65.863a54.612,54.612,0,0,1-28.759,48.122c-7.7,4.146-44.026,4.146-51.725,0a54.625,54.625,0,1,1,80.483-48.122Zm0,0" transform="translate(0 -8.79)" fill="#528ed7"/><path d="M131.708,3.344V50.162a3.344,3.344,0,0,1-3.344,3.344H97.84L86.8,78a1.115,1.115,0,0,1-2.033,0l-11.041-24.5H43.2a3.344,3.344,0,0,1-3.345-3.344V3.344A3.344,3.344,0,0,1,43.2,0h85.164a3.344,3.344,0,0,1,3.344,3.344Zm0,0" transform="translate(-31.161 0)" fill="#2fcbe0"/><path d="M39.855,27.5V3.344A3.344,3.344,0,0,1,43.2,0h85.164a3.344,3.344,0,0,1,3.344,3.344V27.5a54.632,54.632,0,0,0-91.852,0Zm0,0" transform="translate(-31.161 0)" fill="#83e3ea"/><path d="M190.616,400.123H156.729a4.459,4.459,0,0,1-4.459-4.458v-4.905a4.459,4.459,0,0,1,4.459-4.458h33.887a4.459,4.459,0,0,1,4.459,4.458v4.905A4.459,4.459,0,0,1,190.616,400.123Zm0,0" transform="translate(-119.052 -302.028)" fill="#fda800"/><path d="M215.388,400.123H188.412a4.458,4.458,0,0,1-4.458-4.458v-4.905a4.458,4.458,0,0,1,4.458-4.458h26.976a4.459,4.459,0,0,1,4.459,4.458v4.905A4.459,4.459,0,0,1,215.388,400.123Zm0,0" transform="translate(-143.824 -302.028)" fill="#fdbf43"/><path d="M183.555,423.462v9.329a54.7,54.7,0,0,1-51.723,0v-9.329A4.458,4.458,0,0,1,136.29,419H179.1A4.458,4.458,0,0,1,183.555,423.462Zm0,0" transform="translate(-103.072 -327.597)" fill="#88b9d3"/><path d="M207.526,423.462v9.329a54.736,54.736,0,0,1-45.034,3.036V423.462A4.458,4.458,0,0,1,166.951,419h36.117a4.458,4.458,0,0,1,4.459,4.458Zm0,0" transform="translate(-127.044 -327.597)" fill="#b3d1e1"/><path d="M269.146,451.889a2.229,2.229,0,1,1-2.229-2.229A2.23,2.23,0,0,1,269.146,451.889Zm4.459-2.229a2.23,2.23,0,1,0,2.229,2.229A2.23,2.23,0,0,0,273.605,449.66Zm0,0" transform="translate(-206.945 -351.565)" fill="#6caac9"/><path d="M330.462,451.889a2.229,2.229,0,1,1-2.229-2.229A2.23,2.23,0,0,1,330.462,451.889Zm0,0" transform="translate(-254.885 -351.565)" fill="#fff5f5"/></g></g></g></svg>