<svg xmlns="http://www.w3.org/2000/svg" width="63.282" height="63.282" viewBox="0 0 63.282 63.282"><path d="M63.282,31.641A31.641,31.641,0,1,0,31.641,63.282,31.641,31.641,0,0,0,63.282,31.641Z" transform="translate(0 0)" fill="#fbd285"/><path d="M188.963,116.326v3.734a2.749,2.749,0,0,1-2.815,2.815,2.819,2.819,0,0,1-2.815-2.815v-5.974c0-.057.057-.057.057-.115-.057-.057-.057-.057-.057-.115a2.9,2.9,0,0,1,2.815-2.815,6.434,6.434,0,1,0,0-12.867,6.347,6.347,0,0,0-5.514,3.159,2.834,2.834,0,0,1-3.906,1.034,2.8,2.8,0,0,1-.977-3.849,12.073,12.073,0,1,1,13.212,17.807Zm0,12.58v1.034a2.749,2.749,0,0,1-2.815,2.815,2.819,2.819,0,0,1-2.815-2.815v-1.034a2.857,2.857,0,0,1,2.815-2.815A2.783,2.783,0,0,1,188.963,128.905Z" transform="translate(-153.68 -81.107)" fill="#515262"/><path d="M8.512,31.641A31.646,31.646,0,0,1,35.9.286a31.642,31.642,0,1,0-4.256,63A31.914,31.914,0,0,0,35.9,63,31.646,31.646,0,0,1,8.512,31.641Z" transform="translate(0 0)" opacity="0.1"/></svg>