<svg xmlns="http://www.w3.org/2000/svg" xmlns:xlink="http://www.w3.org/1999/xlink" width="668.918" height="600.257" viewBox="0 0 668.918 600.257"><defs><linearGradient id="a" x1="0.383" y1="0.89" x2="0.624" y2="0.087" gradientUnits="objectBoundingBox"><stop offset="0" stop-color="#753841"/><stop offset="1" stop-color="#bd6f42"/></linearGradient><linearGradient id="b" x1="0.323" y1="0.99" x2="0.71" y2="-0.081" gradientUnits="objectBoundingBox"><stop offset="0" stop-color="#a52802"/><stop offset="1" stop-color="#f7ad20"/></linearGradient><filter id="c" x="182" y="35.033" width="94.583" height="94.583" filterUnits="userSpaceOnUse"><feOffset dy="3" input="SourceAlpha"/><feGaussianBlur stdDeviation="3" result="d"/><feFlood flood-opacity="0.161"/><feComposite operator="in" in2="d"/><feComposite in="SourceGraphic"/></filter><linearGradient id="e" x1="0.403" y1="0.957" x2="0.616" y2="-0.046" gradientUnits="objectBoundingBox"><stop offset="0" stop-color="#2a5fc7"/><stop offset="1" stop-color="#6e8dff"/></linearGradient><linearGradient id="f" x1="0.354" y1="0.97" x2="0.656" y2="-0.001" gradientUnits="objectBoundingBox"><stop offset="0" stop-color="#a30012"/><stop offset="1" stop-color="#f41c14"/></linearGradient><linearGradient id="g" x1="0.362" y1="0.95" x2="0.64" y2="0.047" gradientUnits="objectBoundingBox"><stop offset="0" stop-color="#603836"/><stop offset="1" stop-color="#c46730"/></linearGradient><linearGradient id="h" x1="0.357" y1="0.867" x2="0.654" y2="0.104" gradientUnits="objectBoundingBox"><stop offset="0" stop-color="#d05450"/><stop offset="1" stop-color="#ffe442"/></linearGradient><linearGradient id="i" x1="0.353" y1="0.911" x2="0.652" y2="0.074" gradientUnits="objectBoundingBox"><stop offset="0" stop-color="#25bfa9"/><stop offset="1" stop-color="#8acefb"/></linearGradient><linearGradient id="j" x1="0.352" y1="0.909" x2="0.645" y2="0.1" gradientUnits="objectBoundingBox"><stop offset="0" stop-color="#253cbc"/><stop offset="1" stop-color="#505bd7"/></linearGradient><filter id="k" x="311.275" y="0" width="357.643" height="357.644" filterUnits="userSpaceOnUse"><feOffset dy="3" input="SourceAlpha"/><feGaussianBlur stdDeviation="15" result="l"/><feFlood flood-color="#ffda2d"/><feComposite operator="in" in2="l"/><feComposite in="SourceGraphic"/></filter><clipPath id="m"><circle cx="89.421" cy="89.421" r="89.421" transform="translate(0 176.532) rotate(-80.783)" fill="#ffc141"/></clipPath><clipPath id="o"><path d="M132.362,103.5a28.3,28.3,0,1,1-28.3-28.3A28.3,28.3,0,0,1,132.362,103.5Z" transform="translate(-75.756 -75.195)" fill="url(#a)"/></clipPath><clipPath id="q"><g transform="matrix(1, 0, 0, 1, 0, 0)" filter="url(#c)"><path d="M188.716,146.461a38.291,38.291,0,1,1-38.29-38.291A38.291,38.291,0,0,1,188.716,146.461Z" transform="translate(-112.13 -108.17)" fill="url(#b)"/></g></clipPath><linearGradient id="r" x1="0.408" y1="1.531" x2="0.61" y2="-0.327" xlink:href="#b"/><linearGradient id="s" x1="0.404" y1="1.638" x2="0.626" y2="-0.832" xlink:href="#b"/><linearGradient id="t" x1="0.412" y1="1.756" x2="0.577" y2="-0.638" xlink:href="#b"/><linearGradient id="u" x1="0.42" y1="1.55" x2="0.564" y2="-0.493" xlink:href="#b"/><linearGradient id="v" x1="0.4" y1="1.322" x2="0.619" y2="-0.534" xlink:href="#b"/><linearGradient id="w" x1="0.424" y1="1.27" x2="0.611" y2="-0.424" xlink:href="#b"/><linearGradient id="x" x1="0.413" y1="1.113" x2="0.651" y2="-0.496" xlink:href="#b"/><linearGradient id="y" x1="0.409" y1="1.403" x2="0.605" y2="-0.865" xlink:href="#b"/><linearGradient id="z" x1="0.871" y1="-0.813" x2="2.149" y2="-5.586" xlink:href="#b"/><clipPath id="ab"><path d="M232.963,193.511a35.786,35.786,0,1,1-35.786-35.787A35.785,35.785,0,0,1,232.963,193.511Z" transform="translate(-161.39 -157.724)" fill="url(#e)"/></clipPath><clipPath id="ac"><path d="M220.24,165.387a7.22,7.22,0,1,1-7.22-7.22A7.22,7.22,0,0,1,220.24,165.387Z" transform="translate(-205.799 -158.167)" fill="#ada7ca"/></clipPath><clipPath id="ae"><path d="M270.257,234.926a31.432,31.432,0,1,1-31.431-31.433A31.432,31.432,0,0,1,270.257,234.926Z" transform="translate(-207.393 -203.493)" fill="url(#f)"/></clipPath><clipPath id="ag"><path d="M353.661,295.163a56.452,56.452,0,1,1-56.452-56.452A56.451,56.451,0,0,1,353.661,295.163Z" transform="translate(-240.757 -238.711)" fill="url(#g)"/></clipPath><clipPath id="ai"><path d="M396.076,346.055a44.629,44.629,0,1,1-44.629-44.627A44.629,44.629,0,0,1,396.076,346.055Z" transform="translate(-306.819 -301.428)" fill="url(#h)"/></clipPath><linearGradient id="aj" x1="0.767" y1="0.666" x2="0.249" y2="0.345" gradientUnits="objectBoundingBox"><stop offset="0" stop-color="#a5534a"/><stop offset="1" stop-color="#f17247"/></linearGradient><linearGradient id="ak" x1="0.767" y1="0.666" x2="0.249" y2="0.345" xlink:href="#aj"/><clipPath id="am"><path d="M444.257,401.232a40.331,40.331,0,1,1-40.33-40.3A40.315,40.315,0,0,1,444.257,401.232Z" transform="translate(-363.594 -360.935)" fill="url(#i)"/></clipPath><clipPath id="ao"><path d="M500.984,453.914a41.648,41.648,0,1,1-41.649-41.649A41.648,41.648,0,0,1,500.984,453.914Z" transform="translate(-417.688 -412.265)" fill="url(#j)"/></clipPath><filter id="ap" x="181" y="34.033" width="96" height="96" filterUnits="userSpaceOnUse"><feOffset dy="3" input="SourceAlpha"/><feGaussianBlur stdDeviation="3" result="aq"/><feFlood flood-color="#fff"/><feComposite operator="in" in2="aq"/><feComposite in="SourceGraphic"/></filter><filter id="ar" x="205.908" y="61.521" width="21.41" height="21.41" filterUnits="userSpaceOnUse"><feOffset dy="3" input="SourceAlpha"/><feGaussianBlur stdDeviation="3" result="as"/><feFlood flood-color="#fff"/><feComposite operator="in" in2="as"/><feComposite in="SourceGraphic"/></filter><filter id="at" x="219.549" y="96.393" width="21.41" height="21.41" filterUnits="userSpaceOnUse"><feOffset dy="3" input="SourceAlpha"/><feGaussianBlur stdDeviation="3" result="au"/><feFlood flood-color="#fff"/><feComposite operator="in" in2="au"/><feComposite in="SourceGraphic"/></filter><filter id="av" x="241.716" y="56.405" width="21.41" height="21.41" filterUnits="userSpaceOnUse"><feOffset dy="3" input="SourceAlpha"/><feGaussianBlur stdDeviation="3" result="aw"/><feFlood flood-color="#fff"/><feComposite operator="in" in2="aw"/><feComposite in="SourceGraphic"/></filter><filter id="ax" x="245.126" y="87.098" width="21.41" height="21.41" filterUnits="userSpaceOnUse"><feOffset dy="3" input="SourceAlpha"/><feGaussianBlur stdDeviation="3" result="ay"/><feFlood flood-color="#fff"/><feComposite operator="in" in2="ay"/><feComposite in="SourceGraphic"/></filter><filter id="az" x="195.677" y="83.688" width="21.41" height="21.41" filterUnits="userSpaceOnUse"><feOffset dy="3" input="SourceAlpha"/><feGaussianBlur stdDeviation="3" result="ba"/><feFlood flood-color="#fff"/><feComposite operator="in" in2="ba"/><feComposite in="SourceGraphic"/></filter></defs><g transform="translate(-214 -73.967)"><g transform="matrix(1, 0, 0, 1, 214, 73.97)" filter="url(#k)"><circle cx="94.626" cy="94.626" r="94.626" transform="translate(356.27 175.82) rotate(-45)" fill="#ffda2d"/></g><g transform="translate(601.507 147.199)"><circle cx="89.421" cy="89.421" r="89.421" transform="translate(0 176.532) rotate(-80.783)" fill="#ffc141"/><g transform="translate(0 0)" clip-path="url(#m)"><path d="M-292.612-38.1c-2.111-7.441,3.81-14.669,9.848-19.5,12.562-10.054,27.916-16.846,43.949-18.205s32.681,2.932,45.389,12.8c20.621,16.013,29.1,44.413,50.618,59.205C-132.4,3.357-119.753,6.655-107.181,7.919c46.863,4.707,95.437-19.6,119.76-59.934,6.942-11.511,12.113-25.094,9.333-38.247S5.835-114.89-7.2-111.608c-11.1,2.794-17.582,14.434-20.318,25.546S-30.658-63.09-35.77-52.852C-43.4-37.581-60.761-28.7-77.822-28.155A60.677,60.677,0,0,1-106.2-34.227c-20.524-10-33.494-30.414-46.4-49.248s-28.46-38.2-50.571-43.887c-19.761-5.083-40.969,2.139-57.667,13.866A115.831,115.831,0,0,0-306.42-46.455" transform="translate(217.095 165.168)" fill="#ff1f36" opacity="0.2"/><path d="M-154.241-204.585c5.637-5.716,15.384-5.767,22.283-1.661s11.276,11.482,13.838,19.091,3.582,15.638,5.462,23.443A109.223,109.223,0,0,0-86.5-115.069C-78.04-106-66.951-98.016-54.549-98.254c10.1-.193,19.287-5.813,27.174-12.129C-12.147-122.577.519-138.307,7.537-156.511s8.108-38.942,1.38-57.255c-9.793-26.655-36.724-46.074-65.108-46.946s-56.457,16.858-67.867,42.861" transform="translate(172.552 203.725)" fill="#ff1f36" opacity="0.2"/><path d="M-17.075-194.053c3.115,1.69,4.3,5.683,3.973,9.211s-1.843,6.82-2.85,10.218C-18.469-166.141-17.7-156.563-13.1-149s13.156,12.782,22,12.586c8.471-.187,16.218-5.044,22.2-11.048C46.34-162.771,52.144-187.2,44.18-207.282c-2.841-7.164-7.688-14.024-14.849-16.87-7.872-3.13-17.081-.734-24.06,4.068S-6.9-208.364-11.966-201.572" transform="translate(132.49 193.428)" fill="#ff1f36" opacity="0.2"/><path d="M88.959-121.542c-2.826,7.145-3.353,14.952-4.779,22.5A95.461,95.461,0,0,1,43.041-37.581C32.486-30.7,20.663-26,9.829-19.569S-11.212-4.431-15.645,7.362c-6.994,18.606,3.309,40.975,20.639,50.709s39.568,8.016,57.2-1.169,31.075-24.956,41.035-42.156C119.206-12.85,127.166-45.16,125-76.976c-.63-9.28-2.121-18.576-5.451-27.261-8.893-23.194-31.613-40.453-56.344-42.8" transform="translate(132.634 170.443)" fill="#ff1f36" opacity="0.2"/><path d="M-204.382-76.783c-.039-7.726,6.332-14.475,13.738-16.678s15.479-.6,22.578,2.442c21.114,9.059,35.125,30.01,42.018,51.926,5.343,16.989,7.1,34.9,11.754,52.095S-101.427,47.411-86.7,57.425c8.43,5.732,18.567,8.807,26.393,15.339,3.3,2.755,6.315,6.717,5.6,10.957-.461,2.737-2.4,4.983-4.481,6.823-7.895,6.99-18.555,10.13-29.054,11.1-31.667,2.918-63.285-12.8-84.246-36.715S-204.673,9.8-209.341-21.654c-2.313-15.586-3.118-31.536-.471-47.069s8.908-30.686,19.456-42.391" transform="translate(189.302 159.929)" fill="#ff1f36" opacity="0.2"/><path d="M-215.821,7.687c-.038-7.726,6.332-14.475,13.738-16.678S-186.6-9.6-179.5-6.548c21.114,9.06,35.125,30.01,42.018,51.927,5.343,16.989,7.1,34.9,11.755,52.094s12.866,34.408,27.594,44.423c8.43,5.732,18.567,8.806,26.393,15.339,3.3,2.755,6.315,6.717,5.6,10.957-.462,2.737-2.4,4.982-4.482,6.823-7.895,6.99-18.554,10.13-29.054,11.1-31.667,2.917-63.285-12.8-84.245-36.715s-32.186-55.123-36.853-86.58c-2.312-15.586-3.118-31.537-.471-47.069s8.908-30.686,19.456-42.391" transform="translate(192.65 135.205)" fill="#ff1f36" opacity="0.2"/><path d="M-88.451-251.37c10.657-1.833,19.9,7.633,24.9,17.222,12.454,23.9,11.789,52.2,11.373,79.153-.154,9.957.438,21.4,8.262,27.56,7.277,5.729,17.987,4.293,26.352.32,20.611-9.79,32.657-31.633,40.078-53.211,7.325-21.3,11.465-43.543,15.206-65.753,3.379-20.065,6.451-40.635,2.812-60.655" transform="translate(153.296 217.187)" fill="#ff1f36" opacity="0.2"/></g></g><path d="M1724.125-718.984l216.948,9.614-62.862,136.657-84.727,127.091,23.232,173.554L2005.3-355.428l189.953-45.1-42.649,208.681" transform="translate(-1499.415 859.881)" fill="none" stroke="#fbd285" stroke-width="2"/><circle cx="6.12" cy="6.12" r="6.12" transform="translate(645.931 661.983)" fill="#fbd285"/><circle cx="6.12" cy="6.12" r="6.12" transform="translate(215.749 133.874)" fill="#fbd285"/><path d="M132.362,103.5a28.3,28.3,0,1,1-28.3-28.3A28.3,28.3,0,0,1,132.362,103.5Z" transform="translate(159.229 39.443)" fill="url(#a)"/><g transform="translate(234.984 114.638)" clip-path="url(#o)"><path d="M76.766,91.7A4.037,4.037,0,0,0,80.8,94.2a5.16,5.16,0,0,0,2.345-1.037,43.413,43.413,0,0,0,3.235-2.934,7.451,7.451,0,0,1,3.8-2.032,3.5,3.5,0,0,1,3.678,1.756c.434.96.362,2.247,1.235,2.836s2,.054,3.025-.1a4.688,4.688,0,0,1,4.575,2.41,6.465,6.465,0,0,1,.29,5.32c-.339.943-1.021,1.924-2.02,1.985-.974.059-1.74-.761-2.41-1.469A6.24,6.24,0,0,0,96.3,99.27a2.661,2.661,0,0,0-2.667.358,4.658,4.658,0,0,0-1.074,2.742,16.714,16.714,0,0,1-3.7,7.722,8.763,8.763,0,0,1-3.027,2.425,7.849,7.849,0,0,1-4.508.409,11.451,11.451,0,0,1-7.757-5.365C71.816,104.6,71.5,101,71.8,97.57a19.945,19.945,0,0,1,2.139-7.761c.411-.755,1.144-2.6,2.146-1.875C76.906,88.533,76.387,90.785,76.766,91.7Z" transform="translate(-78.793 -65.782)" fill="#3c1f4e" opacity="0.1"/><path d="M89.207,75.547c1.079-.21,2.016.976,1.973,2.074a5.092,5.092,0,0,1-1.437,2.892c-1.728,2.091-3.7,4.1-4.564,6.677s-.159,5.939,2.319,7.044c1.826.811,3.954.17,5.778-.645s3.679-1.824,5.675-1.721A2.658,2.658,0,0,1,101.2,93a4.376,4.376,0,0,1,.3,2.055,5.407,5.407,0,0,0,2.195,4.485c1.467.925,3.761.535,4.461-1.051a7.538,7.538,0,0,0,.306-2.683c.084-1.6,1.026-3.419,2.625-3.5,1.639-.086,2.7,1.6,3.838,2.786,2.653,2.765,7.014,3.211,10.727,2.259a8.615,8.615,0,0,0,4.1-2.119,8.5,8.5,0,0,0,2.06-5.251,18.526,18.526,0,0,0-5.977-14.939,22.266,22.266,0,0,0-15.256-5.654,27.954,27.954,0,0,0-15.562,5.222" transform="translate(-68.965 -79.541)" fill="#3c1f4e" opacity="0.1"/><path d="M94.4,93.706a4.621,4.621,0,0,0,.166,4.832c1.014,1.249,2.817,1.567,3.987,2.672,1.672,1.583,1.749,4.464,3.643,5.774a3.984,3.984,0,0,0,4.407-.166,6.246,6.246,0,0,0,2.389-3.9c.331-1.581.224-3.247.715-4.788s1.9-3,3.5-2.745a8.238,8.238,0,0,1,1.346.439,5.416,5.416,0,0,0,5.442-1.27,3.977,3.977,0,0,0,1.249-2.815,4.112,4.112,0,0,0-3.478-3.6,9.1,9.1,0,0,0-5.251.929c-2.2.96-3.319.227-5.533.061a6.253,6.253,0,0,0-3.494,1.04,8.564,8.564,0,0,1-4.84.958A4.131,4.131,0,0,0,94.4,93.706Z" transform="translate(-62.244 -65.587)" fill="#3c1f4e" opacity="0.1"/><path d="M88.609,104.248a3.562,3.562,0,0,0,0,1.635,3.346,3.346,0,0,0,2.6,2,25.634,25.634,0,0,1,3.363.689c1.236.479,2.273,1.476,3.583,1.681a3.737,3.737,0,0,0,3.114-1.1,5.75,5.75,0,0,0,1.509-3.02,5.141,5.141,0,0,0-.073-2.52,7.62,7.62,0,0,0-1.563-2.455c-1.817-2.181-4.211-6.458-7.47-4.489A11.493,11.493,0,0,0,88.609,104.248Z" transform="translate(-66.206 -59.495)" fill="#3c1f4e" opacity="0.1"/><path d="M78.016,110.948a6.75,6.75,0,0,0,7.638-3.863,24.976,24.976,0,0,0,.9-3.648,5.4,5.4,0,0,1,1.826-3.2,2.511,2.511,0,0,1,3.382.261c.759,1.019.336,2.457.535,3.713.385,2.446,3.072,3.831,5.526,4.174s5.033.056,7.338.96a6.741,6.741,0,0,1,4.225,5.073,5.493,5.493,0,0,1-2.955,5.72,9.553,9.553,0,0,1-3.256.638,53.1,53.1,0,0,1-11.583-.082A21.209,21.209,0,0,1,81,116.324" transform="translate(-74.064 -56.838)" fill="#3c1f4e" opacity="0.1"/><path d="M78.408,83.217c-1.789,2.469-3.627,5.054-4.15,8.058a4.587,4.587,0,0,0,.768,3.868c1.472,1.64,4.1,1.128,6.26.687a33.858,33.858,0,0,1,7.595-.666,14.635,14.635,0,0,1,5.636,1.056c2.105.941,3.805,2.637,5.909,3.58s5.057.8,6.173-1.215a5.96,5.96,0,0,0,.147-4.137,3.409,3.409,0,0,0-.526-1.376c-.967-1.263-2.924-.7-4.473-.332-3.468.813-7.082-.075-10.532-.96-1.542-.4-3.345-1.04-3.728-2.588-.4-1.6.986-3.017,2-4.318a8.219,8.219,0,0,0,1.861-4.484,5.119,5.119,0,0,0-1.833-4.365c-1.71-1.3-4.137-1.117-6.182-.455a16.31,16.31,0,0,0-9.347,7.913" transform="translate(-77.08 -75.299)" fill="#3c1f4e" opacity="0.1"/><path d="M113.573,101.68a16.828,16.828,0,0,1-6.267,1.8,16.151,16.151,0,0,0-4.94,1.142,4.758,4.758,0,0,0-2.894,3.882,4.237,4.237,0,0,0,1.731,3.354,7.345,7.345,0,0,0,3.627,1.355c4.954.614,9.954-2.114,12.867-6.168,1.5-2.09,5.1-8.5,2.989-10.94-1.511-1.742-2.254.268-3.027,1.464A12.392,12.392,0,0,1,113.573,101.68Z" transform="translate(-58.001 -60.045)" fill="#3c1f4e" opacity="0.1"/><path d="M82.789,134.459s23.191-3.567,31.407-23.508-4.674-37.7-4.674-37.7,37.7,9.784,26.892,42.642S82.789,134.459,82.789,134.459Z" transform="translate(-70.49 -76.651)" fill="#3c1f4e" opacity="0.1"/></g><path d="M188.716,146.461a38.291,38.291,0,1,1-38.29-38.291A38.291,38.291,0,0,1,188.716,146.461Z" transform="translate(292.476 6.468)" fill="url(#b)"/><g transform="translate(405 115)" clip-path="url(#q)"><path d="M140.023,106.46a89.453,89.453,0,0,0-20.049,10.018,43.683,43.683,0,0,0-10.37,9.113,6.75,6.75,0,0,0-1.782,4.092c7.694-4.613,16.893-6.1,25.865-6.2s17.9,1.089,26.871,1.409,18.167-.278,26.433-3.763a26.66,26.66,0,0,0,9.207-6.1c.567-.605,1.123-1.486.706-2.2-.446-.764-1.567-.644-2.424-.425-21.394,5.426-44.067,7.827-65.493,2.529a24.091,24.091,0,0,0,12.622-11.98" transform="translate(-115.361 -112.084)" opacity="0.3" fill="url(#r)"/><path d="M112.921,124.6c6.4-.687,12.7,1.483,18.87,3.319,14.993,4.461,30.709,7.1,46.293,5.753,7.177-.621,14.385-2.121,20.745-5.5s11.832-8.8,14.252-15.586c.35,6.572-3.2,12.968-8.322,17.1s-11.652,6.2-18.181,7.021-13.143.465-19.718.227c-10.616-.383-21.341-.476-31.676-2.934-6.732-1.6-13.488-4.221-20.353-3.347-6.972.888-13.07,5.348-17.536,10.774" transform="translate(-123.242 -104.867)" opacity="0.3" fill="url(#s)"/><path d="M102.675,133.029c2.717-3.344,7.068-5.057,11.365-5.365a36.495,36.495,0,0,1,12.724,1.848,121.143,121.143,0,0,0,12.456,3.424c9.268,1.653,18.762-.152,28.175-.164.948,0,2.188.266,2.277,1.21a1.7,1.7,0,0,1-.3.988c-1.443,2.418-4.374,3.468-7.122,4.076a45.358,45.358,0,0,1-22.277-.7c-3.985-1.149-7.824-2.85-11.91-3.55-7.845-1.341-15.994,1.184-22.651,5.543" transform="translate(-119.214 -93.619)" opacity="0.3" fill="url(#t)"/><path d="M114.446,186.333s34.3,1.158,51.515-25.276,3.5-55.457,3.5-55.457,51.533,24.281,27.1,68.581S114.446,186.333,114.446,186.333Z" transform="translate(-110.401 -110.094)" fill="#3c1f4e" opacity="0.1"/><path d="M105.23,140.844a25.591,25.591,0,0,1,21.243-5.554c4.687.927,9.067,3.174,13.806,3.768,2.506.315,5.052.156,7.567.4a3.707,3.707,0,0,1-2.609,1.259,155.419,155.419,0,0,1-19.6,2.3,38.888,38.888,0,0,1-11-.673,16.484,16.484,0,0,1-9.294-5.592" transform="translate(-117.301 -88.209)" opacity="0.3" fill="url(#u)"/><path d="M145.68,149.186c11.645-4.608,22.142-11.692,33.509-16.948a37.732,37.732,0,0,1,12.188-3.789c4.258-.4,8.791.537,12.038,3.321A6.392,6.392,0,0,1,205.628,135a55.252,55.252,0,0,0-11.492.187c-10.017,1.21-19.521,5.145-28.411,9.917-6.091,3.268-11.97,6.949-18.265,9.8s-13.122,4.879-20.028,4.578a27.046,27.046,0,0,1-10.057-2.378c-.9-.414-8.665-5.012-7.208-6.141.437-.339,4.5,1.418,5.232,1.6a37.348,37.348,0,0,0,5.718.9,47.06,47.06,0,0,0,11.706-.609A64.971,64.971,0,0,0,145.68,149.186Z" transform="translate(-113.742 -93.052)" opacity="0.3" fill="url(#v)"/><path d="M114.378,155.252a32.842,32.842,0,0,0,10.426,1.885c7.311-.035,14.144-3.441,20.528-7s12.834-7.432,20.059-8.548a32.664,32.664,0,0,1,14.756,1.326c4.281,1.357,8.658,3.817,10.244,8.021a5.646,5.646,0,0,1-.073,4.681,3.217,3.217,0,0,1-4.108,1.455,5.581,5.581,0,0,1-1.7-1.82c-2.408-3.394-5.708-6.337-9.723-7.434-5.377-1.467-11.131.588-15.84,3.569s-8.792,6.89-13.587,9.733-10.727,4.559-15.953,2.625a12.869,12.869,0,0,1-7.71-8.149" transform="translate(-110.452 -83.399)" opacity="0.3" fill="url(#w)"/><path d="M173,134.622c-7.852,5.542-18.958,3.335-27.57,7.6,4.725-.488,9.151,2.146,13.79,3.156a20.563,20.563,0,0,0,8.822-.016,11.156,11.156,0,0,0,6.094-3.228c2.079-2.382,2.466-5.806,2.247-8.959" transform="translate(-87.207 -89.446)" opacity="0.3" fill="url(#x)"/><path d="M184.069,115.7c-3.49,2.878-8.014,4.172-12.467,4.975-11.8,2.126-23.942,1.3-35.829-.283-5.124-.682-10.8-1.381-15.06,1.542-.486.334-.993.817-.934,1.406.1,1.042,1.6,1.074,2.63.887,7.483-1.364,14.878,2.133,22.334,3.637,7.533,1.521,15.345,1,22.922-.285a57.981,57.981,0,0,0,17.025-5.187,28.961,28.961,0,0,0,12.732-12.126" transform="translate(-106.412 -106.598)" opacity="0.3" fill="url(#y)"/><path d="M124.524,120.257a3.877,3.877,0,0,0-2.81,2.177,26.316,26.316,0,0,0,4.72.523c2.835.315,5.585,1.548,8.394,2.228s5.877.736,8.186-1.109a7.736,7.736,0,0,0-2.275-1.259c-2.588-1.065-5.393-2.683-8.105-3A30.2,30.2,0,0,0,124.524,120.257Z" transform="translate(-104.96 -99.543)" opacity="0.22" fill="url(#z)"/></g><g transform="translate(341.656 247.54)"><path d="M237.643,194.914A39.063,39.063,0,1,1,198.58,155.85,39.064,39.064,0,0,1,237.643,194.914Z" transform="translate(-159.516 -155.85)" fill="#f9fbfc" opacity="0.15"/><g transform="translate(3.277 3.277)"><path d="M232.963,193.511a35.786,35.786,0,1,1-35.786-35.787A35.785,35.785,0,0,1,232.963,193.511Z" transform="translate(-161.39 -157.724)" fill="url(#e)"/><g clip-path="url(#ab)"><path d="M202.26,162.884c-.717-.236-1.4-.574-2.135-.741a9.494,9.494,0,0,0-1.967-.166l-6.437-.1c-.859-.012-2.088.484-1.729,1.264a1.289,1.289,0,0,0,.644.533q1.629.832,3.26,1.661c-1.761,1.3-3.705,2.971-3.611,5.159-.315.7-1.5.227-1.642-.521a4.924,4.924,0,0,1,.479-2.209c.21-.733.065-1.735-.67-1.939-.862-.238-1.476.811-1.752,1.661q-.47,1.453-.941,2.908a1.484,1.484,0,0,1-2.3,1.112,5.627,5.627,0,0,0-3.777-.227c-1.184.509-1.81,2.319-.787,3.1l-1.89,2.635a5.127,5.127,0,0,1,1.221,3.938l-6.033.542c-.191.446.01,2.836-.336,3.239a4.937,4.937,0,0,0,1.123,2.219c.261.086,2.277.432,2.709.518a24.384,24.384,0,0,1,2.852-1.67,6,6,0,0,1,1.326-3.571,18.376,18.376,0,0,1,4.344-1.044,4.045,4.045,0,0,1,1.528.026,2.845,2.845,0,0,1,1.855,2.571,8.345,8.345,0,0,1-.624,3.295,11.615,11.615,0,0,0,3.711-2.632,2.058,2.058,0,1,1,1.794-3.688c.458.275.8.719,1.257.99a6.944,6.944,0,0,0,1.5.5,5.06,5.06,0,0,1,3.207,6.1c-2.291-.423-4.34,1.953-6.659,1.728a10.81,10.81,0,0,1-3.279-1.4,7.354,7.354,0,0,0-6.063,0c-2.5-1.375-11.673-.138-12.188.584a38.949,38.949,0,0,0-3.622,6.348,2.689,2.689,0,0,0-.292,1.11,2.742,2.742,0,0,0,.5,1.273l1.555,2.572c.638,1.058,1.532,2.256,2.765,2.168.579-.042,1.133-.381,1.707-.289a2.035,2.035,0,0,1,.8.372c3.158,2.154,4.221,6.217,5.844,9.681a26.581,26.581,0,0,0,5.785,8.011,1.089,1.089,0,0,0,.738.39,3.973,3.973,0,0,0,1.841-.825c1.4-2.46,1.747-4.784,3.148-7.241a8.827,8.827,0,0,0,1.238-2.971c.252-1.675-.448-3.534.39-5.008-1.06-.212-1.4-1.653-1-2.656a19.56,19.56,0,0,1,1.806-2.681,5.272,5.272,0,0,0,.2-5c-.547-1.1-1.513-2.277-.993-3.389a17.045,17.045,0,0,1,2.446,6.6,5.386,5.386,0,0,0,.553,2.07c.421.687,1.27.908,1.95,1.343.766.486,6.227-1.987,6.434-2.69a3.423,3.423,0,0,0,.042-2.546c-.252-.484-.675-.859-.96-1.326-1.114-1.813,0-4.683-1.682-5.988,4.926-1.17,6.759-1.333,11.152,1.186a52.112,52.112,0,0,0,6.08,11.849,5.831,5.831,0,0,0,2.268,1.548c.738.042,1.231-2.074,1.443-2.784.385-1.3,1.159-3.337,1.546-4.638a4.791,4.791,0,0,1,4.069-3.107c1.464-.2,3.156.918,4.3-.01a2.985,2.985,0,0,0,.783-1.277,14.041,14.041,0,0,0,1.221-4.311,12.188,12.188,0,0,0-.733-4.372,44.78,44.78,0,0,0-12.348-19.43c-2.2-2.027-6.157-5.187-9.294-3.424-1.5.839-2.616,2.154-4.239,2.812A7.968,7.968,0,0,1,202.26,162.884Z" transform="translate(-157.689 -156.539)" fill="#51ff4a" opacity="0.75"/><path d="M162.53,237.713s34.243-2.3,48.7-30.34-2.111-55.527-2.111-55.527,53.717,18.963,33.872,65.5S162.53,237.713,162.53,237.713Z" transform="translate(-160.536 -162.125)" fill="#3c1f4e" opacity="0.1"/><path d="M174.434,172.416a1.836,1.836,0,0,1-.119.549,2.16,2.16,0,0,1-.308.477q-.588.755-1.177,1.513c.01-.168-.206-.248-.374-.241s-.36.047-.481-.068a.463.463,0,0,1-.11-.3c-.14-1.18-.014-2.555-.892-3.357q-.152.947-.21,1.908a.772.772,0,0,1-.493.852,12.82,12.82,0,0,0-2.3,1.581c-.052-.68-.107-1.364-.159-2.046a1.457,1.457,0,0,1,.04-.616,1.441,1.441,0,0,1,.285-.435q.829-.981,1.658-1.966a2.575,2.575,0,0,0,.563-.887,2.637,2.637,0,0,0,.079-.724q.013-1.068.028-2.14l1.4-.327a1.01,1.01,0,0,1,.407-.035c.962.2,1.49,1.562,1.6,2.4A16.783,16.783,0,0,1,174.434,172.416Z" transform="translate(-156.596 -151.417)" fill="#51ff4a" opacity="0.75"/></g></g></g><g transform="translate(419.783 248.784)"><path d="M220.24,165.387a7.22,7.22,0,1,1-7.22-7.22A7.22,7.22,0,0,1,220.24,165.387Z" transform="translate(-205.799 -158.167)" fill="#ada7ca"/><g transform="translate(0)" clip-path="url(#ac)"><path d="M204.924,169.746a3.909,3.909,0,0,1,1.74-1.462,2.5,2.5,0,0,1,2.215.152c.8.512,1.153,1.491,1.76,2.221a6.932,6.932,0,0,0,3.62,1.943,4.05,4.05,0,0,0,1.717.2,3.511,3.511,0,0,0,1.989-1.314,13.726,13.726,0,0,1,1.614-1.812c.678-.547,1.525-.864,2.155-1.462a4.743,4.743,0,0,0,1.082-4.17,8.666,8.666,0,0,0-17.214.733" transform="translate(-207.428 -160.88)" fill="#3c1f4e" opacity="0.1"/><path d="M207.177,160.133a7.618,7.618,0,0,0-1.706,4.064,2.23,2.23,0,0,0,.469,1.877,7.154,7.154,0,0,0,1.814-1.557,2.191,2.191,0,0,1,2.166-.707c.612.24.964.9,1.551,1.2a1.894,1.894,0,0,0,1.594-.029,3.852,3.852,0,0,0,1.274-1.019,3.987,3.987,0,0,0,1.142-2.43,3.393,3.393,0,0,0-.406-1.62,4.522,4.522,0,0,0-2.962-2.358,3.927,3.927,0,0,0-3.6,1.019" transform="translate(-206.455 -159.48)" fill="#3c1f4e" opacity="0.1"/><path d="M210.982,163.352a1.614,1.614,0,0,0,1.342-.644,1.677,1.677,0,0,0,.134-1.491,3.816,3.816,0,0,0-.847-1.288,1.5,1.5,0,0,0-2.541.644A2.1,2.1,0,0,0,210.982,163.352Z" transform="translate(-199.921 -155.777)" fill="#3c1f4e" opacity="0.1"/><path d="M209.6,163.144a1.568,1.568,0,0,0,1-.289.508.508,0,0,0,.1-.667,1.956,1.956,0,0,0-.627-.578,1.476,1.476,0,0,0-1.889.289C207.845,162.486,208.561,163.141,209.6,163.144Z" transform="translate(-201.518 -152.154)" fill="#3c1f4e" opacity="0.1"/></g></g><path d="M270.257,234.926a31.432,31.432,0,1,1-31.431-31.433A31.432,31.432,0,0,1,270.257,234.926Z" transform="translate(57.32 178.697)" fill="url(#f)"/><g transform="translate(264.713 382.19)" clip-path="url(#ae)"><path d="M242.335,211.407a13.825,13.825,0,0,1-4.447-.128q-3.326-.456-6.65-.913c-2.254-.31-4.676-.591-6.694.46-1.887.983-3.085,2.978-4.97,3.961-.827.432-1.749.649-2.588,1.053-2.209,1.067-3.588,3.291-4.8,5.424a28.635,28.635,0,0,0-2.78,5.97,10.612,10.612,0,0,0-.045,6.493c.593,1.672,1.729,3.127,2.189,4.839.441,1.649.346,3.672,1.71,4.7a6.946,6.946,0,0,0,2.655.859,8.1,8.1,0,0,1,4.192,2.544c1.642,1.889,2.394,4.522,4.37,6.056a11.409,11.409,0,0,0,2.922,1.472l6.045,2.345a3.353,3.353,0,0,0,1.458.327c1.173-.1,1.875-1.317,2.338-2.4a65.364,65.364,0,0,0,4.1-13.29,11.115,11.115,0,0,1,1.2-3.845,8.683,8.683,0,0,1,4.092-3.062c2.887-1.256,6.313-2.3,7.623-5.16.916-2,.507-4.393,1.308-6.442a15.356,15.356,0,0,0,1.24-2.969c.271-1.684-.8-3.31-2.1-4.426s-2.838-1.92-4.04-3.132c-1-1.009-2.56-3.65-4.326-3.242-.675.157-1,.911-1.5,1.341A5.358,5.358,0,0,1,242.335,211.407Z" transform="translate(-206.289 -199.477)" fill="#3c1f4e" opacity="0.2"/><path d="M210.356,223.89a9.3,9.3,0,0,0,.425,3.807q.784,2.956,1.838,5.834a8.72,8.72,0,0,0,2,3.52,3.265,3.265,0,0,0,3.753.661c1.8-1.079,1.472-3.781,2.48-5.622,1.383-2.523,4.968-2.95,6.769-5.2a6.537,6.537,0,0,0,1.056-5.246,19.379,19.379,0,0,0-2-5.124,5.978,5.978,0,0,0-1.542-2.168c-2.174-1.646-7.22-.553-9.373.927A15.691,15.691,0,0,0,210.356,223.89Z" transform="translate(-205.224 -195.975)" fill="#3c1f4e" opacity="0.2"/><path d="M226.026,241.987a9.3,9.3,0,0,0,.427,3.807q.782,2.956,1.836,5.834a8.76,8.76,0,0,0,2,3.52,3.266,3.266,0,0,0,3.753.661c1.8-1.079,1.474-3.781,2.481-5.62,1.383-2.525,4.968-2.952,6.768-5.2a6.529,6.529,0,0,0,1.056-5.244,19.3,19.3,0,0,0-2-5.124,5.915,5.915,0,0,0-1.542-2.167c-2.172-1.647-7.219-.554-9.371.925A15.694,15.694,0,0,0,226.026,241.987Z" transform="translate(-193.491 -182.426)" fill="#3c1f4e" opacity="0.2"/><path d="M224.135,218.863a2.255,2.255,0,0,0-.334,1.623,2.727,2.727,0,0,0,.6.958,18.032,18.032,0,0,1,3,5.213,2.878,2.878,0,0,0,.626,1.158,2.679,2.679,0,0,0,1.46.544,17.246,17.246,0,0,0,4.115.322,5.806,5.806,0,0,0,3.727-1.586,8.673,8.673,0,0,0,1.63-2.952,7.277,7.277,0,0,0,.729-4.3,5.238,5.238,0,0,0-1.13-2.048C234.608,213.047,227.114,213.246,224.135,218.863Z" transform="translate(-195.146 -195.306)" fill="#3c1f4e" opacity="0.2"/><path d="M218.7,225.97a1.942,1.942,0,0,0-.5,1.273,2.067,2.067,0,0,0,.339.82,20.2,20.2,0,0,0,4.774,6.047,3.863,3.863,0,0,0,1.626.8c1.32.227,2.56-.672,3.5-1.621a6.385,6.385,0,0,0,2.207-4.309,5.153,5.153,0,0,0-1.931-3.709,15.217,15.217,0,0,0-3.716-2.154C222.02,221.742,220.43,223.583,218.7,225.97Z" transform="translate(-199.3 -189.154)" fill="#3c1f4e" opacity="0.2"/><path d="M207.081,234.7a2.658,2.658,0,0,0-.673,1.735,2.789,2.789,0,0,0,.462,1.114c1.81,3.018,3.686,6.117,6.5,8.233a5.265,5.265,0,0,0,2.214,1.086c1.8.308,3.485-.915,4.77-2.207,1.591-1.6,3.024-3.609,3-5.865a7.018,7.018,0,0,0-2.628-5.05,20.7,20.7,0,0,0-5.059-2.933C211.6,228.941,209.433,231.447,207.081,234.7Z" transform="translate(-208.136 -183.52)" fill="#3c1f4e" opacity="0.2"/><path d="M216.857,229.657c.32.317.7.57,1,.911.374.435.589.995.992,1.4a1.556,1.556,0,0,0,.691.425,1.528,1.528,0,0,0,1.75-1.273,2.489,2.489,0,0,0-.876-2.165c-.591-.544-2.2-1.63-3.078-1.476C216.158,227.69,216.118,228.924,216.857,229.657Z" transform="translate(-200.677 -185.542)" fill="#3c1f4e" opacity="0.2"/><path d="M229.161,228.092a2.054,2.054,0,0,0-.213.887c.037,1.058,1.266,1.562,2.095,2.221.984.785,1.528,2.021,2.506,2.815a4.534,4.534,0,0,0,4.783.374,6.561,6.561,0,0,0,3.127-3.824,5.892,5.892,0,0,0-.138-4.477,3.683,3.683,0,0,0-3.758-2.063c-1.873.344-3.415,0-5.239.8A6.11,6.11,0,0,0,229.161,228.092Z" transform="translate(-191.256 -188.157)" fill="#3c1f4e" opacity="0.2"/><path d="M205.639,281.193s34.243-2.3,48.7-30.338-2.111-55.527-2.111-55.527,53.715,18.963,33.871,65.5S205.639,281.193,205.639,281.193Z" transform="translate(-208.706 -209.606)" fill="#3c1f4e" opacity="0.1"/><path d="M233.2,209.085a2.08,2.08,0,0,0-.213.887c.038,1.058,1.266,1.563,2.095,2.223.985.783,1.528,2.02,2.506,2.814a4.534,4.534,0,0,0,4.783.374,6.545,6.545,0,0,0,3.125-3.824,5.868,5.868,0,0,0-.136-4.477,3.683,3.683,0,0,0-3.758-2.063c-1.871.345-3.415,0-5.239.8A6.11,6.11,0,0,0,233.2,209.085Z" transform="translate(-188.228 -202.387)" fill="#3c1f4e" opacity="0.2"/><path d="M206.791,209.235a1.616,1.616,0,0,0-.289.867c.052,1.033,1.721,1.527,2.843,2.168,1.339.768,2.074,1.976,3.4,2.751a8.2,8.2,0,0,0,6.489.367,7.4,7.4,0,0,0,4.242-3.737,4.286,4.286,0,0,0-.185-4.375,5.61,5.61,0,0,0-5.1-2.016c-2.541.337-4.634,0-7.109.778A7.477,7.477,0,0,0,206.791,209.235Z" transform="translate(-208.061 -202.205)" fill="#3c1f4e" opacity="0.2"/><path d="M236.791,224.585a5.726,5.726,0,0,0,.574,2.345c.42.79,1.107,1.415,1.516,2.212.327.638.5,1.418,1.095,1.822a2.72,2.72,0,0,0,1.229.355,3.248,3.248,0,0,0,2.784-.516,3.207,3.207,0,0,0,.677-1.736c.593-3.408,1.1-7.091-.465-10.176-1.025-2.018-3.805-3.594-5.68-1.57C237.048,218.91,236.665,222.586,236.791,224.585Z" transform="translate(-185.4 -193.844)" fill="#3c1f4e" opacity="0.2"/><path d="M227.691,211.736a9.988,9.988,0,0,0,3.76-.88c.409-.156.876-.374.962-.8.091-.444-.283-.836-.624-1.135l-1.427-1.256a5.911,5.911,0,0,0-1.6-1.121,3.729,3.729,0,0,0-2.87.133c-.9.4-3.281,1.716-2.985,2.88C223.232,210.833,226.593,211.7,227.691,211.736Z" transform="translate(-195.798 -201.381)" fill="#3c1f4e" opacity="0.2"/><path d="M238.954,228.774a2.984,2.984,0,0,0,1.534-.544.675.675,0,0,0,.392-.495.981.981,0,0,0-.254-.7l-.582-.776a2.71,2.71,0,0,0-.654-.692,1.054,1.054,0,0,0-1.17.08c-.369.245-1.34,1.061-1.217,1.782C237.135,228.218,238.506,228.754,238.954,228.774Z" transform="translate(-185.232 -187.076)" fill="#3c1f4e" opacity="0.2"/></g><path d="M353.661,295.163a56.452,56.452,0,1,1-56.452-56.452A56.451,56.451,0,0,1,353.661,295.163Z" transform="translate(22.207 293.868)" fill="url(#g)"/><g transform="translate(262.964 532.579)" clip-path="url(#ag)"><path d="M235.333,251.76a44.336,44.336,0,0,1,10.718-1.413c11.68-.1,22.838,4.375,34.192,7.11a117.2,117.2,0,0,0,68.105-4.165,19.379,19.379,0,0,0,5.729-2.982,7.344,7.344,0,0,0,2.864-5.58,89.438,89.438,0,0,1-18.388,7.906,27.173,27.173,0,0,1-6.021,1.261,25.466,25.466,0,0,1-7.2-.759c-8.355-1.868-16.382-5.463-24.93-5.982-8.826-.537-17.58,2.259-26.416,1.915-5.806-.226-11.466-1.8-17.221-2.6s-11.91-.74-17.006,2.051" transform="translate(-244.818 -234.205)" fill="#ac1f21" opacity="0.25"/><path d="M295.76,252.744c-1.579,1.8-11.279,2.933-17.823,2.032-1.836-.255-15.34-3.611-15.565-4.288-.434-1.3,14.878-2.28,16.6-2.37C283.692,247.878,291.3,251.375,295.76,252.744Z" transform="translate(-224.581 -231.676)" fill="#3c1f4e" opacity="0.2"/><path d="M328.364,266.329c-3.646,1.037-7.15,2.571-10.858,3.372-11.017,2.383-22.219-1.908-33.309-3.912-6.846-1.236-13.843-1.605-20.612-3.205s-13.5-4.629-17.826-10.08a20.432,20.432,0,0,0-9.732,7.6c4.942-1.593,10.84-1.8,14.855,1.493,2.656,2.181,4.034,5.5,5.752,8.476,2.919,5.063,7.493,9.634,13.264,10.541,2.235.351,4.52.135,6.771.351,6.08.588,11.4,4.249,17.288,5.886a23.722,23.722,0,0,0,14.581-.462c5.454-2.044,9.863-6.248,15.238-8.49,6.7-2.794,14.229-2.307,21.485-2.5s15.095-1.413,20.161-6.61c4.3-4.412,8.161-16.927-1.583-17.011-3.609-.03-6.346,1.913-8.74,4.375a24.693,24.693,0,0,1-11.589,6.809C338.527,264.372,333.344,264.909,328.364,266.329Z" transform="translate(-244.298 -228.929)" fill="#ac1f21" opacity="0.25"/><path d="M329.976,277.207c-5.64.766-11.41,1.107-16.751,3.071a62.479,62.479,0,0,1-6.344,2.359,30.128,30.128,0,0,1-6.71.644c-5.395.115-10.94.206-16-1.672-2.485-.92-4.783-2.293-7.259-3.24-3.048-1.166-6.3-1.665-9.45-2.537-5.281-1.46-10.279-3.98-15.7-4.8s-11.706.542-14.631,5.173a13.673,13.673,0,0,1,12.678-2.5c1.967.624,3.763,1.691,5.692,2.424,3.223,1.222,6.74,1.474,10,2.586,2.216.754,4.279,1.89,6.421,2.833,5.187,2.282,10.8,3.406,16.354,4.517,5.16,1.03,10.461,2.065,15.653,1.2a52.471,52.471,0,0,0,9.716-3.1,90.965,90.965,0,0,1,22.392-5.6c6.213-.654,12.564-.486,18.59-2.135,2.443-.668,10.527-3.49,10.884-6.638.427-3.782-6.4-.8-7.687-.254A108.827,108.827,0,0,1,329.976,277.207Z" transform="translate(-243.47 -216.858)" fill="#611f4e" opacity="0.38"/><path d="M374.417,272.327c-6.393.909-11.979,4.617-17.529,7.92-8.2,4.881-17.228,9.161-26.769,9.05-3.924-.047-7.8-.839-11.711-1.172-12.465-1.056-24.779,2.565-37.073,4.884a49.972,49.972,0,0,1-13.881,1.116c-7.624-.714-14.624-4.4-21.247-8.247-3.363-1.955-7.743-3.947-10.852-1.609,3.1-.539,6.231.892,8.724,2.81s4.568,4.333,7.063,6.25c5.979,4.59,13.932,5.933,21.448,5.376s14.782-2.843,22.042-4.863,14.735-3.8,22.256-3.326c5.15.329,10.174,1.71,15.3,2.34s10.588.442,15.06-2.132c4.176-2.4,7.093-6.661,11.4-8.817,2.782-1.394,6.566-2.469,6.948-5.557" transform="translate(-244.802 -213.542)" fill="#3c1f4e" opacity="0.2"/><path d="M356.152,279.213c-8.086,7.025-16.964,14.394-27.644,15.217-6.311.486-12.524-1.4-18.73-2.646s-12.975-1.763-18.566,1.2c-2.892,1.537-5.264,3.908-8.1,5.549a32.837,32.837,0,0,1-9.109,3.2,284.709,284.709,0,0,1-28.663,4.615c10.059.29,20.236.568,30.069-1.572a25.385,25.385,0,0,1,7.058-.99c2.752.189,5.3,1.441,7.913,2.329a30.984,30.984,0,0,0,17.622.649,14.063,14.063,0,0,0,6.69-3.455,15.632,15.632,0,0,1,2.88-2.887,9.205,9.205,0,0,1,3.483-.922c6.262-.871,12.29-2.929,18.272-4.977,5.942-2.034,12.349-4.431,15.64-9.779" transform="translate(-237.326 -208.387)" fill="#ac1f21" opacity="0.25"/><path d="M250.914,351.847s45.027-3.031,64.043-39.9-2.775-73.012-2.775-73.012,70.632,24.935,44.538,86.129S250.914,351.847,250.914,351.847Z" transform="translate(-233.152 -238.54)" fill="#3c1f4e" opacity="0.1"/><path d="M325.094,297.1a114.78,114.78,0,0,1-16.751,4.945,118.308,118.308,0,0,1-17.123,1.548,34.951,34.951,0,0,1-9.662-.495c-2.256-.546-4.375-1.532-6.58-2.256a29.471,29.471,0,0,0-23.844,2.59c8.777-1.427,18.05-2.508,26.33.726,2.676,1.046,5.2,2.529,8,3.165,1.728.39,3.527.453,5.223.967a44.146,44.146,0,0,1,4.952,2.251c8.077,3.6,17.424,1.074,25.886-1.49a25.85,25.85,0,0,0,15.362-9.588c1.56-1.712,8.315-8.675,2.025-7.306C334.276,293.17,329.583,295.517,325.094,297.1Z" transform="translate(-232.988 -198.828)" fill="#3c1f4e" opacity="0.2"/><path d="M275.215,286.712c.364,1.507-5.764,1.2-8.71.99A78.34,78.34,0,0,1,251.9,285.22c-3.158-.85-9.831-1.808-11.356-5.1-1.271-2.737-2.751-6.745.07-7.248,6.318-1.126,13.406,5.314,18.006,6.986Q267.059,282.923,275.215,286.712Z" transform="translate(-242.075 -213.23)" fill="#f9e1ac" opacity="0.77"/><path d="M253.469,244.39c14.588-.348,28.611,6.99,43.183,6.231A51.424,51.424,0,0,0,311.2,247.48a22.9,22.9,0,0,0,7.948-4.307,9.725,9.725,0,0,0,3.4-8.074c-2.852,1.376-4.812,4.054-7.219,6.112a28.472,28.472,0,0,1-8.918,4.879A52.055,52.055,0,0,1,262.5,241.8c-1.091-.658-2.441-1.374-3.562-.766" transform="translate(-231.239 -241.415)" fill="#611f4e" opacity="0.38"/><path d="M277.584,244.886c4.492.371,9.275,0,13.07-1.679s6.339-4.861,5.44-7.887a1.056,1.056,0,0,0-.392-.616c-.656-.456-1.782-.058-2.441.4-2.034,1.394-3.286,3.214-4.828,4.874a11.626,11.626,0,0,1-6.362,3.791,4.475,4.475,0,0,1-1.25.087,4.762,4.762,0,0,1-1.717-.607q-1.833-.939-3.669-1.88a17.561,17.561,0,0,0-4.83-1.88c-3.125-.581-10.618.2-5.22,2.5A39.962,39.962,0,0,0,277.584,244.886Z" transform="translate(-223.741 -241.861)" fill="#3c1f4e" opacity="0.2"/><path d="M248.777,250.332c3.406,4.087,9.368,4.527,14.579,5.6,5.384,1.109,10.529,3.195,15.915,4.291a88.881,88.881,0,0,0,12.265,1.336c5.956.373,11.954.741,17.877.016,4.368-.537,8.644-1.663,12.989-2.361,3.548-.568,7.171-.855,10.585-1.978,4.636-1.528,8.626-4.5,12.807-7.025a7.011,7.011,0,0,1,3.945-1.35,4.555,4.555,0,0,1-2.2,2.716c-5.874,4.068-12.946,5.989-19.934,7.484-22.193,4.755-45.48,5.89-67.49.355A31.126,31.126,0,0,1,249.7,255.2c-2.756-1.929-5.638-4.807-8.885-3.936" transform="translate(-240.716 -231.118)" fill="#3c1f4e" opacity="0.2"/><path d="M275.385,260.269c-.727.276-1.277,1.191-.867,1.852a1.713,1.713,0,0,0,.628.542,12.819,12.819,0,0,0,6.021,1.326,28.844,28.844,0,0,0,9.387-.869c3.025-.9,6.467-2.674,6.636-4.125.121-1.018-1.708-1.966-3.588-2.135-1.838-.168-3.674.427-8.116.939A61.351,61.351,0,0,0,275.385,260.269Z" transform="translate(-215.585 -225.145)" fill="#f9e1ac"/><path d="M283.4,291.46a15.878,15.878,0,0,1-8.682,3.288,4,4,0,0,0-1.525.337,1.228,1.228,0,0,0-.7,1.278c.2.843,1.355.916,2.217.838a30.284,30.284,0,0,1,8.049.348,6.575,6.575,0,0,0,1.5.161,4.493,4.493,0,0,0,1.427-.357,10.141,10.141,0,0,0,6.063-7.17,1.287,1.287,0,0,0,0-.736c-.177-.455-.748-.584-1.233-.616C287.424,288.634,285.693,289.548,283.4,291.46Z" transform="translate(-217.016 -201.205)" fill="#f9e1ac" opacity="0.77"/></g><path d="M349.8,313.878l7.824-3.581s18.166-4.641,20.553-3.05,3.712,6.365-3.978,13.921-9.812,6.365-9.812,6.365,10.741-11.536,9.28-13.921-10.076-3.581-18.3,0S349.8,313.878,349.8,313.878Z" transform="translate(183.813 163.563)" fill="#d05450"/><path d="M317.54,336.115s-11.662,9.489-12.774,15.275,17.125,4.443,17.125,4.443-21.336,8.1-24.624,1.667,19.393-23.05,19.393-23.05Z" transform="translate(144.545 184.178)" fill="#d05450"/><g transform="translate(439.583 460.882)"><g transform="translate(19.176)"><path d="M396.076,346.055a44.629,44.629,0,1,1-44.629-44.627A44.629,44.629,0,0,1,396.076,346.055Z" transform="translate(-306.819 -301.428)" fill="url(#h)"/><g clip-path="url(#ai)"><path d="M308.44,312.709c5.007,3.641,11.246,5.134,17.377,6,15.348,2.181,27.486,2.621,42.889.862,13.741-1.57,22.523-10.244,31.405-14.721.425-.213,1.425,3.37,1.873,3.525a1.739,1.739,0,0,1,.881,1.13,33.661,33.661,0,0,1,2.182,14.184,16.32,16.32,0,0,1-1.625,6.664c-2.139,4.029-6.549,6.264-10.826,7.85-21.053,7.81-44.65,5.779-66.217-.474-5.905-1.712-11.868-3.81-16.581-7.759s-7.99-10.118-6.981-16.183" transform="translate(-309.951 -298.87)" fill="#ac1f21" opacity="0.25"/><path d="M308.14,307.1a13.278,13.278,0,0,0,6.037,6.134,32.579,32.579,0,0,0,8.282,2.8c17.769,4.05,37.09,3.994,53.482-3.97a42.214,42.214,0,0,0,13.271-9.656,13.1,13.1,0,0,0,3.478-6.369,21.643,21.643,0,0,1-8.119,8.667c-4.456,2.661-9.683,3.616-14.729,4.826-5.633,1.352-11.2,3.083-16.95,3.781-14.84,1.8-29.7-3.407-42.884-10.45" transform="translate(-305.83 -305.462)" fill="#ac1f21" opacity="0.25"/><path d="M302.693,312.338c7.168,6.189,16.746,8.7,26.054,10.445,13.306,2.5,27.058,3.814,40.357,1.27a71.379,71.379,0,0,0,36.667-19.363c-1.945,4.262-3.971,8.64-7.4,11.83-3.651,3.394-8.53,5.1-13.325,6.458-22.826,6.465-47.61,6.909-70.106-.631a27.975,27.975,0,0,1-9.158-4.571c-2.642-2.191-4.6-5.437-4.5-8.868" transform="translate(-310.968 -298.987)" fill="#ac1f21" opacity="0.25"/><path d="M304.279,337.073c6.271,9.256,17.181,14.649,28.252,16.209s22.354-.33,33.161-3.191c18.008-4.772,36.13-12.921,47.126-27.96,1.243-1.7,2.424-3.594,2.49-5.7-1.722,2.17-2.219,5.031-3.165,7.635a28.306,28.306,0,0,1-9.571,12.426,61.456,61.456,0,0,1-13.892,7.635,149.737,149.737,0,0,1-44.9,11.127,66.279,66.279,0,0,1-16.184-.2,42.691,42.691,0,0,1-23.473-12.084" transform="translate(-308.838 -290.195)" fill="#ac1f21" opacity="0.25"/><path d="M354.916,354.153a127.244,127.244,0,0,0,57.386-20.9c-4.45,10.473-15.154,16.975-25.96,20.549-16.307,5.393-33.874,5.655-51,4.305-3.013-.24-30.866-3.366-25.867-9.863,1.439-1.871,9.639,2.822,11.918,3.5a73.671,73.671,0,0,0,15.938,2.808A100.431,100.431,0,0,0,354.916,354.153Z" transform="translate(-305.276 -277.602)" fill="#ac1f21" opacity="0.25"/><path d="M302.2,317.067c6.638,8.967,17.685,13.385,28.334,16.707,11.7,3.651,23.868,6.531,36.106,5.811,3.945-.233,8.168-.782,11.627,1.133-2.941,2.1-6.687,2.663-10.288,2.983a131.56,131.56,0,0,1-35.007-1.878c-7.086-1.282-14.241-3.1-20.269-7.035-5.542-3.623-9.824-8.841-13.92-14.044" transform="translate(-312.836 -289.719)" fill="#ac1f21" opacity="0.25"/><path d="M391.7,314.97c-4.024,5.5-9.747,8.534-15.375,10.832a90.217,90.217,0,0,1-58.879,3.721,10.912,10.912,0,0,0,5.494,2.4c14.229,3.106,29.039,3.824,43.522.3a76.845,76.845,0,0,0,39.685-24.1" transform="translate(-298.859 -296.415)" fill="#ac1f21" opacity="0.25"/><path d="M321,303.11a14.1,14.1,0,0,0,10.546,6.906,19.759,19.759,0,0,0,12.517-2.88,11.6,11.6,0,0,0,5.159-5.405c.922-2.364.376-5.432-1.757-6.806" transform="translate(-296.204 -306.298)" fill="#ac1f21" opacity="0.25"/><path d="M313.189,307.136c3.751,3.793,9.429,4.806,14.735,5.353,15.438,1.593,31.235.853,46.134-3.489-1.429,2.151-4.228,2.829-6.773,3.258a212.41,212.41,0,0,1-27.364,2.3c-10.935.4-22.55.449-31.921-5.2" transform="translate(-305.934 -297.154)" fill="#ac1f21" opacity="0.25"/><path d="M411.468,325.844c-2.492,5.823-8.254,9.49-13.866,12.43-24.715,12.947-53.619,18.834-81,13.472-4.314-.845-8.812-1.957-13.033-.728a2.189,2.189,0,0,0-1.123.616c-.588.72-.161,1.792.3,2.6,6.35,10.947,17.246,18.917,29.289,22.8s25.145,3.873,37.5,1.151c11.447-2.52,22.609-7.488,30.879-15.8s13.313-20.238,11.7-31.847" transform="translate(-310.307 -283.148)" fill="#ac1f21" opacity="0.25"/><path d="M303.888,405.534s45.027-3.029,64.043-39.893-2.775-73.012-2.775-73.012,70.632,24.937,44.54,86.129S303.888,405.534,303.888,405.534Z" transform="translate(-309.013 -308.016)" fill="#3c1f4e" opacity="0.1"/></g></g><path d="M306.251,368.146s21.451-3.38,56.029-24c16.174-9.642,35.861-26.122,35.861-26.122l4.109-.532a297.491,297.491,0,0,1-28.827,21.444c-9.431,6.122-19.9,12.218-25.517,15.214-16.053,8.565-39.93,17.043-39.93,17.043Z" transform="translate(-288.069 -289.4)" fill="#d05450"/><g transform="translate(0 8.511)"><path d="M422.1,308.44c-2.289-4-13.675-2.217-29.55,3.8.287.313.561.637.839.96,13.507-4.874,23.053-6.169,25.052-2.672,3.7,6.474-19.825,26.9-52.554,45.615s-62.261,28.644-65.963,22.167c-2.135-3.73,4.788-12.1,17.295-22.1-.129-.393-.261-.783-.378-1.177-14.691,11.43-22.994,21.14-20.575,25.368,3.977,6.949,35.366-3.527,70.113-23.4S426.077,315.39,422.1,308.44Z" transform="translate(-295.853 -306.295)" fill="url(#aj)"/><path d="M314.993,356.5c-.145-.376-.292-.752-.425-1.128-10.573,8.742-16.287,15.964-14.385,19.29,3.5,6.117,31.422-3.27,62.368-20.969s53.2-37.006,49.7-43.125c-1.763-3.08-9.718-2.226-21.128,1.635.283.345.554.7.829,1.061,8.308-2.328,14.009-2.483,15.467.066,3.343,5.846-16.87,23.7-45.146,39.869s-53.913,24.547-57.258,18.7C303.394,369.071,307.314,363.415,314.993,356.5Z" transform="translate(-292.883 -304.491)" fill="url(#ak)"/></g></g><g transform="translate(653.088 420.662)"><path d="M444.257,401.232a40.331,40.331,0,1,1-40.33-40.3A40.315,40.315,0,0,1,444.257,401.232Z" transform="translate(-363.594 -360.935)" fill="url(#i)"/><g clip-path="url(#am)"><path d="M372.206,355.05c-1.99,5.7.294,12.23,4.4,16.658s9.749,7.095,15.413,9.191c9.564,3.543,19.766,5.785,29.941,5.078A34.224,34.224,0,0,0,436.15,382.2a20.038,20.038,0,0,0,9.534-10.863c.334-1,.46-2.34-.435-2.9-1.054-.666-2.324.393-3.163,1.317a35.023,35.023,0,0,1-51.7.15c-4.643-5.05-8.032-11.648-14.2-14.656" transform="translate(-357.692 -365.341)" fill="#f9fbfc" opacity="0.58"/><path d="M363.458,362.861a46.5,46.5,0,0,0-2.579,14.932,29.939,29.939,0,0,0,2.355,12.634c4.361,9.567,14.9,14.735,25.1,17.291,13.85,3.469,28.8,3.448,42.146-1.616s24.9-15.473,29.9-28.838c.376-1,.616-2.354-.269-2.961-2.237.86-3.77,2.878-5.283,4.732a55.133,55.133,0,0,1-18.521,15.118,37.773,37.773,0,0,1-23.448,3.387c-8.691-1.721-16.3-6.934-22.9-12.836-4.606-4.115-8.925-8.67-14.3-11.708s-12.22-4.333-17.716-1.516" transform="translate(-367.833 -359.493)" fill="#f9fbfc" opacity="0.58"/><path d="M361.881,407.494a18.531,18.531,0,0,0,9.971,7.7,38.28,38.28,0,0,0,12.683,1.771,84.173,84.173,0,0,0,62.13-27.867c3.011-3.387,5.823-7.091,9.693-9.448a2.6,2.6,0,0,1,2.429-.46c1.152.586.918,2.294.4,3.476-2.015,4.573-5.655,8.217-9.389,11.541a143.5,143.5,0,0,1-43.067,26.435c-9.217,3.608-19.374,6.271-28.95,3.762-5.984-1.567-11.284-5.045-17.1-7.157" transform="translate(-365.776 -347.383)" fill="#f9fbfc" opacity="0.58"/><path d="M360.843,462.567s45.062-3.031,64.094-39.9-2.777-73.012-2.777-73.012,70.688,24.935,44.573,86.129S360.843,462.567,360.843,462.567Z" transform="translate(-365.654 -369.377)" fill="#3c1f4e" opacity="0.1"/><path d="M359.572,381.3c2.8,8.034,10.826,13.18,18.993,15.578s16.8,2.656,25.132,4.389c1.235.255,2.634.678,3.139,1.834a3.112,3.112,0,0,1,.068,1.952c-.658,2.791-3.179,4.851-5.914,5.729a23.112,23.112,0,0,1-8.541.593,77.552,77.552,0,0,1-19.082-3.163,36.188,36.188,0,0,1-16.244-10.157" transform="translate(-368.438 -345.687)" fill="#f9fbfc" opacity="0.58"/><path d="M393.178,374.235c-1.675-.694-3.506-1.361-5.264-.915a5.217,5.217,0,0,0-3.66,4.765,7.456,7.456,0,0,0,2.522,5.7,13.418,13.418,0,0,0,5.664,2.92,22.65,22.65,0,0,0,9.989.444c3.569-.645,10.174-5.587,5.1-8.859-1.621-1.046-4.123-1.04-5.961-1.388A42.528,42.528,0,0,1,393.178,374.235Z" transform="translate(-348.132 -351.77)" fill="#f9fbfc" opacity="0.58"/></g></g><path d="M452.716,378.072c.1.362.18.728.268,1.095,14.556,2.338,23.125,5.853,23.125,9.23,0,5.772-25.024,11.958-62.275,11.958s-62.271-6.185-62.271-11.958c0-3.359,8.481-6.855,22.9-9.193.086-.365.17-.733.264-1.095C360.5,380.337,350.5,383.857,350.5,388.4c0,8.149,32.2,13.017,63.333,13.017s63.335-4.868,63.335-13.017C477.169,383.832,467.07,380.3,452.716,378.072Z" transform="translate(279.691 72.558)" fill="#82ffdb"/><path d="M500.984,453.914a41.648,41.648,0,1,1-41.649-41.649A41.648,41.648,0,0,1,500.984,453.914Z" transform="translate(207.258 164.032)" fill="url(#j)"/><g transform="translate(624.946 576.297)" clip-path="url(#ao)"><path d="M414.965,420.469c13.759,3.35,28.117,2.915,42.27,2.459q36.342-1.173,72.683-2.345c-1.332,2.324-4.408,2.828-7.077,3.076q-13.708,1.275-27.43,2.368c-14.327,1.145-28.686,2.142-43.06,2.03a279.224,279.224,0,0,1-43.338-3.739" transform="translate(-424.184 -406.123)" fill="#f9fbfc" opacity="0.19"/><path d="M514.376,432.733c2.656-.345,5.391-.715,7.976-.014s5,2.773,5.2,5.44a9.182,9.182,0,0,1-1.046,4.3c-1.266,2.892-2.842,5.837-5.512,7.523-2.226,1.406-4.937,1.761-7.553,2.083-31.947,3.926-65.115,7.75-95.719-2.219a6.622,6.622,0,0,1-3.6-2.147,6.8,6.8,0,0,1-.839-3.672c-.124-3.358-1.151-8.044-.418-11.3.88-3.894,2.94-2.3,6.773-1.667q11.41,1.889,22.936,2.955a326.066,326.066,0,0,0,46.206,1C497.347,434.59,505.874,433.8,514.376,432.733Z" transform="translate(-421.49 -398.845)" fill="#f9fbfc" opacity="0.31"/><path d="M412.877,514.667s45.062-3.029,64.094-39.893-2.777-73.012-2.777-73.012,70.688,24.937,44.573,86.129S412.877,514.667,412.877,514.667Z" transform="translate(-421.29 -420.129)" fill="#3c1f4e" opacity="0.1"/><path d="M415.8,417.174a66.009,66.009,0,0,0,17.676,5.7c7.016,1.289,14.878,1.5,20.607-2.751a2.426,2.426,0,0,0,1.013-1.229,1.8,1.8,0,0,0-1.14-1.929,5.371,5.371,0,0,0-2.4-.257,139.31,139.31,0,0,1-30.314-2.039" transform="translate(-419.103 -410.463)" fill="#f9fbfc" opacity="0.58"/><path d="M515.923,450.7a725.875,725.875,0,0,1-103.34-.626A569.67,569.67,0,0,0,521.249,453.3" transform="translate(-421.51 -383.956)" fill="#f9fbfc" opacity="0.58"/></g><text transform="translate(214 199.592)" fill="#fff" font-size="22" font-family="Helvetica" letter-spacing="0.02em"><tspan x="0" y="0">Mercúrio</tspan></text><text transform="translate(492.044 152.377)" fill="#fff" font-size="22" font-family="Helvetica" letter-spacing="0.02em"><tspan x="0" y="0">Vênus</tspan></text><text transform="translate(429.091 319.504)" fill="#fff" font-size="22" font-family="Helvetica" letter-spacing="0.02em"><tspan x="0" y="0">Terra</tspan></text><text transform="translate(336.409 425.175)" fill="#fff" font-size="22" font-family="Helvetica" letter-spacing="0.02em"><tspan x="0" y="0" xml:space="preserve"> Marte </tspan></text><text transform="translate(355.645 664.999)" fill="#fff" font-size="22" font-family="Helvetica" letter-spacing="0.02em"><tspan x="0" y="0">Júpiter </tspan></text><text transform="translate(488.547 583.559)" fill="#fff" font-size="22" font-family="Helvetica" letter-spacing="0.02em"><tspan x="0" y="0">Saturno</tspan></text><text transform="translate(733.366 518.856)" fill="#fff" font-size="22" font-family="Helvetica" letter-spacing="0.02em"><tspan x="0" y="0">Urano</tspan></text><text transform="translate(712.381 663.999)" fill="#fff" font-size="22" font-family="Helvetica" letter-spacing="0.02em"><tspan x="0" y="0">Netuno</tspan></text><path d="M1745.491-700.783" transform="translate(-1483.417 873.508)" fill="none" stroke="#707070" stroke-width="1"/><path d="M1882.686-746.374" transform="translate(-1394.688 839.374)" fill="none" stroke="#707070" stroke-width="1"/><g transform="matrix(1, 0, 0, 1, 214, 73.97)" filter="url(#ap)"><circle cx="39" cy="39" r="39" transform="translate(190 40.03)" fill="#fff" opacity="0.49"/></g><g transform="translate(280.677 -58.628)"><g transform="matrix(1, 0, 0, 1, -66.68, 132.59)" filter="url(#ar)"><circle cx="1.705" cy="1.705" r="1.705" transform="translate(214.91 67.52)" fill="#fff"/></g><g transform="matrix(1, 0, 0, 1, -66.68, 132.59)" filter="url(#at)"><circle cx="1.705" cy="1.705" r="1.705" transform="translate(228.55 102.39)" fill="#fff"/></g><g transform="matrix(1, 0, 0, 1, -66.68, 132.59)" filter="url(#av)"><circle cx="1.705" cy="1.705" r="1.705" transform="translate(250.72 62.41)" fill="#fff"/></g><g transform="matrix(1, 0, 0, 1, -66.68, 132.59)" filter="url(#ax)"><circle cx="1.705" cy="1.705" r="1.705" transform="translate(254.13 93.1)" fill="#fff"/></g><g transform="matrix(1, 0, 0, 1, -66.68, 132.59)" filter="url(#az)"><circle cx="1.705" cy="1.705" r="1.705" transform="translate(204.68 89.69)" fill="#fff"/></g></g></g></svg>