<svg xmlns="http://www.w3.org/2000/svg" xmlns:xlink="http://www.w3.org/1999/xlink" width="56.606" height="58.087" viewBox="0 0 56.606 58.087"><defs><linearGradient id="a" x1="0.383" y1="0.89" x2="0.624" y2="0.087" gradientUnits="objectBoundingBox"><stop offset="0" stop-color="#753841"/><stop offset="1" stop-color="#bd6f42"/></linearGradient><clipPath id="c"><path d="M132.362,103.5a28.3,28.3,0,1,1-28.3-28.3A28.3,28.3,0,0,1,132.362,103.5Z" transform="translate(-75.756 -75.195)" fill="url(#a)"/></clipPath></defs><g transform="translate(-234.984 -114.638)"><path d="M132.362,103.5a28.3,28.3,0,1,1-28.3-28.3A28.3,28.3,0,0,1,132.362,103.5Z" transform="translate(159.229 39.443)" fill="url(#a)"/><g transform="translate(234.984 114.638)" clip-path="url(#c)"><path d="M76.766,91.7A4.037,4.037,0,0,0,80.8,94.2a5.16,5.16,0,0,0,2.345-1.037,43.413,43.413,0,0,0,3.235-2.934,7.451,7.451,0,0,1,3.8-2.032,3.5,3.5,0,0,1,3.678,1.756c.434.96.362,2.247,1.235,2.836s2,.054,3.025-.1a4.688,4.688,0,0,1,4.575,2.41,6.465,6.465,0,0,1,.29,5.32c-.339.943-1.021,1.924-2.02,1.985-.974.059-1.74-.761-2.41-1.469A6.24,6.24,0,0,0,96.3,99.27a2.661,2.661,0,0,0-2.667.358,4.658,4.658,0,0,0-1.074,2.742,16.714,16.714,0,0,1-3.7,7.722,8.763,8.763,0,0,1-3.027,2.425,7.849,7.849,0,0,1-4.508.409,11.451,11.451,0,0,1-7.757-5.365C71.816,104.6,71.5,101,71.8,97.57a19.945,19.945,0,0,1,2.139-7.761c.411-.755,1.144-2.6,2.146-1.875C76.906,88.533,76.387,90.785,76.766,91.7Z" transform="translate(-78.793 -65.782)" fill="#3c1f4e" opacity="0.1"/><path d="M89.207,75.547c1.079-.21,2.016.976,1.973,2.074a5.092,5.092,0,0,1-1.437,2.892c-1.728,2.091-3.7,4.1-4.564,6.677s-.159,5.939,2.319,7.044c1.826.811,3.954.17,5.778-.645s3.679-1.824,5.675-1.721A2.658,2.658,0,0,1,101.2,93a4.376,4.376,0,0,1,.3,2.055,5.407,5.407,0,0,0,2.195,4.485c1.467.925,3.761.535,4.461-1.051a7.538,7.538,0,0,0,.306-2.683c.084-1.6,1.026-3.419,2.625-3.5,1.639-.086,2.7,1.6,3.838,2.786,2.653,2.765,7.014,3.211,10.727,2.259a8.615,8.615,0,0,0,4.1-2.119,8.5,8.5,0,0,0,2.06-5.251,18.526,18.526,0,0,0-5.977-14.939,22.266,22.266,0,0,0-15.256-5.654,27.954,27.954,0,0,0-15.562,5.222" transform="translate(-68.965 -79.541)" fill="#3c1f4e" opacity="0.1"/><path d="M94.4,93.706a4.621,4.621,0,0,0,.166,4.832c1.014,1.249,2.817,1.567,3.987,2.672,1.672,1.583,1.749,4.464,3.643,5.774a3.984,3.984,0,0,0,4.407-.166,6.246,6.246,0,0,0,2.389-3.9c.331-1.581.224-3.247.715-4.788s1.9-3,3.5-2.745a8.238,8.238,0,0,1,1.346.439,5.416,5.416,0,0,0,5.442-1.27,3.977,3.977,0,0,0,1.249-2.815,4.112,4.112,0,0,0-3.478-3.6,9.1,9.1,0,0,0-5.251.929c-2.2.96-3.319.227-5.533.061a6.253,6.253,0,0,0-3.494,1.04,8.564,8.564,0,0,1-4.84.958A4.131,4.131,0,0,0,94.4,93.706Z" transform="translate(-62.244 -65.587)" fill="#3c1f4e" opacity="0.1"/><path d="M88.609,104.248a3.562,3.562,0,0,0,0,1.635,3.346,3.346,0,0,0,2.6,2,25.634,25.634,0,0,1,3.363.689c1.236.479,2.273,1.476,3.583,1.681a3.737,3.737,0,0,0,3.114-1.1,5.75,5.75,0,0,0,1.509-3.02,5.141,5.141,0,0,0-.073-2.52,7.62,7.62,0,0,0-1.563-2.455c-1.817-2.181-4.211-6.458-7.47-4.489A11.493,11.493,0,0,0,88.609,104.248Z" transform="translate(-66.206 -59.495)" fill="#3c1f4e" opacity="0.1"/><path d="M78.016,110.948a6.75,6.75,0,0,0,7.638-3.863,24.976,24.976,0,0,0,.9-3.648,5.4,5.4,0,0,1,1.826-3.2,2.511,2.511,0,0,1,3.382.261c.759,1.019.336,2.457.535,3.713.385,2.446,3.072,3.831,5.526,4.174s5.033.056,7.338.96a6.741,6.741,0,0,1,4.225,5.073,5.493,5.493,0,0,1-2.955,5.72,9.553,9.553,0,0,1-3.256.638,53.1,53.1,0,0,1-11.583-.082A21.209,21.209,0,0,1,81,116.324" transform="translate(-74.064 -56.838)" fill="#3c1f4e" opacity="0.1"/><path d="M78.408,83.217c-1.789,2.469-3.627,5.054-4.15,8.058a4.587,4.587,0,0,0,.768,3.868c1.472,1.64,4.1,1.128,6.26.687a33.858,33.858,0,0,1,7.595-.666,14.635,14.635,0,0,1,5.636,1.056c2.105.941,3.805,2.637,5.909,3.58s5.057.8,6.173-1.215a5.96,5.96,0,0,0,.147-4.137,3.409,3.409,0,0,0-.526-1.376c-.967-1.263-2.924-.7-4.473-.332-3.468.813-7.082-.075-10.532-.96-1.542-.4-3.345-1.04-3.728-2.588-.4-1.6.986-3.017,2-4.318a8.219,8.219,0,0,0,1.861-4.484,5.119,5.119,0,0,0-1.833-4.365c-1.71-1.3-4.137-1.117-6.182-.455a16.31,16.31,0,0,0-9.347,7.913" transform="translate(-77.08 -75.299)" fill="#3c1f4e" opacity="0.1"/><path d="M113.573,101.68a16.828,16.828,0,0,1-6.267,1.8,16.151,16.151,0,0,0-4.94,1.142,4.758,4.758,0,0,0-2.894,3.882,4.237,4.237,0,0,0,1.731,3.354,7.345,7.345,0,0,0,3.627,1.355c4.954.614,9.954-2.114,12.867-6.168,1.5-2.09,5.1-8.5,2.989-10.94-1.511-1.742-2.254.268-3.027,1.464A12.392,12.392,0,0,1,113.573,101.68Z" transform="translate(-58.001 -60.045)" fill="#3c1f4e" opacity="0.1"/><path d="M82.789,134.459s23.191-3.567,31.407-23.508-4.674-37.7-4.674-37.7,37.7,9.784,26.892,42.642S82.789,134.459,82.789,134.459Z" transform="translate(-70.49 -76.651)" fill="#3c1f4e" opacity="0.1"/></g><path d="M1745.491-700.783" transform="translate(-1483.417 873.508)" fill="none" stroke="#707070" stroke-width="1"/></g></svg>