<svg id="new-product_1_" data-name="new-product (1)" xmlns="http://www.w3.org/2000/svg" width="342.975" height="342.975" viewBox="0 0 342.975 342.975">
  <path id="Caminho_360" data-name="Caminho 360" d="M295.167,288H89.181L67.054,332.255H87.069v99.573h210.21V332.255h20.015Zm-6.839,11.064,11.064,22.127h-87.2l-11.064-22.127Zm-192.307,0h87.2l-11.064,22.127h-87.2Zm190.2,121.7h-88.51V382.041H186.643v38.723H98.134v-88.51H179l7.644-15.291v48.482h11.064V316.964l7.644,15.291h80.865Zm0,0" transform="translate(-20.687 -88.853)" fill="#707070"/>
  <path id="Caminho_361" data-name="Caminho 361" d="M128,416h33.191v11.064H128Zm0,0" transform="translate(-39.49 -128.344)" fill="#707070"/>
  <path id="Caminho_362" data-name="Caminho 362" d="M128,448h33.191v11.064H128Zm0,0" transform="translate(-39.49 -138.216)" fill="#707070"/>
  <path id="Caminho_363" data-name="Caminho 363" d="M192,448h11.064v11.064H192Zm0,0" transform="translate(-59.236 -138.216)" fill="#707070"/>
  <path id="Caminho_364" data-name="Caminho 364" d="M204.1,93.451l25.547-6.512L255.2,93.446l2-27.432,13.57-23.181-24-10.388L229.652,11.281,212.53,32.444l-24,10.388L202.1,66.013Zm15.318-51.939L229.652,28.87l10.229,12.647,15.034,6.512-8.557,14.618L245.129,79.47l-15.477-3.944-15.477,3.938-1.229-16.822-8.557-14.621Zm0,0" transform="translate(-58.164 -3.48)" fill="#707070"/>
  <path id="Caminho_365" data-name="Caminho 365" d="M69.543,131.891l8.038-13.724L63.341,112,53.058,99.281,42.775,111.992l-14.24,6.169,8.038,13.724,1.188,16.369,15.3-3.89,15.3,3.895ZM58.7,128.515l-.421,5.759-5.221-1.326-5.216,1.326-.427-5.759-3.025-5.173,5.273-2.282,3.4-4.189,3.39,4.195,5.273,2.285Zm0,0" transform="translate(-8.804 -30.63)" fill="#707070"/>
  <path id="Caminho_366" data-name="Caminho 366" d="M437.543,131.891l8.038-13.724L431.342,112,421.059,99.281l-10.283,12.711-14.24,6.169,8.038,13.724,1.188,16.369,15.3-3.89,15.3,3.895ZM426.7,128.515l-.421,5.759-5.221-1.326-5.216,1.326-.421-5.759-3.025-5.173,5.273-2.282,3.39-4.189,3.39,4.195,5.273,2.285Zm0,0" transform="translate(-122.339 -30.63)" fill="#707070"/>
  <path id="Caminho_367" data-name="Caminho 367" d="M97.745,174.981a122.676,122.676,0,0,1,27.8,25.49l21.911,27.378L142.923,191.6a71.05,71.05,0,0,0-27.729-47.782l-5.3-3.973L93.68,172.269ZM113.689,157a60.041,60.041,0,0,1,17.873,33.38,133.948,133.948,0,0,0-23.653-21.819Zm0,0" transform="translate(-28.902 -43.146)" fill="#707070"/>
  <path id="Caminho_368" data-name="Caminho 368" d="M329.083,191.6l-4.532,36.246,21.911-27.384a122.792,122.792,0,0,1,27.8-25.49l4.06-2.712L362.106,139.84l-5.3,3.984A71.032,71.032,0,0,0,329.083,191.6ZM364.1,168.56a133.554,133.554,0,0,0-23.654,21.819A60.073,60.073,0,0,1,358.317,157Zm0,0" transform="translate(-100.13 -43.143)" fill="#707070"/>
  <path id="Caminho_369" data-name="Caminho 369" d="M280,225.993h11.064V202.815a113.987,113.987,0,0,1,26.382-72.854l-8.5-7.082A125.109,125.109,0,0,0,280,202.816Zm0,0" transform="translate(-86.385 -37.911)" fill="#707070"/>
  <path id="Caminho_370" data-name="Caminho 370" d="M336,96h11.064v11.064H336Zm0,0" transform="translate(-103.662 -29.618)" fill="#707070"/>
  <path id="Caminho_371" data-name="Caminho 371" d="M360,64h11.064V75.064H360Zm0,0" transform="translate(-111.067 -19.745)" fill="#707070"/>
  <path id="Caminho_372" data-name="Caminho 372" d="M188.232,225.993H199.3V202.815a125.124,125.124,0,0,0-28.937-79.937l-8.5,7.082a114.012,114.012,0,0,1,26.376,72.854Zm0,0" transform="translate(-49.935 -37.91)" fill="#707070"/>
  <path id="Caminho_373" data-name="Caminho 373" d="M144,96h11.064v11.064H144Zm0,0" transform="translate(-44.427 -29.618)" fill="#707070"/>
  <path id="Caminho_374" data-name="Caminho 374" d="M120,64h11.064V75.064H120Zm0,0" transform="translate(-37.022 -19.745)" fill="#707070"/>
  <path id="Caminho_375" data-name="Caminho 375" d="M240,136h11.064v11.064H240Zm0,0" transform="translate(-74.045 -41.959)" fill="#707070"/>
  <path id="Caminho_376" data-name="Caminho 376" d="M240,168h11.064v71.914H240Zm0,0" transform="translate(-74.045 -51.831)" fill="#707070"/>
  <path id="Caminho_377" data-name="Caminho 377" d="M464,216h11.064v11.064H464Zm0,0" transform="translate(-143.153 -66.64)" fill="#707070"/>
  <path id="Caminho_378" data-name="Caminho 378" d="M464,248h11.064v11.064H464Zm0,0" transform="translate(-143.153 -76.513)" fill="#707070"/>
  <path id="Caminho_379" data-name="Caminho 379" d="M480,232h11.064v11.064H480Zm0,0" transform="translate(-148.089 -71.576)" fill="#707070"/>
  <path id="Caminho_380" data-name="Caminho 380" d="M448,232h11.064v11.064H448Zm0,0" transform="translate(-138.216 -71.576)" fill="#707070"/>
  <path id="Caminho_381" data-name="Caminho 381" d="M440,0h11.064V11.064H440Zm0,0" transform="translate(-135.748)" fill="#707070"/>
  <path id="Caminho_382" data-name="Caminho 382" d="M440,32h11.064V43.064H440Zm0,0" transform="translate(-135.748 -9.873)" fill="#707070"/>
  <path id="Caminho_383" data-name="Caminho 383" d="M456,16h11.064V27.064H456Zm0,0" transform="translate(-140.685 -4.936)" fill="#707070"/>
  <path id="Caminho_384" data-name="Caminho 384" d="M424,16h11.064V27.064H424Zm0,0" transform="translate(-130.812 -4.936)" fill="#707070"/>
  <path id="Caminho_385" data-name="Caminho 385" d="M16,248H27.064v11.064H16Zm0,0" transform="translate(-4.936 -76.513)" fill="#707070"/>
  <path id="Caminho_386" data-name="Caminho 386" d="M16,280H27.064v11.064H16Zm0,0" transform="translate(-4.936 -86.385)" fill="#707070"/>
  <path id="Caminho_387" data-name="Caminho 387" d="M32,264H43.064v11.064H32Zm0,0" transform="translate(-9.873 -81.449)" fill="#707070"/>
  <path id="Caminho_388" data-name="Caminho 388" d="M0,264H11.064v11.064H0Zm0,0" transform="translate(0 -81.449)" fill="#707070"/>
  <path id="Caminho_389" data-name="Caminho 389" d="M16,0H27.064V11.064H16Zm0,0" transform="translate(-4.936)" fill="#707070"/>
  <path id="Caminho_390" data-name="Caminho 390" d="M16,32H27.064V43.064H16Zm0,0" transform="translate(-4.936 -9.873)" fill="#707070"/>
  <path id="Caminho_391" data-name="Caminho 391" d="M32,16H43.064V27.064H32Zm0,0" transform="translate(-9.873 -4.936)" fill="#707070"/>
  <path id="Caminho_392" data-name="Caminho 392" d="M0,16H11.064V27.064H0Zm0,0" transform="translate(0 -4.936)" fill="#707070"/>
</svg>
