<svg xmlns="http://www.w3.org/2000/svg" width="84.208" height="32.047" viewBox="0 0 84.208 32.047">
  <g id="Agrupar_170" data-name="Agrupar 170" transform="translate(-700.068 -674)">
    <g id="man-jumping-an-obstacle" transform="translate(700.068 679)">
      <g id="Agrupar_153" data-name="Agrupar 153">
        <path id="Caminho_407" data-name="Caminho 407" d="M25.588,45.607V35.98H24.232V46.962H40.043V45.607Z" transform="translate(-13.829 -19.915)" fill="#fff"/>
        <path id="Caminho_408" data-name="Caminho 408" d="M13.594,15.182a16.407,16.407,0,0,0,2.679,2.852,1.373,1.373,0,0,0,2.114-.273,18.362,18.362,0,0,0,2.42-4.4c.586-1.638-2.016-2.337-2.6-.716a12.028,12.028,0,0,1-1.216,2.39,9.593,9.593,0,0,1-1.706-2.222,1.574,1.574,0,0,0-.157-.232,2.32,2.32,0,0,0-.172-.614c-.453-1.041-.847-1.915-1.227-2.762-.567-1.261-1.1-2.452-1.77-4.055-.012-.029-.028-.057-.041-.085a3.172,3.172,0,0,1,1.347-.912,10.361,10.361,0,0,1,3.82-.09,1.356,1.356,0,0,0,.189-2.7,12.81,12.81,0,0,0-4.8.219A6.244,6.244,0,0,0,9.552,3.7,2.371,2.371,0,0,0,7.48,6.65c-.765,1.612-3.613,1.788-5.235,1.8a1.356,1.356,0,0,0,0,2.71A11.368,11.368,0,0,0,8.64,9.43c.26.588.511,1.147.768,1.719.344.767.7,1.562,1.1,2.483-2.6,1.152-5.375,2.478-7.84,3.494-1.581.652-.889,3.259.715,2.6,3.148-1.3,6.8-3.1,9.951-4.4A1.451,1.451,0,0,0,13.594,15.182Z" transform="translate(-0.933 -0.687)" fill="#fff"/>
        <circle id="Elipse_279" data-name="Elipse 279" cx="2.41" cy="2.41" r="2.41" transform="translate(1.834)" fill="#fff"/>
      </g>
    </g>
    <text id="Pulo" transform="translate(741.276 698)" fill="#fff" font-size="22" font-family="SegoeUI, Segoe UI"><tspan x="0" y="0">Pulo</tspan></text>
  </g>
</svg>
