<svg xmlns="http://www.w3.org/2000/svg" width="17.736" height="16.992" viewBox="0 0 17.736 16.992">
  <path id="star" d="M17.35,8.747a1.272,1.272,0,0,0-.705-2.17L12.35,5.954a.561.561,0,0,1-.423-.307l-1.92-3.891a1.272,1.272,0,0,0-2.281,0L5.807,5.647a.562.562,0,0,1-.423.307l-4.294.624a1.272,1.272,0,0,0-.705,2.17l3.107,3.029a.562.562,0,0,1,.162.5L2.92,16.55A1.245,1.245,0,0,0,3.2,17.582a1.285,1.285,0,0,0,1.568.309l3.84-2.019a.575.575,0,0,1,.523,0l3.841,2.019a1.259,1.259,0,0,0,.592.148,1.275,1.275,0,0,0,.976-.457,1.245,1.245,0,0,0,.277-1.031l-.733-4.277a.562.562,0,0,1,.162-.5Z" transform="translate(0.001 -1.047)" fill="#fbd285"/>
</svg>
