<svg xmlns="http://www.w3.org/2000/svg" width="52" height="78" viewBox="0 0 52 78">
  <g id="Agrupar_135" data-name="Agrupar 135" transform="translate(-80 -646)">
    <g id="Agrupar_134" data-name="Agrupar 134">
      <g id="Agrupar_81" data-name="Agrupar 81" transform="translate(65 76)">
        <g id="hourglass" transform="translate(14 570)">
          <path id="Caminho_355" data-name="Caminho 355" d="M43.511,45.851H39.266V40.757a17.345,17.345,0,0,0-9.1-15.284,17.345,17.345,0,0,0,9.1-15.284V5.095h4.245a2.547,2.547,0,0,0,0-5.095H9.547a2.547,2.547,0,1,0,0,5.095h4.245v5.095a17.345,17.345,0,0,0,9.1,15.284,17.345,17.345,0,0,0-9.1,15.284v5.095H9.547a2.547,2.547,0,1,0,0,5.095H43.511a2.547,2.547,0,0,0,0-5.095ZM9.547,3.4a.849.849,0,0,1,0-1.7H43.511a.849.849,0,1,1,0,1.7H9.547Zm5.944,6.793V5.095H37.567v5.095a15.665,15.665,0,0,1-9.512,14.435H25A15.666,15.666,0,0,1,15.491,10.189Zm0,30.567A15.665,15.665,0,0,1,25,26.322h3.052a15.666,15.666,0,0,1,9.512,14.435v5.095a.849.849,0,1,0-1.7,0h-1.7a.849.849,0,1,0-1.7,0h-1.7a.849.849,0,1,0-1.7,0h-1.7a.849.849,0,1,0-1.7,0h-1.7a.849.849,0,1,0-1.7,0h-1.7a.849.849,0,1,0-1.7,0h-1.7a.849.849,0,1,0-1.7,0Zm28.02,8.491H9.547a.849.849,0,0,1,0-1.7H43.511a.849.849,0,1,1,0,1.7Z" transform="translate(0)" fill="#686868"/>
          <circle id="Elipse_246" data-name="Elipse 246" cx="0.849" cy="0.849" r="0.849" transform="translate(17.189 43.304)" fill="#686868"/>
          <circle id="Elipse_247" data-name="Elipse 247" cx="0.849" cy="0.849" r="0.849" transform="translate(20.586 43.304)" fill="#686868"/>
          <circle id="Elipse_248" data-name="Elipse 248" cx="0.849" cy="0.849" r="0.849" transform="translate(23.982 43.304)" fill="#686868"/>
          <circle id="Elipse_249" data-name="Elipse 249" cx="0.849" cy="0.849" r="0.849" transform="translate(27.378 43.304)" fill="#686868"/>
          <circle id="Elipse_250" data-name="Elipse 250" cx="0.849" cy="0.849" r="0.849" transform="translate(30.775 43.304)" fill="#686868"/>
          <circle id="Elipse_251" data-name="Elipse 251" cx="0.849" cy="0.849" r="0.849" transform="translate(34.171 43.304)" fill="#686868"/>
          <circle id="Elipse_252" data-name="Elipse 252" cx="0.849" cy="0.849" r="0.849" transform="translate(18.887 41.606)" fill="#686868"/>
          <circle id="Elipse_253" data-name="Elipse 253" cx="0.849" cy="0.849" r="0.849" transform="translate(22.284 41.606)" fill="#686868"/>
          <circle id="Elipse_254" data-name="Elipse 254" cx="0.849" cy="0.849" r="0.849" transform="translate(25.68 27.171)" fill="#686868"/>
          <circle id="Elipse_255" data-name="Elipse 255" cx="0.849" cy="0.849" r="0.849" transform="translate(20.586 17.831)" fill="#686868"/>
          <circle id="Elipse_256" data-name="Elipse 256" cx="0.849" cy="0.849" r="0.849" transform="translate(23.982 17.831)" fill="#686868"/>
          <circle id="Elipse_257" data-name="Elipse 257" cx="0.849" cy="0.849" r="0.849" transform="translate(27.378 17.831)" fill="#686868"/>
          <circle id="Elipse_258" data-name="Elipse 258" cx="0.849" cy="0.849" r="0.849" transform="translate(30.775 17.831)" fill="#686868"/>
          <circle id="Elipse_259" data-name="Elipse 259" cx="0.849" cy="0.849" r="0.849" transform="translate(29.076 16.133)" fill="#686868"/>
          <circle id="Elipse_260" data-name="Elipse 260" cx="0.849" cy="0.849" r="0.849" transform="translate(30.775 14.435)" fill="#686868"/>
          <circle id="Elipse_261" data-name="Elipse 261" cx="0.849" cy="0.849" r="0.849" transform="translate(22.284 16.133)" fill="#686868"/>
          <circle id="Elipse_262" data-name="Elipse 262" cx="0.849" cy="0.849" r="0.849" transform="translate(25.68 16.133)" fill="#686868"/>
          <circle id="Elipse_263" data-name="Elipse 263" cx="0.849" cy="0.849" r="0.849" transform="translate(20.586 14.435)" fill="#686868"/>
          <circle id="Elipse_264" data-name="Elipse 264" cx="0.849" cy="0.849" r="0.849" transform="translate(22.284 19.529)" fill="#686868"/>
          <circle id="Elipse_265" data-name="Elipse 265" cx="0.849" cy="0.849" r="0.849" transform="translate(23.982 21.227)" fill="#686868"/>
          <circle id="Elipse_266" data-name="Elipse 266" cx="0.849" cy="0.849" r="0.849" transform="translate(27.378 21.227)" fill="#686868"/>
          <circle id="Elipse_267" data-name="Elipse 267" cx="0.849" cy="0.849" r="0.849" transform="translate(25.68 19.529)" fill="#686868"/>
          <circle id="Elipse_268" data-name="Elipse 268" cx="0.849" cy="0.849" r="0.849" transform="translate(29.076 19.529)" fill="#686868"/>
          <circle id="Elipse_269" data-name="Elipse 269" cx="0.849" cy="0.849" r="0.849" transform="translate(25.68 29.718)" fill="#686868"/>
          <circle id="Elipse_270" data-name="Elipse 270" cx="0.849" cy="0.849" r="0.849" transform="translate(25.68 32.266)" fill="#686868"/>
          <circle id="Elipse_271" data-name="Elipse 271" cx="0.849" cy="0.849" r="0.849" transform="translate(25.68 34.813)" fill="#686868"/>
          <circle id="Elipse_272" data-name="Elipse 272" cx="0.849" cy="0.849" r="0.849" transform="translate(25.68 37.36)" fill="#686868"/>
          <circle id="Elipse_273" data-name="Elipse 273" cx="0.849" cy="0.849" r="0.849" transform="translate(25.68 39.907)" fill="#686868"/>
          <circle id="Elipse_274" data-name="Elipse 274" cx="0.849" cy="0.849" r="0.849" transform="translate(29.076 41.606)" fill="#686868"/>
          <circle id="Elipse_275" data-name="Elipse 275" cx="0.849" cy="0.849" r="0.849" transform="translate(32.473 41.606)" fill="#686868"/>
        </g>
        <text id="_03:00" data-name="03:00" transform="translate(15 644)" fill="#686868" font-size="20" font-family="Arial-BoldMT, Arial" font-weight="700"><tspan x="0" y="0">03:00</tspan></text>
      </g>
    </g>
  </g>
</svg>
