<svg xmlns="http://www.w3.org/2000/svg" xmlns:xlink="http://www.w3.org/1999/xlink" width="96" height="96" viewBox="0 0 96 96"><defs><linearGradient id="a" x1="0.323" y1="0.99" x2="0.71" y2="-0.081" gradientUnits="objectBoundingBox"><stop offset="0" stop-color="#a52802"/><stop offset="1" stop-color="#f7ad20"/></linearGradient><filter id="b" x="1" y="1" width="94.583" height="94.583" filterUnits="userSpaceOnUse"><feOffset dy="3" input="SourceAlpha"/><feGaussianBlur stdDeviation="3" result="c"/><feFlood flood-opacity="0.161"/><feComposite operator="in" in2="c"/><feComposite in="SourceGraphic"/></filter><clipPath id="e"><g transform="matrix(1, 0, 0, 1, 0, 0)" filter="url(#b)"><path d="M188.716,146.461a38.291,38.291,0,1,1-38.29-38.291A38.291,38.291,0,0,1,188.716,146.461Z" transform="translate(-112.13 -108.17)" fill="url(#a)"/></g></clipPath><linearGradient id="f" x1="0.408" y1="1.531" x2="0.61" y2="-0.327" xlink:href="#a"/><linearGradient id="g" x1="0.404" y1="1.638" x2="0.626" y2="-0.832" xlink:href="#a"/><linearGradient id="h" x1="0.412" y1="1.756" x2="0.577" y2="-0.638" xlink:href="#a"/><linearGradient id="i" x1="0.42" y1="1.55" x2="0.564" y2="-0.493" xlink:href="#a"/><linearGradient id="j" x1="0.4" y1="1.322" x2="0.619" y2="-0.534" xlink:href="#a"/><linearGradient id="k" x1="0.424" y1="1.27" x2="0.611" y2="-0.424" xlink:href="#a"/><linearGradient id="l" x1="0.413" y1="1.113" x2="0.651" y2="-0.496" xlink:href="#a"/><linearGradient id="m" x1="0.409" y1="1.403" x2="0.605" y2="-0.865" xlink:href="#a"/><linearGradient id="n" x1="0.871" y1="-0.813" x2="2.149" y2="-5.586" xlink:href="#a"/><filter id="o" x="0" y="0" width="96" height="96" filterUnits="userSpaceOnUse"><feOffset dy="3" input="SourceAlpha"/><feGaussianBlur stdDeviation="3" result="p"/><feFlood flood-color="#fff"/><feComposite operator="in" in2="p"/><feComposite in="SourceGraphic"/></filter><filter id="q" x="24.908" y="27.487" width="21.41" height="21.41" filterUnits="userSpaceOnUse"><feOffset dy="3" input="SourceAlpha"/><feGaussianBlur stdDeviation="3" result="r"/><feFlood flood-color="#fff"/><feComposite operator="in" in2="r"/><feComposite in="SourceGraphic"/></filter><filter id="s" x="38.549" y="62.359" width="21.41" height="21.41" filterUnits="userSpaceOnUse"><feOffset dy="3" input="SourceAlpha"/><feGaussianBlur stdDeviation="3" result="t"/><feFlood flood-color="#fff"/><feComposite operator="in" in2="t"/><feComposite in="SourceGraphic"/></filter><filter id="u" x="60.716" y="22.372" width="21.41" height="21.41" filterUnits="userSpaceOnUse"><feOffset dy="3" input="SourceAlpha"/><feGaussianBlur stdDeviation="3" result="v"/><feFlood flood-color="#fff"/><feComposite operator="in" in2="v"/><feComposite in="SourceGraphic"/></filter><filter id="w" x="64.126" y="53.064" width="21.41" height="21.41" filterUnits="userSpaceOnUse"><feOffset dy="3" input="SourceAlpha"/><feGaussianBlur stdDeviation="3" result="x"/><feFlood flood-color="#fff"/><feComposite operator="in" in2="x"/><feComposite in="SourceGraphic"/></filter><filter id="y" x="14.677" y="49.654" width="21.41" height="21.41" filterUnits="userSpaceOnUse"><feOffset dy="3" input="SourceAlpha"/><feGaussianBlur stdDeviation="3" result="z"/><feFlood flood-color="#fff"/><feComposite operator="in" in2="z"/><feComposite in="SourceGraphic"/></filter></defs><g transform="translate(-395 -108)"><path d="M188.716,146.461a38.291,38.291,0,1,1-38.29-38.291A38.291,38.291,0,0,1,188.716,146.461Z" transform="translate(292.476 6.469)" fill="url(#a)"/><g transform="translate(405 115)" clip-path="url(#e)"><path d="M140.023,106.46a89.453,89.453,0,0,0-20.049,10.018,43.683,43.683,0,0,0-10.37,9.113,6.75,6.75,0,0,0-1.782,4.092c7.694-4.613,16.893-6.1,25.865-6.2s17.9,1.089,26.871,1.409,18.167-.278,26.433-3.763a26.66,26.66,0,0,0,9.207-6.1c.567-.605,1.123-1.486.706-2.2-.446-.764-1.567-.644-2.424-.425-21.394,5.426-44.067,7.827-65.493,2.529a24.091,24.091,0,0,0,12.622-11.98" transform="translate(-115.361 -112.084)" opacity="0.3" fill="url(#f)"/><path d="M112.921,124.6c6.4-.687,12.7,1.483,18.87,3.319,14.993,4.461,30.709,7.1,46.293,5.753,7.177-.621,14.385-2.121,20.745-5.5s11.832-8.8,14.252-15.586c.35,6.572-3.2,12.968-8.322,17.1s-11.652,6.2-18.181,7.021-13.143.465-19.718.227c-10.616-.383-21.341-.476-31.676-2.934-6.732-1.6-13.488-4.221-20.353-3.347-6.972.888-13.07,5.348-17.536,10.774" transform="translate(-123.242 -104.867)" opacity="0.3" fill="url(#g)"/><path d="M102.675,133.029c2.717-3.344,7.068-5.057,11.365-5.365a36.495,36.495,0,0,1,12.724,1.848,121.143,121.143,0,0,0,12.456,3.424c9.268,1.653,18.762-.152,28.175-.164.948,0,2.188.266,2.277,1.21a1.7,1.7,0,0,1-.3.988c-1.443,2.418-4.374,3.468-7.122,4.076a45.358,45.358,0,0,1-22.277-.7c-3.985-1.149-7.824-2.85-11.91-3.55-7.845-1.341-15.994,1.184-22.651,5.543" transform="translate(-119.214 -93.619)" opacity="0.3" fill="url(#h)"/><path d="M114.446,186.333s34.3,1.158,51.515-25.276,3.5-55.457,3.5-55.457,51.533,24.281,27.1,68.581S114.446,186.333,114.446,186.333Z" transform="translate(-110.401 -110.094)" fill="#3c1f4e" opacity="0.1"/><path d="M105.23,140.844a25.591,25.591,0,0,1,21.243-5.554c4.687.927,9.067,3.174,13.806,3.768,2.506.315,5.052.156,7.567.4a3.707,3.707,0,0,1-2.609,1.259,155.419,155.419,0,0,1-19.6,2.3,38.888,38.888,0,0,1-11-.673,16.484,16.484,0,0,1-9.294-5.592" transform="translate(-117.301 -88.209)" opacity="0.3" fill="url(#i)"/><path d="M145.68,149.186c11.645-4.608,22.142-11.692,33.509-16.948a37.732,37.732,0,0,1,12.188-3.789c4.258-.4,8.791.537,12.038,3.321A6.392,6.392,0,0,1,205.628,135a55.252,55.252,0,0,0-11.492.187c-10.017,1.21-19.521,5.145-28.411,9.917-6.091,3.268-11.97,6.949-18.265,9.8s-13.122,4.879-20.028,4.578a27.046,27.046,0,0,1-10.057-2.378c-.9-.414-8.665-5.012-7.208-6.141.437-.339,4.5,1.418,5.232,1.6a37.348,37.348,0,0,0,5.718.9,47.06,47.06,0,0,0,11.706-.609A64.971,64.971,0,0,0,145.68,149.186Z" transform="translate(-113.742 -93.052)" opacity="0.3" fill="url(#j)"/><path d="M114.378,155.252a32.842,32.842,0,0,0,10.426,1.885c7.311-.035,14.144-3.441,20.528-7s12.834-7.432,20.059-8.548a32.664,32.664,0,0,1,14.756,1.326c4.281,1.357,8.658,3.817,10.244,8.021a5.646,5.646,0,0,1-.073,4.681,3.217,3.217,0,0,1-4.108,1.455,5.581,5.581,0,0,1-1.7-1.82c-2.408-3.394-5.708-6.337-9.723-7.434-5.377-1.467-11.131.588-15.84,3.569s-8.792,6.89-13.587,9.733-10.727,4.559-15.953,2.625a12.869,12.869,0,0,1-7.71-8.149" transform="translate(-110.452 -83.399)" opacity="0.3" fill="url(#k)"/><path d="M173,134.622c-7.852,5.542-18.958,3.335-27.57,7.6,4.725-.488,9.151,2.146,13.79,3.156a20.563,20.563,0,0,0,8.822-.016,11.156,11.156,0,0,0,6.094-3.228c2.079-2.382,2.466-5.806,2.247-8.959" transform="translate(-87.207 -89.446)" opacity="0.3" fill="url(#l)"/><path d="M184.069,115.7c-3.49,2.878-8.014,4.172-12.467,4.975-11.8,2.126-23.942,1.3-35.829-.283-5.124-.682-10.8-1.381-15.06,1.542-.486.334-.993.817-.934,1.406.1,1.042,1.6,1.074,2.63.887,7.483-1.364,14.878,2.133,22.334,3.637,7.533,1.521,15.345,1,22.922-.285a57.981,57.981,0,0,0,17.025-5.187,28.961,28.961,0,0,0,12.732-12.126" transform="translate(-106.412 -106.598)" opacity="0.3" fill="url(#m)"/><path d="M124.524,120.257a3.877,3.877,0,0,0-2.81,2.177,26.316,26.316,0,0,0,4.72.523c2.835.315,5.585,1.548,8.394,2.228s5.877.736,8.186-1.109a7.736,7.736,0,0,0-2.275-1.259c-2.588-1.065-5.393-2.683-8.105-3A30.2,30.2,0,0,0,124.524,120.257Z" transform="translate(-104.96 -99.543)" opacity="0.22" fill="url(#n)"/></g><g transform="matrix(1, 0, 0, 1, 395, 108)" filter="url(#o)"><circle cx="39" cy="39" r="39" transform="translate(9 6)" fill="#fff" opacity="0.49"/></g><g transform="translate(280.677 -58.628)"><g transform="matrix(1, 0, 0, 1, 114.32, 166.63)" filter="url(#q)"><circle cx="1.705" cy="1.705" r="1.705" transform="translate(33.91 33.49)" fill="#fff"/></g><g transform="matrix(1, 0, 0, 1, 114.32, 166.63)" filter="url(#s)"><circle cx="1.705" cy="1.705" r="1.705" transform="translate(47.55 68.36)" fill="#fff"/></g><g transform="matrix(1, 0, 0, 1, 114.32, 166.63)" filter="url(#u)"><circle cx="1.705" cy="1.705" r="1.705" transform="translate(69.72 28.37)" fill="#fff"/></g><g transform="matrix(1, 0, 0, 1, 114.32, 166.63)" filter="url(#w)"><circle cx="1.705" cy="1.705" r="1.705" transform="translate(73.13 59.06)" fill="#fff"/></g><g transform="matrix(1, 0, 0, 1, 114.32, 166.63)" filter="url(#y)"><circle cx="1.705" cy="1.705" r="1.705" transform="translate(23.68 55.65)" fill="#fff"/></g></g></g></svg>