<svg xmlns="http://www.w3.org/2000/svg" xmlns:xlink="http://www.w3.org/1999/xlink" width="112.904" height="112.903" viewBox="0 0 112.904 112.903"><defs><linearGradient id="a" x1="0.362" y1="0.95" x2="0.64" y2="0.047" gradientUnits="objectBoundingBox"><stop offset="0" stop-color="#603836"/><stop offset="1" stop-color="#c46730"/></linearGradient><clipPath id="c"><path d="M353.661,295.163a56.452,56.452,0,1,1-56.452-56.452A56.451,56.451,0,0,1,353.661,295.163Z" transform="translate(-240.757 -238.711)" fill="url(#a)"/></clipPath></defs><g transform="translate(-262.964 -532.579)"><path d="M353.661,295.163a56.452,56.452,0,1,1-56.452-56.452A56.451,56.451,0,0,1,353.661,295.163Z" transform="translate(22.207 293.868)" fill="url(#a)"/><g transform="translate(262.964 532.579)" clip-path="url(#c)"><path d="M235.333,251.76a44.336,44.336,0,0,1,10.718-1.413c11.68-.1,22.838,4.375,34.192,7.11a117.2,117.2,0,0,0,68.105-4.165,19.379,19.379,0,0,0,5.729-2.982,7.344,7.344,0,0,0,2.864-5.58,89.438,89.438,0,0,1-18.388,7.906,27.173,27.173,0,0,1-6.021,1.261,25.466,25.466,0,0,1-7.2-.759c-8.355-1.868-16.382-5.463-24.93-5.982-8.826-.537-17.58,2.259-26.416,1.915-5.806-.226-11.466-1.8-17.221-2.6s-11.91-.74-17.006,2.051" transform="translate(-244.818 -234.205)" fill="#ac1f21" opacity="0.25"/><path d="M295.76,252.744c-1.579,1.8-11.279,2.933-17.823,2.032-1.836-.255-15.34-3.611-15.565-4.288-.434-1.3,14.878-2.28,16.6-2.37C283.692,247.878,291.3,251.375,295.76,252.744Z" transform="translate(-224.581 -231.676)" fill="#3c1f4e" opacity="0.2"/><path d="M328.364,266.329c-3.646,1.037-7.15,2.571-10.858,3.372-11.017,2.383-22.219-1.908-33.309-3.912-6.846-1.236-13.843-1.605-20.612-3.205s-13.5-4.629-17.826-10.08a20.432,20.432,0,0,0-9.732,7.6c4.942-1.593,10.84-1.8,14.855,1.493,2.656,2.181,4.034,5.5,5.752,8.476,2.919,5.063,7.493,9.634,13.264,10.541,2.235.351,4.52.135,6.771.351,6.08.588,11.4,4.249,17.288,5.886a23.722,23.722,0,0,0,14.581-.462c5.454-2.044,9.863-6.248,15.238-8.49,6.7-2.794,14.229-2.307,21.485-2.5s15.095-1.413,20.161-6.61c4.3-4.412,8.161-16.927-1.583-17.011-3.609-.03-6.346,1.913-8.74,4.375a24.693,24.693,0,0,1-11.589,6.809C338.527,264.372,333.344,264.909,328.364,266.329Z" transform="translate(-244.298 -228.929)" fill="#ac1f21" opacity="0.25"/><path d="M329.976,277.207c-5.64.766-11.41,1.107-16.751,3.071a62.479,62.479,0,0,1-6.344,2.359,30.128,30.128,0,0,1-6.71.644c-5.395.115-10.94.206-16-1.672-2.485-.92-4.783-2.293-7.259-3.24-3.048-1.166-6.3-1.665-9.45-2.537-5.281-1.46-10.279-3.98-15.7-4.8s-11.706.542-14.631,5.173a13.673,13.673,0,0,1,12.678-2.5c1.967.624,3.763,1.691,5.692,2.424,3.223,1.222,6.74,1.474,10,2.586,2.216.754,4.279,1.89,6.421,2.833,5.187,2.282,10.8,3.406,16.354,4.517,5.16,1.03,10.461,2.065,15.653,1.2a52.471,52.471,0,0,0,9.716-3.1,90.965,90.965,0,0,1,22.392-5.6c6.213-.654,12.564-.486,18.59-2.135,2.443-.668,10.527-3.49,10.884-6.638.427-3.782-6.4-.8-7.687-.254A108.827,108.827,0,0,1,329.976,277.207Z" transform="translate(-243.47 -216.858)" fill="#611f4e" opacity="0.38"/><path d="M374.417,272.327c-6.393.909-11.979,4.617-17.529,7.92-8.2,4.881-17.228,9.161-26.769,9.05-3.924-.047-7.8-.839-11.711-1.172-12.465-1.056-24.779,2.565-37.073,4.884a49.972,49.972,0,0,1-13.881,1.116c-7.624-.714-14.624-4.4-21.247-8.247-3.363-1.955-7.743-3.947-10.852-1.609,3.1-.539,6.231.892,8.724,2.81s4.568,4.333,7.063,6.25c5.979,4.59,13.932,5.933,21.448,5.376s14.782-2.843,22.042-4.863,14.735-3.8,22.256-3.326c5.15.329,10.174,1.71,15.3,2.34s10.588.442,15.06-2.132c4.176-2.4,7.093-6.661,11.4-8.817,2.782-1.394,6.566-2.469,6.948-5.557" transform="translate(-244.802 -213.542)" fill="#3c1f4e" opacity="0.2"/><path d="M356.152,279.213c-8.086,7.025-16.964,14.394-27.644,15.217-6.311.486-12.524-1.4-18.73-2.646s-12.975-1.763-18.566,1.2c-2.892,1.537-5.264,3.908-8.1,5.549a32.837,32.837,0,0,1-9.109,3.2,284.709,284.709,0,0,1-28.663,4.615c10.059.29,20.236.568,30.069-1.572a25.385,25.385,0,0,1,7.058-.99c2.752.189,5.3,1.441,7.913,2.329a30.984,30.984,0,0,0,17.622.649,14.063,14.063,0,0,0,6.69-3.455,15.632,15.632,0,0,1,2.88-2.887,9.205,9.205,0,0,1,3.483-.922c6.262-.871,12.29-2.929,18.272-4.977,5.942-2.034,12.349-4.431,15.64-9.779" transform="translate(-237.326 -208.387)" fill="#ac1f21" opacity="0.25"/><path d="M250.914,351.847s45.027-3.031,64.043-39.9-2.775-73.012-2.775-73.012,70.632,24.935,44.538,86.129S250.914,351.847,250.914,351.847Z" transform="translate(-233.152 -238.54)" fill="#3c1f4e" opacity="0.1"/><path d="M325.094,297.1a114.78,114.78,0,0,1-16.751,4.945,118.308,118.308,0,0,1-17.123,1.548,34.951,34.951,0,0,1-9.662-.495c-2.256-.546-4.375-1.532-6.58-2.256a29.471,29.471,0,0,0-23.844,2.59c8.777-1.427,18.05-2.508,26.33.726,2.676,1.046,5.2,2.529,8,3.165,1.728.39,3.527.453,5.223.967a44.146,44.146,0,0,1,4.952,2.251c8.077,3.6,17.424,1.074,25.886-1.49a25.85,25.85,0,0,0,15.362-9.588c1.56-1.712,8.315-8.675,2.025-7.306C334.276,293.17,329.583,295.517,325.094,297.1Z" transform="translate(-232.988 -198.828)" fill="#3c1f4e" opacity="0.2"/><path d="M275.215,286.712c.364,1.507-5.764,1.2-8.71.99A78.34,78.34,0,0,1,251.9,285.22c-3.158-.85-9.831-1.808-11.356-5.1-1.271-2.737-2.751-6.745.07-7.248,6.318-1.126,13.406,5.314,18.006,6.986Q267.059,282.923,275.215,286.712Z" transform="translate(-242.075 -213.23)" fill="#f9e1ac" opacity="0.77"/><path d="M253.469,244.39c14.588-.348,28.611,6.99,43.183,6.231A51.424,51.424,0,0,0,311.2,247.48a22.9,22.9,0,0,0,7.948-4.307,9.725,9.725,0,0,0,3.4-8.074c-2.852,1.376-4.812,4.054-7.219,6.112a28.472,28.472,0,0,1-8.918,4.879A52.055,52.055,0,0,1,262.5,241.8c-1.091-.658-2.441-1.374-3.562-.766" transform="translate(-231.239 -241.415)" fill="#611f4e" opacity="0.38"/><path d="M277.584,244.886c4.492.371,9.275,0,13.07-1.679s6.339-4.861,5.44-7.887a1.056,1.056,0,0,0-.392-.616c-.656-.456-1.782-.058-2.441.4-2.034,1.394-3.286,3.214-4.828,4.874a11.626,11.626,0,0,1-6.362,3.791,4.475,4.475,0,0,1-1.25.087,4.762,4.762,0,0,1-1.717-.607q-1.833-.939-3.669-1.88a17.561,17.561,0,0,0-4.83-1.88c-3.125-.581-10.618.2-5.22,2.5A39.962,39.962,0,0,0,277.584,244.886Z" transform="translate(-223.741 -241.861)" fill="#3c1f4e" opacity="0.2"/><path d="M248.777,250.332c3.406,4.087,9.368,4.527,14.579,5.6,5.384,1.109,10.529,3.195,15.915,4.291a88.881,88.881,0,0,0,12.265,1.336c5.956.373,11.954.741,17.877.016,4.368-.537,8.644-1.663,12.989-2.361,3.548-.568,7.171-.855,10.585-1.978,4.636-1.528,8.626-4.5,12.807-7.025a7.011,7.011,0,0,1,3.945-1.35,4.555,4.555,0,0,1-2.2,2.716c-5.874,4.068-12.946,5.989-19.934,7.484-22.193,4.755-45.48,5.89-67.49.355A31.126,31.126,0,0,1,249.7,255.2c-2.756-1.929-5.638-4.807-8.885-3.936" transform="translate(-240.716 -231.118)" fill="#3c1f4e" opacity="0.2"/><path d="M275.385,260.269c-.727.276-1.277,1.191-.867,1.852a1.713,1.713,0,0,0,.628.542,12.819,12.819,0,0,0,6.021,1.326,28.844,28.844,0,0,0,9.387-.869c3.025-.9,6.467-2.674,6.636-4.125.121-1.018-1.708-1.966-3.588-2.135-1.838-.168-3.674.427-8.116.939A61.351,61.351,0,0,0,275.385,260.269Z" transform="translate(-215.585 -225.145)" fill="#f9e1ac"/><path d="M283.4,291.46a15.878,15.878,0,0,1-8.682,3.288,4,4,0,0,0-1.525.337,1.228,1.228,0,0,0-.7,1.278c.2.843,1.355.916,2.217.838a30.284,30.284,0,0,1,8.049.348,6.575,6.575,0,0,0,1.5.161,4.493,4.493,0,0,0,1.427-.357,10.141,10.141,0,0,0,6.063-7.17,1.287,1.287,0,0,0,0-.736c-.177-.455-.748-.584-1.233-.616C287.424,288.634,285.693,289.548,283.4,291.46Z" transform="translate(-217.016 -201.205)" fill="#f9e1ac" opacity="0.77"/></g></g></svg>