<svg xmlns="http://www.w3.org/2000/svg" xmlns:xlink="http://www.w3.org/1999/xlink" width="126.668" height="80.598" viewBox="0 0 126.668 80.598"><defs><linearGradient id="a" x1="0.353" y1="0.911" x2="0.652" y2="0.074" gradientUnits="objectBoundingBox"><stop offset="0" stop-color="#25bfa9"/><stop offset="1" stop-color="#8acefb"/></linearGradient><clipPath id="c"><path d="M444.257,401.232a40.331,40.331,0,1,1-40.33-40.3A40.315,40.315,0,0,1,444.257,401.232Z" transform="translate(-363.594 -360.935)" fill="url(#a)"/></clipPath></defs><g transform="translate(-630.192 -420.662)"><g transform="translate(653.088 420.662)"><path d="M444.257,401.232a40.331,40.331,0,1,1-40.33-40.3A40.315,40.315,0,0,1,444.257,401.232Z" transform="translate(-363.594 -360.935)" fill="url(#a)"/><g clip-path="url(#c)"><path d="M372.206,355.05c-1.99,5.7.294,12.23,4.4,16.658s9.749,7.095,15.413,9.191c9.564,3.543,19.766,5.785,29.941,5.078A34.224,34.224,0,0,0,436.15,382.2a20.038,20.038,0,0,0,9.534-10.863c.334-1,.46-2.34-.435-2.9-1.054-.666-2.324.393-3.163,1.317a35.023,35.023,0,0,1-51.7.15c-4.643-5.05-8.032-11.648-14.2-14.656" transform="translate(-357.692 -365.341)" fill="#f9fbfc" opacity="0.58"/><path d="M363.458,362.861a46.5,46.5,0,0,0-2.579,14.932,29.939,29.939,0,0,0,2.355,12.634c4.361,9.567,14.9,14.735,25.1,17.291,13.85,3.469,28.8,3.448,42.146-1.616s24.9-15.473,29.9-28.838c.376-1,.616-2.354-.269-2.961-2.237.86-3.77,2.878-5.283,4.732a55.133,55.133,0,0,1-18.521,15.118,37.773,37.773,0,0,1-23.448,3.387c-8.691-1.721-16.3-6.934-22.9-12.836-4.606-4.115-8.925-8.67-14.3-11.708s-12.22-4.333-17.716-1.516" transform="translate(-367.833 -359.493)" fill="#f9fbfc" opacity="0.58"/><path d="M361.881,407.494a18.531,18.531,0,0,0,9.971,7.7,38.28,38.28,0,0,0,12.683,1.771,84.173,84.173,0,0,0,62.13-27.867c3.011-3.387,5.823-7.091,9.693-9.448a2.6,2.6,0,0,1,2.429-.46c1.152.586.918,2.294.4,3.476-2.015,4.573-5.655,8.217-9.389,11.541a143.5,143.5,0,0,1-43.067,26.435c-9.217,3.608-19.374,6.271-28.95,3.762-5.984-1.567-11.284-5.045-17.1-7.157" transform="translate(-365.776 -347.383)" fill="#f9fbfc" opacity="0.58"/><path d="M360.843,462.567s45.062-3.031,64.094-39.9-2.777-73.012-2.777-73.012,70.688,24.935,44.573,86.129S360.843,462.567,360.843,462.567Z" transform="translate(-365.654 -369.377)" fill="#3c1f4e" opacity="0.1"/><path d="M359.572,381.3c2.8,8.034,10.826,13.18,18.993,15.578s16.8,2.656,25.132,4.389c1.235.255,2.634.678,3.139,1.834a3.112,3.112,0,0,1,.068,1.952c-.658,2.791-3.179,4.851-5.914,5.729a23.112,23.112,0,0,1-8.541.593,77.552,77.552,0,0,1-19.082-3.163,36.188,36.188,0,0,1-16.244-10.157" transform="translate(-368.438 -345.687)" fill="#f9fbfc" opacity="0.58"/><path d="M393.178,374.235c-1.675-.694-3.506-1.361-5.264-.915a5.217,5.217,0,0,0-3.66,4.765,7.456,7.456,0,0,0,2.522,5.7,13.418,13.418,0,0,0,5.664,2.92,22.65,22.65,0,0,0,9.989.444c3.569-.645,10.174-5.587,5.1-8.859-1.621-1.046-4.123-1.04-5.961-1.388A42.528,42.528,0,0,1,393.178,374.235Z" transform="translate(-348.132 -351.77)" fill="#f9fbfc" opacity="0.58"/></g></g><path d="M452.716,378.072c.1.362.18.728.268,1.095,14.556,2.338,23.125,5.853,23.125,9.23,0,5.772-25.024,11.958-62.275,11.958s-62.271-6.185-62.271-11.958c0-3.359,8.481-6.855,22.9-9.193.086-.365.17-.733.264-1.095C360.5,380.337,350.5,383.857,350.5,388.4c0,8.149,32.2,13.017,63.333,13.017s63.335-4.868,63.335-13.017C477.169,383.832,467.07,380.3,452.716,378.072Z" transform="translate(279.691 72.558)" fill="#82ffdb"/></g></svg>