<svg xmlns="http://www.w3.org/2000/svg" xmlns:xlink="http://www.w3.org/1999/xlink" width="62.864" height="62.866" viewBox="0 0 62.864 62.866"><defs><linearGradient id="a" x1="0.354" y1="0.97" x2="0.656" y2="-0.001" gradientUnits="objectBoundingBox"><stop offset="0" stop-color="#a30012"/><stop offset="1" stop-color="#f41c14"/></linearGradient><clipPath id="c"><path d="M270.257,234.926a31.432,31.432,0,1,1-31.431-31.433A31.432,31.432,0,0,1,270.257,234.926Z" transform="translate(-207.393 -203.493)" fill="url(#a)"/></clipPath></defs><g transform="translate(-264.713 -382.19)"><path d="M270.257,234.926a31.432,31.432,0,1,1-31.431-31.433A31.432,31.432,0,0,1,270.257,234.926Z" transform="translate(57.32 178.697)" fill="url(#a)"/><g transform="translate(264.713 382.19)" clip-path="url(#c)"><path d="M242.335,211.407a13.825,13.825,0,0,1-4.447-.128q-3.326-.456-6.65-.913c-2.254-.31-4.676-.591-6.694.46-1.887.983-3.085,2.978-4.97,3.961-.827.432-1.749.649-2.588,1.053-2.209,1.067-3.588,3.291-4.8,5.424a28.635,28.635,0,0,0-2.78,5.97,10.612,10.612,0,0,0-.045,6.493c.593,1.672,1.729,3.127,2.189,4.839.441,1.649.346,3.672,1.71,4.7a6.946,6.946,0,0,0,2.655.859,8.1,8.1,0,0,1,4.192,2.544c1.642,1.889,2.394,4.522,4.37,6.056a11.409,11.409,0,0,0,2.922,1.472l6.045,2.345a3.353,3.353,0,0,0,1.458.327c1.173-.1,1.875-1.317,2.338-2.4a65.364,65.364,0,0,0,4.1-13.29,11.115,11.115,0,0,1,1.2-3.845,8.683,8.683,0,0,1,4.092-3.062c2.887-1.256,6.313-2.3,7.623-5.16.916-2,.507-4.393,1.308-6.442a15.356,15.356,0,0,0,1.24-2.969c.271-1.684-.8-3.31-2.1-4.426s-2.838-1.92-4.04-3.132c-1-1.009-2.56-3.65-4.326-3.242-.675.157-1,.911-1.5,1.341A5.358,5.358,0,0,1,242.335,211.407Z" transform="translate(-206.289 -199.477)" fill="#3c1f4e" opacity="0.2"/><path d="M210.356,223.89a9.3,9.3,0,0,0,.425,3.807q.784,2.956,1.838,5.834a8.72,8.72,0,0,0,2,3.52,3.265,3.265,0,0,0,3.753.661c1.8-1.079,1.472-3.781,2.48-5.622,1.383-2.523,4.968-2.95,6.769-5.2a6.537,6.537,0,0,0,1.056-5.246,19.379,19.379,0,0,0-2-5.124,5.978,5.978,0,0,0-1.542-2.168c-2.174-1.646-7.22-.553-9.373.927A15.691,15.691,0,0,0,210.356,223.89Z" transform="translate(-205.224 -195.975)" fill="#3c1f4e" opacity="0.2"/><path d="M226.026,241.987a9.3,9.3,0,0,0,.427,3.807q.782,2.956,1.836,5.834a8.76,8.76,0,0,0,2,3.52,3.266,3.266,0,0,0,3.753.661c1.8-1.079,1.474-3.781,2.481-5.62,1.383-2.525,4.968-2.952,6.768-5.2a6.529,6.529,0,0,0,1.056-5.244,19.3,19.3,0,0,0-2-5.124,5.915,5.915,0,0,0-1.542-2.167c-2.172-1.647-7.219-.554-9.371.925A15.694,15.694,0,0,0,226.026,241.987Z" transform="translate(-193.491 -182.426)" fill="#3c1f4e" opacity="0.2"/><path d="M224.135,218.863a2.255,2.255,0,0,0-.334,1.623,2.727,2.727,0,0,0,.6.958,18.032,18.032,0,0,1,3,5.213,2.878,2.878,0,0,0,.626,1.158,2.679,2.679,0,0,0,1.46.544,17.246,17.246,0,0,0,4.115.322,5.806,5.806,0,0,0,3.727-1.586,8.673,8.673,0,0,0,1.63-2.952,7.277,7.277,0,0,0,.729-4.3,5.238,5.238,0,0,0-1.13-2.048C234.608,213.047,227.114,213.246,224.135,218.863Z" transform="translate(-195.146 -195.306)" fill="#3c1f4e" opacity="0.2"/><path d="M218.7,225.97a1.942,1.942,0,0,0-.5,1.273,2.067,2.067,0,0,0,.339.82,20.2,20.2,0,0,0,4.774,6.047,3.863,3.863,0,0,0,1.626.8c1.32.227,2.56-.672,3.5-1.621a6.385,6.385,0,0,0,2.207-4.309,5.153,5.153,0,0,0-1.931-3.709,15.217,15.217,0,0,0-3.716-2.154C222.02,221.742,220.43,223.583,218.7,225.97Z" transform="translate(-199.3 -189.154)" fill="#3c1f4e" opacity="0.2"/><path d="M207.081,234.7a2.658,2.658,0,0,0-.673,1.735,2.789,2.789,0,0,0,.462,1.114c1.81,3.018,3.686,6.117,6.5,8.233a5.265,5.265,0,0,0,2.214,1.086c1.8.308,3.485-.915,4.77-2.207,1.591-1.6,3.024-3.609,3-5.865a7.018,7.018,0,0,0-2.628-5.05,20.7,20.7,0,0,0-5.059-2.933C211.6,228.941,209.433,231.447,207.081,234.7Z" transform="translate(-208.136 -183.52)" fill="#3c1f4e" opacity="0.2"/><path d="M216.857,229.657c.32.317.7.57,1,.911.374.435.589.995.992,1.4a1.556,1.556,0,0,0,.691.425,1.528,1.528,0,0,0,1.75-1.273,2.489,2.489,0,0,0-.876-2.165c-.591-.544-2.2-1.63-3.078-1.476C216.158,227.69,216.118,228.924,216.857,229.657Z" transform="translate(-200.677 -185.542)" fill="#3c1f4e" opacity="0.2"/><path d="M229.161,228.092a2.054,2.054,0,0,0-.213.887c.037,1.058,1.266,1.562,2.095,2.221.984.785,1.528,2.021,2.506,2.815a4.534,4.534,0,0,0,4.783.374,6.561,6.561,0,0,0,3.127-3.824,5.892,5.892,0,0,0-.138-4.477,3.683,3.683,0,0,0-3.758-2.063c-1.873.344-3.415,0-5.239.8A6.11,6.11,0,0,0,229.161,228.092Z" transform="translate(-191.256 -188.157)" fill="#3c1f4e" opacity="0.2"/><path d="M205.639,281.193s34.243-2.3,48.7-30.338-2.111-55.527-2.111-55.527,53.715,18.963,33.871,65.5S205.639,281.193,205.639,281.193Z" transform="translate(-208.706 -209.606)" fill="#3c1f4e" opacity="0.1"/><path d="M233.2,209.085a2.08,2.08,0,0,0-.213.887c.038,1.058,1.266,1.563,2.095,2.223.985.783,1.528,2.02,2.506,2.814a4.534,4.534,0,0,0,4.783.374,6.545,6.545,0,0,0,3.125-3.824,5.868,5.868,0,0,0-.136-4.477,3.683,3.683,0,0,0-3.758-2.063c-1.871.345-3.415,0-5.239.8A6.11,6.11,0,0,0,233.2,209.085Z" transform="translate(-188.228 -202.387)" fill="#3c1f4e" opacity="0.2"/><path d="M206.791,209.235a1.616,1.616,0,0,0-.289.867c.052,1.033,1.721,1.527,2.843,2.168,1.339.768,2.074,1.976,3.4,2.751a8.2,8.2,0,0,0,6.489.367,7.4,7.4,0,0,0,4.242-3.737,4.286,4.286,0,0,0-.185-4.375,5.61,5.61,0,0,0-5.1-2.016c-2.541.337-4.634,0-7.109.778A7.477,7.477,0,0,0,206.791,209.235Z" transform="translate(-208.061 -202.205)" fill="#3c1f4e" opacity="0.2"/><path d="M236.791,224.585a5.726,5.726,0,0,0,.574,2.345c.42.79,1.107,1.415,1.516,2.212.327.638.5,1.418,1.095,1.822a2.72,2.72,0,0,0,1.229.355,3.248,3.248,0,0,0,2.784-.516,3.207,3.207,0,0,0,.677-1.736c.593-3.408,1.1-7.091-.465-10.176-1.025-2.018-3.805-3.594-5.68-1.57C237.048,218.91,236.665,222.586,236.791,224.585Z" transform="translate(-185.4 -193.844)" fill="#3c1f4e" opacity="0.2"/><path d="M227.691,211.736a9.988,9.988,0,0,0,3.76-.88c.409-.156.876-.374.962-.8.091-.444-.283-.836-.624-1.135l-1.427-1.256a5.911,5.911,0,0,0-1.6-1.121,3.729,3.729,0,0,0-2.87.133c-.9.4-3.281,1.716-2.985,2.88C223.232,210.833,226.593,211.7,227.691,211.736Z" transform="translate(-195.798 -201.381)" fill="#3c1f4e" opacity="0.2"/><path d="M238.954,228.774a2.984,2.984,0,0,0,1.534-.544.675.675,0,0,0,.392-.495.981.981,0,0,0-.254-.7l-.582-.776a2.71,2.71,0,0,0-.654-.692,1.054,1.054,0,0,0-1.17.08c-.369.245-1.34,1.061-1.217,1.782C237.135,228.218,238.506,228.754,238.954,228.774Z" transform="translate(-185.232 -187.076)" fill="#3c1f4e" opacity="0.2"/></g></g></svg>