<svg xmlns="http://www.w3.org/2000/svg" xmlns:xlink="http://www.w3.org/1999/xlink" width="92.568" height="78.127" viewBox="0 0 92.568 78.127"><defs><linearGradient id="a" x1="0.403" y1="0.957" x2="0.616" y2="-0.046" gradientUnits="objectBoundingBox"><stop offset="0" stop-color="#2a5fc7"/><stop offset="1" stop-color="#6e8dff"/></linearGradient><clipPath id="c"><path d="M232.963,193.511a35.786,35.786,0,1,1-35.786-35.787A35.785,35.785,0,0,1,232.963,193.511Z" transform="translate(-161.39 -157.724)" fill="url(#a)"/></clipPath><clipPath id="d"><path d="M220.24,165.387a7.22,7.22,0,1,1-7.22-7.22A7.22,7.22,0,0,1,220.24,165.387Z" transform="translate(-205.799 -158.167)" fill="#ada7ca"/></clipPath></defs><g transform="translate(-341.656 -247.54)"><g transform="translate(341.656 247.54)"><path d="M237.643,194.914A39.063,39.063,0,1,1,198.58,155.85,39.064,39.064,0,0,1,237.643,194.914Z" transform="translate(-159.516 -155.85)" fill="#f9fbfc" opacity="0.15"/><g transform="translate(3.277 3.277)"><path d="M232.963,193.511a35.786,35.786,0,1,1-35.786-35.787A35.785,35.785,0,0,1,232.963,193.511Z" transform="translate(-161.39 -157.724)" fill="url(#a)"/><g clip-path="url(#c)"><path d="M202.26,162.884c-.717-.236-1.4-.574-2.135-.741a9.494,9.494,0,0,0-1.967-.166l-6.437-.1c-.859-.012-2.088.484-1.729,1.264a1.289,1.289,0,0,0,.644.533q1.629.832,3.26,1.661c-1.761,1.3-3.705,2.971-3.611,5.159-.315.7-1.5.227-1.642-.521a4.924,4.924,0,0,1,.479-2.209c.21-.733.065-1.735-.67-1.939-.862-.238-1.476.811-1.752,1.661q-.47,1.453-.941,2.908a1.484,1.484,0,0,1-2.3,1.112,5.627,5.627,0,0,0-3.777-.227c-1.184.509-1.81,2.319-.787,3.1l-1.89,2.635a5.127,5.127,0,0,1,1.221,3.938l-6.033.542c-.191.446.01,2.836-.336,3.239a4.937,4.937,0,0,0,1.123,2.219c.261.086,2.277.432,2.709.518a24.384,24.384,0,0,1,2.852-1.67,6,6,0,0,1,1.326-3.571,18.376,18.376,0,0,1,4.344-1.044,4.045,4.045,0,0,1,1.528.026,2.845,2.845,0,0,1,1.855,2.571,8.345,8.345,0,0,1-.624,3.295,11.615,11.615,0,0,0,3.711-2.632,2.058,2.058,0,1,1,1.794-3.688c.458.275.8.719,1.257.99a6.944,6.944,0,0,0,1.5.5,5.06,5.06,0,0,1,3.207,6.1c-2.291-.423-4.34,1.953-6.659,1.728a10.81,10.81,0,0,1-3.279-1.4,7.354,7.354,0,0,0-6.063,0c-2.5-1.375-11.673-.138-12.188.584a38.949,38.949,0,0,0-3.622,6.348,2.689,2.689,0,0,0-.292,1.11,2.742,2.742,0,0,0,.5,1.273l1.555,2.572c.638,1.058,1.532,2.256,2.765,2.168.579-.042,1.133-.381,1.707-.289a2.035,2.035,0,0,1,.8.372c3.158,2.154,4.221,6.217,5.844,9.681a26.581,26.581,0,0,0,5.785,8.011,1.089,1.089,0,0,0,.738.39,3.973,3.973,0,0,0,1.841-.825c1.4-2.46,1.747-4.784,3.148-7.241a8.827,8.827,0,0,0,1.238-2.971c.252-1.675-.448-3.534.39-5.008-1.06-.212-1.4-1.653-1-2.656a19.56,19.56,0,0,1,1.806-2.681,5.272,5.272,0,0,0,.2-5c-.547-1.1-1.513-2.277-.993-3.389a17.045,17.045,0,0,1,2.446,6.6,5.386,5.386,0,0,0,.553,2.07c.421.687,1.27.908,1.95,1.343.766.486,6.227-1.987,6.434-2.69a3.423,3.423,0,0,0,.042-2.546c-.252-.484-.675-.859-.96-1.326-1.114-1.813,0-4.683-1.682-5.988,4.926-1.17,6.759-1.333,11.152,1.186a52.112,52.112,0,0,0,6.08,11.849,5.831,5.831,0,0,0,2.268,1.548c.738.042,1.231-2.074,1.443-2.784.385-1.3,1.159-3.337,1.546-4.638a4.791,4.791,0,0,1,4.069-3.107c1.464-.2,3.156.918,4.3-.01a2.985,2.985,0,0,0,.783-1.277,14.041,14.041,0,0,0,1.221-4.311,12.188,12.188,0,0,0-.733-4.372,44.78,44.78,0,0,0-12.348-19.43c-2.2-2.027-6.157-5.187-9.294-3.424-1.5.839-2.616,2.154-4.239,2.812A7.968,7.968,0,0,1,202.26,162.884Z" transform="translate(-157.689 -156.539)" fill="#51ff4a" opacity="0.75"/><path d="M162.53,237.713s34.243-2.3,48.7-30.34-2.111-55.527-2.111-55.527,53.717,18.963,33.872,65.5S162.53,237.713,162.53,237.713Z" transform="translate(-160.536 -162.125)" fill="#3c1f4e" opacity="0.1"/><path d="M174.434,172.416a1.836,1.836,0,0,1-.119.549,2.16,2.16,0,0,1-.308.477q-.588.755-1.177,1.513c.01-.168-.206-.248-.374-.241s-.36.047-.481-.068a.463.463,0,0,1-.11-.3c-.14-1.18-.014-2.555-.892-3.357q-.152.947-.21,1.908a.772.772,0,0,1-.493.852,12.82,12.82,0,0,0-2.3,1.581c-.052-.68-.107-1.364-.159-2.046a1.457,1.457,0,0,1,.04-.616,1.441,1.441,0,0,1,.285-.435q.829-.981,1.658-1.966a2.575,2.575,0,0,0,.563-.887,2.637,2.637,0,0,0,.079-.724q.013-1.068.028-2.14l1.4-.327a1.01,1.01,0,0,1,.407-.035c.962.2,1.49,1.562,1.6,2.4A16.783,16.783,0,0,1,174.434,172.416Z" transform="translate(-156.596 -151.417)" fill="#51ff4a" opacity="0.75"/></g></g></g><g transform="translate(419.783 248.784)"><path d="M220.24,165.387a7.22,7.22,0,1,1-7.22-7.22A7.22,7.22,0,0,1,220.24,165.387Z" transform="translate(-205.799 -158.167)" fill="#ada7ca"/><g transform="translate(0)" clip-path="url(#d)"><path d="M204.924,169.746a3.909,3.909,0,0,1,1.74-1.462,2.5,2.5,0,0,1,2.215.152c.8.512,1.153,1.491,1.76,2.221a6.932,6.932,0,0,0,3.62,1.943,4.05,4.05,0,0,0,1.717.2,3.511,3.511,0,0,0,1.989-1.314,13.726,13.726,0,0,1,1.614-1.812c.678-.547,1.525-.864,2.155-1.462a4.743,4.743,0,0,0,1.082-4.17,8.666,8.666,0,0,0-17.214.733" transform="translate(-207.428 -160.88)" fill="#3c1f4e" opacity="0.1"/><path d="M207.177,160.133a7.618,7.618,0,0,0-1.706,4.064,2.23,2.23,0,0,0,.469,1.877,7.154,7.154,0,0,0,1.814-1.557,2.191,2.191,0,0,1,2.166-.707c.612.24.964.9,1.551,1.2a1.894,1.894,0,0,0,1.594-.029,3.852,3.852,0,0,0,1.274-1.019,3.987,3.987,0,0,0,1.142-2.43,3.393,3.393,0,0,0-.406-1.62,4.522,4.522,0,0,0-2.962-2.358,3.927,3.927,0,0,0-3.6,1.019" transform="translate(-206.455 -159.48)" fill="#3c1f4e" opacity="0.1"/><path d="M210.982,163.352a1.614,1.614,0,0,0,1.342-.644,1.677,1.677,0,0,0,.134-1.491,3.816,3.816,0,0,0-.847-1.288,1.5,1.5,0,0,0-2.541.644A2.1,2.1,0,0,0,210.982,163.352Z" transform="translate(-199.921 -155.777)" fill="#3c1f4e" opacity="0.1"/><path d="M209.6,163.144a1.568,1.568,0,0,0,1-.289.508.508,0,0,0,.1-.667,1.956,1.956,0,0,0-.627-.578,1.476,1.476,0,0,0-1.889.289C207.845,162.486,208.561,163.141,209.6,163.144Z" transform="translate(-201.518 -152.154)" fill="#3c1f4e" opacity="0.1"/></g></g></g></svg>