<svg xmlns="http://www.w3.org/2000/svg" xmlns:xlink="http://www.w3.org/1999/xlink" width="83.296" height="83.296" viewBox="0 0 83.296 83.296"><defs><linearGradient id="a" x1="0.352" y1="0.909" x2="0.645" y2="0.1" gradientUnits="objectBoundingBox"><stop offset="0" stop-color="#253cbc"/><stop offset="1" stop-color="#505bd7"/></linearGradient><clipPath id="c"><path d="M500.984,453.914a41.648,41.648,0,1,1-41.649-41.649A41.648,41.648,0,0,1,500.984,453.914Z" transform="translate(-417.688 -412.265)" fill="url(#a)"/></clipPath></defs><g transform="translate(-624.946 -576.297)"><path d="M500.984,453.914a41.648,41.648,0,1,1-41.649-41.649A41.648,41.648,0,0,1,500.984,453.914Z" transform="translate(207.258 164.032)" fill="url(#a)"/><g transform="translate(624.946 576.297)" clip-path="url(#c)"><path d="M414.965,420.469c13.759,3.35,28.117,2.915,42.27,2.459q36.342-1.173,72.683-2.345c-1.332,2.324-4.408,2.828-7.077,3.076q-13.708,1.275-27.43,2.368c-14.327,1.145-28.686,2.142-43.06,2.03a279.224,279.224,0,0,1-43.338-3.739" transform="translate(-424.184 -406.123)" fill="#f9fbfc" opacity="0.19"/><path d="M514.376,432.733c2.656-.345,5.391-.715,7.976-.014s5,2.773,5.2,5.44a9.182,9.182,0,0,1-1.046,4.3c-1.266,2.892-2.842,5.837-5.512,7.523-2.226,1.406-4.937,1.761-7.553,2.083-31.947,3.926-65.115,7.75-95.719-2.219a6.622,6.622,0,0,1-3.6-2.147,6.8,6.8,0,0,1-.839-3.672c-.124-3.358-1.151-8.044-.418-11.3.88-3.894,2.94-2.3,6.773-1.667q11.41,1.889,22.936,2.955a326.066,326.066,0,0,0,46.206,1C497.347,434.59,505.874,433.8,514.376,432.733Z" transform="translate(-421.49 -398.845)" fill="#f9fbfc" opacity="0.31"/><path d="M412.877,514.667s45.062-3.029,64.094-39.893-2.777-73.012-2.777-73.012,70.688,24.937,44.573,86.129S412.877,514.667,412.877,514.667Z" transform="translate(-421.29 -420.129)" fill="#3c1f4e" opacity="0.1"/><path d="M415.8,417.174a66.009,66.009,0,0,0,17.676,5.7c7.016,1.289,14.878,1.5,20.607-2.751a2.426,2.426,0,0,0,1.013-1.229,1.8,1.8,0,0,0-1.14-1.929,5.371,5.371,0,0,0-2.4-.257,139.31,139.31,0,0,1-30.314-2.039" transform="translate(-419.103 -410.463)" fill="#f9fbfc" opacity="0.58"/><path d="M515.923,450.7a725.875,725.875,0,0,1-103.34-.626A569.67,569.67,0,0,0,521.249,453.3" transform="translate(-421.51 -383.956)" fill="#f9fbfc" opacity="0.58"/></g></g></svg>