<svg xmlns="http://www.w3.org/2000/svg" xmlns:xlink="http://www.w3.org/1999/xlink" width="126.665" height="89.257" viewBox="0 0 126.665 89.257"><defs><linearGradient id="a" x1="0.357" y1="0.867" x2="0.654" y2="0.104" gradientUnits="objectBoundingBox"><stop offset="0" stop-color="#d05450"/><stop offset="1" stop-color="#ffe442"/></linearGradient><clipPath id="c"><path d="M396.076,346.055a44.629,44.629,0,1,1-44.629-44.627A44.629,44.629,0,0,1,396.076,346.055Z" transform="translate(-306.819 -301.428)" fill="url(#a)"/></clipPath><linearGradient id="d" x1="0.767" y1="0.666" x2="0.249" y2="0.345" gradientUnits="objectBoundingBox"><stop offset="0" stop-color="#a5534a"/><stop offset="1" stop-color="#f17247"/></linearGradient><linearGradient id="e" x1="0.767" y1="0.666" x2="0.249" y2="0.345" xlink:href="#d"/></defs><g transform="translate(-439.583 -460.883)"><path d="M317.54,336.115s-11.662,9.489-12.774,15.275,17.125,4.443,17.125,4.443-21.336,8.1-24.624,1.667,19.393-23.05,19.393-23.05Z" transform="translate(144.545 184.178)" fill="#d05450"/><g transform="translate(439.583 460.883)"><g transform="translate(19.176)"><path d="M396.076,346.055a44.629,44.629,0,1,1-44.629-44.627A44.629,44.629,0,0,1,396.076,346.055Z" transform="translate(-306.819 -301.428)" fill="url(#a)"/><g clip-path="url(#c)"><path d="M308.44,312.709c5.007,3.641,11.246,5.134,17.377,6,15.348,2.181,27.486,2.621,42.889.862,13.741-1.57,22.523-10.244,31.405-14.721.425-.213,1.425,3.37,1.873,3.525a1.739,1.739,0,0,1,.881,1.13,33.661,33.661,0,0,1,2.182,14.184,16.32,16.32,0,0,1-1.625,6.664c-2.139,4.029-6.549,6.264-10.826,7.85-21.053,7.81-44.65,5.779-66.217-.474-5.905-1.712-11.868-3.81-16.581-7.759s-7.99-10.118-6.981-16.183" transform="translate(-309.951 -298.87)" fill="#ac1f21" opacity="0.25"/><path d="M308.14,307.1a13.278,13.278,0,0,0,6.037,6.134,32.579,32.579,0,0,0,8.282,2.8c17.769,4.05,37.09,3.994,53.482-3.97a42.214,42.214,0,0,0,13.271-9.656,13.1,13.1,0,0,0,3.478-6.369,21.643,21.643,0,0,1-8.119,8.667c-4.456,2.661-9.683,3.616-14.729,4.826-5.633,1.352-11.2,3.083-16.95,3.781-14.84,1.8-29.7-3.407-42.884-10.45" transform="translate(-305.83 -305.462)" fill="#ac1f21" opacity="0.25"/><path d="M302.693,312.338c7.168,6.189,16.746,8.7,26.054,10.445,13.306,2.5,27.058,3.814,40.357,1.27a71.379,71.379,0,0,0,36.667-19.363c-1.945,4.262-3.971,8.64-7.4,11.83-3.651,3.394-8.53,5.1-13.325,6.458-22.826,6.465-47.61,6.909-70.106-.631a27.975,27.975,0,0,1-9.158-4.571c-2.642-2.191-4.6-5.437-4.5-8.868" transform="translate(-310.968 -298.987)" fill="#ac1f21" opacity="0.25"/><path d="M304.279,337.073c6.271,9.256,17.181,14.649,28.252,16.209s22.354-.33,33.161-3.191c18.008-4.772,36.13-12.921,47.126-27.96,1.243-1.7,2.424-3.594,2.49-5.7-1.722,2.17-2.219,5.031-3.165,7.635a28.306,28.306,0,0,1-9.571,12.426,61.456,61.456,0,0,1-13.892,7.635,149.737,149.737,0,0,1-44.9,11.127,66.279,66.279,0,0,1-16.184-.2,42.691,42.691,0,0,1-23.473-12.084" transform="translate(-308.838 -290.195)" fill="#ac1f21" opacity="0.25"/><path d="M354.916,354.153a127.244,127.244,0,0,0,57.386-20.9c-4.45,10.473-15.154,16.975-25.96,20.549-16.307,5.393-33.874,5.655-51,4.305-3.013-.24-30.866-3.366-25.867-9.863,1.439-1.871,9.639,2.822,11.918,3.5a73.671,73.671,0,0,0,15.938,2.808A100.431,100.431,0,0,0,354.916,354.153Z" transform="translate(-305.276 -277.602)" fill="#ac1f21" opacity="0.25"/><path d="M302.2,317.067c6.638,8.967,17.685,13.385,28.334,16.707,11.7,3.651,23.868,6.531,36.106,5.811,3.945-.233,8.168-.782,11.627,1.133-2.941,2.1-6.687,2.663-10.288,2.983a131.56,131.56,0,0,1-35.007-1.878c-7.086-1.282-14.241-3.1-20.269-7.035-5.542-3.623-9.824-8.841-13.92-14.044" transform="translate(-312.836 -289.719)" fill="#ac1f21" opacity="0.25"/><path d="M391.7,314.97c-4.024,5.5-9.747,8.534-15.375,10.832a90.217,90.217,0,0,1-58.879,3.721,10.912,10.912,0,0,0,5.494,2.4c14.229,3.106,29.039,3.824,43.522.3a76.845,76.845,0,0,0,39.685-24.1" transform="translate(-298.859 -296.415)" fill="#ac1f21" opacity="0.25"/><path d="M321,303.11a14.1,14.1,0,0,0,10.546,6.906,19.759,19.759,0,0,0,12.517-2.88,11.6,11.6,0,0,0,5.159-5.405c.922-2.364.376-5.432-1.757-6.806" transform="translate(-296.204 -306.298)" fill="#ac1f21" opacity="0.25"/><path d="M313.189,307.136c3.751,3.793,9.429,4.806,14.735,5.353,15.438,1.593,31.235.853,46.134-3.489-1.429,2.151-4.228,2.829-6.773,3.258a212.41,212.41,0,0,1-27.364,2.3c-10.935.4-22.55.449-31.921-5.2" transform="translate(-305.934 -297.154)" fill="#ac1f21" opacity="0.25"/><path d="M411.468,325.844c-2.492,5.823-8.254,9.49-13.866,12.43-24.715,12.947-53.619,18.834-81,13.472-4.314-.845-8.812-1.957-13.033-.728a2.189,2.189,0,0,0-1.123.616c-.588.72-.161,1.792.3,2.6,6.35,10.947,17.246,18.917,29.289,22.8s25.145,3.873,37.5,1.151c11.447-2.52,22.609-7.488,30.879-15.8s13.313-20.238,11.7-31.847" transform="translate(-310.307 -283.148)" fill="#ac1f21" opacity="0.25"/><path d="M303.888,405.534s45.027-3.029,64.043-39.893-2.775-73.012-2.775-73.012,70.632,24.937,44.54,86.129S303.888,405.534,303.888,405.534Z" transform="translate(-309.013 -308.016)" fill="#3c1f4e" opacity="0.1"/></g></g><path d="M306.251,368.146s21.451-3.38,56.029-24c16.174-9.642,35.861-26.122,35.861-26.122l4.109-.532a297.491,297.491,0,0,1-28.827,21.444c-9.431,6.122-19.9,12.218-25.517,15.214-16.053,8.565-39.93,17.043-39.93,17.043Z" transform="translate(-288.069 -289.4)" fill="#d05450"/><g transform="translate(0 8.511)"><path d="M422.1,308.44c-2.289-4-13.675-2.217-29.55,3.8.287.313.561.637.839.96,13.507-4.874,23.053-6.169,25.052-2.672,3.7,6.474-19.825,26.9-52.554,45.615s-62.261,28.644-65.963,22.167c-2.135-3.73,4.788-12.1,17.295-22.1-.129-.393-.261-.783-.378-1.177-14.691,11.43-22.994,21.14-20.575,25.368,3.977,6.949,35.366-3.527,70.113-23.4S426.077,315.39,422.1,308.44Z" transform="translate(-295.853 -306.295)" fill="url(#d)"/><path d="M314.993,356.5c-.145-.376-.292-.752-.425-1.128-10.573,8.742-16.287,15.964-14.385,19.29,3.5,6.117,31.422-3.27,62.368-20.969s53.2-37.006,49.7-43.125c-1.763-3.08-9.718-2.226-21.128,1.635.283.345.554.7.829,1.061,8.308-2.328,14.009-2.483,15.467.066,3.343,5.846-16.87,23.7-45.146,39.869s-53.913,24.547-57.258,18.7C303.394,369.071,307.314,363.415,314.993,356.5Z" transform="translate(-292.883 -304.491)" fill="url(#e)"/></g></g></g></svg>