<svg id="leb-logo" xmlns="http://www.w3.org/2000/svg" width="258.605" height="77.363" viewBox="0 0 258.605 77.363">
  <g id="Agrupar_4" data-name="Agrupar 4" transform="translate(165.238 2.965)">
    <g id="Agrupar_1" data-name="Agrupar 1" transform="translate(0.27 40.568)">
      <path id="Caminho_1" data-name="Caminho 1" d="M123.07,33.97c.674,0,1.348-.135,2.156-.135.674,0,1.348-.135,2.156-.135h2.561a17.415,17.415,0,0,1,3.909.4,8.539,8.539,0,0,1,2.965,1.213,5.769,5.769,0,0,1,1.887,2.156,8.322,8.322,0,0,1,.674,3.369,5.793,5.793,0,0,1-.27,1.617,4.036,4.036,0,0,1-.539,1.348c-.27.4-.539.674-.809,1.078a5.861,5.861,0,0,1-.943.809,6.66,6.66,0,0,1-2.426,1.078v.135a8.421,8.421,0,0,1,2.965,1.348,6.75,6.75,0,0,1,1.078.943,7.407,7.407,0,0,1,.943,1.213,4.5,4.5,0,0,1,.674,1.617,8.157,8.157,0,0,1,.27,2.022,7.089,7.089,0,0,1-.809,3.5,7.385,7.385,0,0,1-2.156,2.426,11.868,11.868,0,0,1-3.235,1.483,19.622,19.622,0,0,1-4.178.539h-2.83c-.809,0-1.617-.135-2.291-.135-.809,0-1.483-.135-2.022-.135V33.97Zm4.717,11.321a9.957,9.957,0,0,0,2.83,0,11.414,11.414,0,0,0,2.291-.539,2.712,2.712,0,0,0,1.483-1.213,3.42,3.42,0,0,0,.539-2.156,3.372,3.372,0,0,0-.4-1.752,2.935,2.935,0,0,0-.943-1.213,4.982,4.982,0,0,0-1.483-.674,7.954,7.954,0,0,0-1.887-.27h-2.561v7.817Zm0,12.4a1.466,1.466,0,0,1,.674.135h1.887a10.476,10.476,0,0,0,2.156-.27,3.074,3.074,0,0,0,1.617-.809A5.277,5.277,0,0,0,135.2,55.4a4.5,4.5,0,0,0,.4-2.022,4.13,4.13,0,0,0-.539-2.291,4.284,4.284,0,0,0-1.617-1.483,6.41,6.41,0,0,0-2.426-.674,11.921,11.921,0,0,0-3.1,0V57.69Z" transform="translate(-122.8 -31.813)" fill="#2a2469"/>
      <path id="Caminho_2" data-name="Caminho 2" d="M139.4,39.77h3.369l.674,2.426h.135a3.823,3.823,0,0,1,1.213-1.348,5.565,5.565,0,0,1,1.483-.943,5.808,5.808,0,0,1,2.291-.4,2.632,2.632,0,0,1,.943.135c.27,0,.539.135.809.135a1.346,1.346,0,0,1,.674.539,1.915,1.915,0,0,1,.27.809,4.642,4.642,0,0,1-.135,1.213,8.245,8.245,0,0,1-.674,1.617c-.27,0-.4-.135-.674-.135s-.4-.135-.674-.135H148.3a8.157,8.157,0,0,0-2.022.27,12.526,12.526,0,0,0-1.348.674,2.526,2.526,0,0,0-.809.943V59.043h-4.582V39.77Z" transform="translate(-117.027 -29.796)" fill="#2a2469"/>
      <path id="Caminho_3" data-name="Caminho 3" d="M149.4,54.565a6.425,6.425,0,0,1,.674-2.965,5.067,5.067,0,0,1,1.887-1.887,9.149,9.149,0,0,1,2.7-.943,26.171,26.171,0,0,1,3.235-.27h2.156v-.943a8.923,8.923,0,0,0-.135-2.022,4.828,4.828,0,0,0-.539-1.483,2.1,2.1,0,0,0-1.078-.809,7.025,7.025,0,0,0-1.887-.27,8.288,8.288,0,0,0-1.887.135,13.989,13.989,0,0,0-1.617.4,7.6,7.6,0,0,0-1.617.539l-.674-3.369a11.861,11.861,0,0,1,2.022-.674c.674-.135,1.348-.4,2.291-.539a16.823,16.823,0,0,1,2.83-.27,9.421,9.421,0,0,1,3.639.539,5.131,5.131,0,0,1,2.156,1.483,7.345,7.345,0,0,1,1.078,2.561,28.71,28.71,0,0,1,.27,3.639V54.16a2.627,2.627,0,0,0,.135,1.078,1.86,1.86,0,0,0,.4.539,1.022,1.022,0,0,0,.539.27h.809a1.488,1.488,0,0,1,0,1.078,2.172,2.172,0,0,1-.539.943,7.522,7.522,0,0,1-1.078.674,4.845,4.845,0,0,1-1.483.27,1.71,1.71,0,0,1-.809-.135,1.916,1.916,0,0,1-.809-.27,2.367,2.367,0,0,1-.674-.539,1.146,1.146,0,0,1-.4-.674c0-.135-.135-.4-.135-.539v-.539a.81.81,0,0,1,.135-.539h-.135a6.049,6.049,0,0,1-1.483,1.752c-.27.27-.539.4-.809.674a2.709,2.709,0,0,1-1.078.539l-1.213.4a5.054,5.054,0,0,1-1.483.135,6.037,6.037,0,0,1-4.043-1.213A4.042,4.042,0,0,1,149.4,54.565Zm4.313-.4a2,2,0,0,0,.135.943,2.365,2.365,0,0,0,.539.674.99.99,0,0,0,.809.27c.27,0,.674.135.943.135a3.372,3.372,0,0,0,1.752-.4,4.841,4.841,0,0,0,1.348-.943,5.277,5.277,0,0,0,1.078-1.348V51.465h-2.156a9.378,9.378,0,0,0-2.156.27,3.128,3.128,0,0,0-1.348.539,2.417,2.417,0,0,0-.674.943A1.283,1.283,0,0,0,153.713,54.16Z" transform="translate(-113.549 -29.9)" fill="#2a2469"/>
      <path id="Caminho_4" data-name="Caminho 4" d="M165.239,54.965c.539.135.943.4,1.483.539a13.989,13.989,0,0,0,1.617.4,7.685,7.685,0,0,0,1.752.135,5.037,5.037,0,0,0,2.7-.539,1.634,1.634,0,0,0,.943-1.617,1.948,1.948,0,0,0-.27-.943,1.981,1.981,0,0,0-.809-.674,4.788,4.788,0,0,0-1.213-.539c-.4-.135-.943-.4-1.483-.539a21.374,21.374,0,0,1-2.426-1.078,5.393,5.393,0,0,1-1.617-1.348,10.052,10.052,0,0,1-.943-1.617,10.4,10.4,0,0,1-.27-2.022,4.13,4.13,0,0,1,.539-2.291,6.048,6.048,0,0,1,1.483-1.752A11.949,11.949,0,0,1,169.013,40a10.511,10.511,0,0,1,2.965-.4,7.12,7.12,0,0,1,1.752.135,3.987,3.987,0,0,1,1.348.27,2.709,2.709,0,0,1,1.078.539c.4.135.539.4.809.809a2.539,2.539,0,0,1,.27,1.078,4,4,0,0,1-.539,1.483,3.172,3.172,0,0,0-1.078-.27c-.4-.135-.809-.135-1.213-.27a5.054,5.054,0,0,0-1.483-.135,6.793,6.793,0,0,0-2.561.4,1.4,1.4,0,0,0-.943,1.348,1.948,1.948,0,0,0,.27.943,3.573,3.573,0,0,0,.674.809,7.523,7.523,0,0,0,1.078.674c.4.135.943.4,1.483.539a21.376,21.376,0,0,1,2.426,1.078,19.715,19.715,0,0,1,1.752,1.213,4.846,4.846,0,0,1,1.078,1.617,4.5,4.5,0,0,1,.4,2.022,5.144,5.144,0,0,1-2.156,4.448A6.841,6.841,0,0,1,174,59.547a10.511,10.511,0,0,1-2.965.4,12.332,12.332,0,0,1-2.291-.135c-.809-.135-1.348-.27-2.022-.4a7.793,7.793,0,0,1-1.887-.674Z" transform="translate(-108.228 -29.761)" fill="#2a2469"/>
      <path id="Caminho_5" data-name="Caminho 5" d="M179.678,46.478a2,2,0,0,0-.135-.943.953.953,0,0,0-.809-.809h-.809a1.476,1.476,0,0,1,0-1.078,2.172,2.172,0,0,1,.539-.943,2.126,2.126,0,0,1,1.078-.674,4.845,4.845,0,0,1,1.483-.27,4.585,4.585,0,0,1,1.348.135,4.728,4.728,0,0,1,1.078.674,2.935,2.935,0,0,1,.674,1.078,5.027,5.027,0,0,1,.27,1.617V61.3h-4.582V46.478Zm2.291-8.626a2.8,2.8,0,0,1-2.022-.539,2.666,2.666,0,0,1-.674-1.887,2.294,2.294,0,0,1,.135-.943,2.478,2.478,0,0,1,1.348-1.348A3.731,3.731,0,0,1,181.969,33a2,2,0,0,1,.943.135,2.82,2.82,0,0,1,.809.539,1.718,1.718,0,0,1,.539.809,2.294,2.294,0,0,1,.135.943,2.666,2.666,0,0,1-.674,1.887C183.452,37.717,182.778,37.852,181.969,37.852Z" transform="translate(-103.663 -32.057)" fill="#2a2469"/>
      <path id="Caminho_6" data-name="Caminho 6" d="M187.135,34.726V33.109A.81.81,0,0,0,187,32.57a5.837,5.837,0,0,1,.674-.135c.27,0,.4-.135.674-.135h.809a3.57,3.57,0,0,1,1.887.4,1.739,1.739,0,0,1,.674,1.483V57.1a2,2,0,0,0,.135.943.953.953,0,0,0,.809.809h.809a1.476,1.476,0,0,1,0,1.078,2.173,2.173,0,0,1-.539.943,2.127,2.127,0,0,1-1.078.674,4.845,4.845,0,0,1-1.483.27,4.585,4.585,0,0,1-1.348-.135,4.728,4.728,0,0,1-1.078-.674,2.935,2.935,0,0,1-.674-1.078,5.026,5.026,0,0,1-.27-1.617V34.726Z" transform="translate(-100.472 -32.3)" fill="#2a2469"/>
    </g>
    <g id="Agrupar_2" data-name="Agrupar 2">
      <path id="Caminho_7" data-name="Caminho 7" d="M122.6,2.9h2.291V13.817h4.717v2.022H122.6Z" transform="translate(-122.6 -1.957)" fill="#292f6c"/>
      <path id="Caminho_8" data-name="Caminho 8" d="M128.6,12.778a3.382,3.382,0,0,1,.27-1.348,1.812,1.812,0,0,1,.943-.809,2.277,2.277,0,0,1,1.348-.4,6.562,6.562,0,0,1,1.617-.135h1.078V8.6a1.03,1.03,0,0,0-.27-.674c-.27-.27-.4-.4-.674-.4a2,2,0,0,0-.943-.135,2.294,2.294,0,0,0-.943.135c-.27,0-.539.135-.809.135-.27.135-.539.135-.809.27l-.27-1.617c.27-.135.674-.27.943-.4s.674-.135,1.078-.27a4.155,4.155,0,0,1,1.348-.135,5.982,5.982,0,0,1,1.752.27,2.935,2.935,0,0,1,1.078.674,3.329,3.329,0,0,1,.539,1.213,6.589,6.589,0,0,1,.135,1.752v3.774a.471.471,0,0,0,.135.27c.135,0,.135.135.27.135h.4v.539c0,.135-.135.27-.27.4a.7.7,0,0,1-.539.27,1.215,1.215,0,0,1-.674.135h-.4c-.135,0-.27-.135-.4-.135a.29.29,0,0,1-.27-.27c-.135-.135-.135-.27-.27-.4v-.809h0a1.981,1.981,0,0,1-.674.809c-.135.135-.27.27-.4.27-.135.135-.27.135-.539.27a.81.81,0,0,1-.539.135c-.27,0-.4.135-.674.135a2.635,2.635,0,0,1-1.887-.539C128.87,14.261,128.6,13.587,128.6,12.778Zm2.022-.135c0,.135,0,.4.135.4a.29.29,0,0,0,.27.27.5.5,0,0,0,.4.135h.4c.27,0,.674,0,.809-.135.27-.135.4-.27.674-.4a2.939,2.939,0,0,0,.539-.674V11.3h-.943a2.627,2.627,0,0,0-1.078.135,1.029,1.029,0,0,0-.674.27c-.135.135-.27.27-.27.4A.7.7,0,0,0,130.622,12.643Z" transform="translate(-120.513 -1.052)" fill="#292f6c"/>
      <path id="Caminho_9" data-name="Caminho 9" d="M136.4,3.278V2.335c.135,0,.27,0,.27-.135h.809a2,2,0,0,1,.943.135,1.029,1.029,0,0,1,.27.674v3.5a1.215,1.215,0,0,1-.135.674c0,.27,0,.4-.135.539h0a1.053,1.053,0,0,1,.539-.539,2.194,2.194,0,0,1,.809-.4,2.992,2.992,0,0,1,1.213-.135,2.717,2.717,0,0,1,1.483.4A3.633,3.633,0,0,1,143.543,8a4.828,4.828,0,0,1,.539,1.483,8.286,8.286,0,0,1,.135,1.887A5.077,5.077,0,0,1,143,15.139a4.485,4.485,0,0,1-3.369,1.213,4.155,4.155,0,0,1-1.348-.135c-.4-.135-.809-.135-1.078-.27a4.488,4.488,0,0,1-.809-.4V3.278Zm2.156,11.187c.135,0,.135.135.27.135a.5.5,0,0,1,.4.135h.539a2.539,2.539,0,0,0,1.078-.27,1.624,1.624,0,0,0,.674-.674,9.292,9.292,0,0,0,.4-1.078,4.154,4.154,0,0,0,.135-1.348,3.755,3.755,0,0,0-.135-1.348c-.135-.4-.135-.674-.4-.943a1.052,1.052,0,0,0-.539-.539,1.215,1.215,0,0,0-.674-.135,1.709,1.709,0,0,0-.809.135c-.27.135-.4.135-.539.27l-.4.4Z" transform="translate(-117.801 -2.2)" fill="#292f6c"/>
      <path id="Caminho_10" data-name="Caminho 10" d="M143.4,10.317a8.158,8.158,0,0,1,.27-2.022,3.213,3.213,0,0,1,.809-1.483,4.841,4.841,0,0,1,1.348-.943,3.7,3.7,0,0,1,1.752-.27,3.867,3.867,0,0,1,3.1,1.213,5.578,5.578,0,0,1,1.078,3.639,5.578,5.578,0,0,1-1.078,3.639,4.567,4.567,0,0,1-6.2,0A6.274,6.274,0,0,1,143.4,10.317Zm4.178,3.235a1.353,1.353,0,0,0,1.348-.809,5.631,5.631,0,0,0,.4-2.426,5.631,5.631,0,0,0-.4-2.426,1.482,1.482,0,0,0-1.348-.809,1.353,1.353,0,0,0-1.348.809,5.632,5.632,0,0,0-.4,2.426,5.632,5.632,0,0,0,.4,2.426A1.353,1.353,0,0,0,147.578,13.552Z" transform="translate(-115.366 -1.018)" fill="#292f6c"/>
      <path id="Caminho_11" data-name="Caminho 11" d="M151.17,5.77h1.617l.27,1.078h0c.135-.27.4-.4.539-.674a2.946,2.946,0,0,1,.674-.4,2.539,2.539,0,0,1,1.078-.27h.4a.5.5,0,0,1,.4.135.29.29,0,0,1,.27.27.5.5,0,0,1,.135.4.81.81,0,0,1-.135.539,1.916,1.916,0,0,1-.27.809c-.135,0-.27,0-.27-.135h-.809a2,2,0,0,0-.943.135c-.27.135-.4.27-.674.27a1.86,1.86,0,0,0-.4.539v6.469H150.9V5.77Z" transform="translate(-112.758 -1.052)" fill="#292f6c"/>
      <path id="Caminho_12" data-name="Caminho 12" d="M156,12.778a3.382,3.382,0,0,1,.27-1.348,1.812,1.812,0,0,1,.943-.809,2.277,2.277,0,0,1,1.348-.4,6.562,6.562,0,0,1,1.617-.135h1.078V8.6a1.03,1.03,0,0,0-.27-.674,1.86,1.86,0,0,0-.539-.4,2,2,0,0,0-.943-.135,2.294,2.294,0,0,0-.943.135c-.27,0-.539.135-.809.135-.27.135-.539.135-.809.27l-.27-1.617c.27-.135.674-.27.943-.4s.674-.135,1.078-.27a4.155,4.155,0,0,1,1.348-.135,5.982,5.982,0,0,1,1.752.27,2.934,2.934,0,0,1,1.078.674,3.33,3.33,0,0,1,.539,1.213,6.587,6.587,0,0,1,.135,1.752v3.774a.471.471,0,0,0,.135.27c.135,0,.135.135.27.135h.4v.539c0,.135-.135.27-.27.4a.7.7,0,0,1-.539.27,1.215,1.215,0,0,1-.674.135h-.4c-.135,0-.27-.135-.4-.135a.29.29,0,0,1-.27-.27c-.135-.135-.135-.27-.27-.4v-.809h0a1.981,1.981,0,0,1-.674.809c-.135.135-.27.27-.4.27-.135.135-.27.135-.539.27a.81.81,0,0,1-.539.135c-.27,0-.4.135-.674.135a2.635,2.635,0,0,1-1.887-.539C156.135,14.261,156,13.587,156,12.778Zm2.022-.135c0,.135,0,.4.135.4a.29.29,0,0,0,.27.27.5.5,0,0,0,.4.135h.4c.27,0,.674,0,.809-.135.27-.135.4-.27.674-.4a2.939,2.939,0,0,0,.539-.674V11.3h-.943a2.627,2.627,0,0,0-1.078.135,1.03,1.03,0,0,0-.674.27c-.135.135-.27.27-.27.4C158.022,12.239,158.022,12.374,158.022,12.643Z" transform="translate(-110.984 -1.052)" fill="#292f6c"/>
      <path id="Caminho_13" data-name="Caminho 13" d="M164.213,7.774H163V6.7l1.348-.4.4-2.291H166.5V6.291H168.8V7.909H166.5v4.852a1.01,1.01,0,0,0,.135.674c0,.135.135.27.27.4a.417.417,0,0,0,.27.135h.809a.5.5,0,0,0,.4-.135c.135,0,.27-.135.4-.135l.27,1.348c-.27.135-.4.27-.674.27-.27.135-.539.135-.809.27-.27,0-.674.135-.943.135a2.627,2.627,0,0,1-1.078-.135,1.346,1.346,0,0,1-.674-.539,6.576,6.576,0,0,1-.4-.943,4.155,4.155,0,0,1-.135-1.348V7.774Z" transform="translate(-108.55 -1.574)" fill="#292f6c"/>
      <path id="Caminho_14" data-name="Caminho 14" d="M168.4,11.4a8.159,8.159,0,0,1,.27-2.022,3.213,3.213,0,0,1,.809-1.483,4.84,4.84,0,0,1,1.348-.943,3.7,3.7,0,0,1,1.752-.27,3.867,3.867,0,0,1,3.1,1.213,5.578,5.578,0,0,1,1.078,3.639,5.578,5.578,0,0,1-1.078,3.639,4.567,4.567,0,0,1-6.2,0A6.274,6.274,0,0,1,168.4,11.4Zm4.178,3.235a1.353,1.353,0,0,0,1.348-.809,5.631,5.631,0,0,0,.4-2.426,5.631,5.631,0,0,0-.4-2.426,1.482,1.482,0,0,0-1.348-.809,1.353,1.353,0,0,0-1.348.809,5.631,5.631,0,0,0-.4,2.426,5.631,5.631,0,0,0,.4,2.426A1.245,1.245,0,0,0,172.578,14.63ZM170.826,5.2l1.483-2.7h2.426v.135l-2.022,2.7h-1.752V5.2Z" transform="translate(-106.672 -2.096)" fill="#292f6c"/>
      <path id="Caminho_15" data-name="Caminho 15" d="M176.17,5.77h1.617l.27,1.078h0c.135-.27.4-.4.539-.674a2.946,2.946,0,0,1,.674-.4,2.539,2.539,0,0,1,1.078-.27h.4a.5.5,0,0,1,.4.135.29.29,0,0,1,.27.27.5.5,0,0,1,.135.4.81.81,0,0,1-.135.539,1.916,1.916,0,0,1-.27.809c-.135,0-.27,0-.27-.135h-.809a2,2,0,0,0-.943.135c-.27.135-.4.27-.674.27a1.86,1.86,0,0,0-.4.539v6.469H175.9V5.77Z" transform="translate(-104.063 -1.052)" fill="#292f6c"/>
      <path id="Caminho_16" data-name="Caminho 16" d="M182.309,8.969v-.4c0-.135-.135-.135-.135-.27a.471.471,0,0,0-.27-.135h-.4V7.622c0-.135.135-.27.27-.4a.7.7,0,0,1,.539-.27,1.01,1.01,0,0,1,.674-.135,1.215,1.215,0,0,1,.674.135,1.022,1.022,0,0,1,.539.27.7.7,0,0,1,.27.539,1.71,1.71,0,0,1,.135.809v7.682h-2.156V8.969Zm1.078-4.178a1.571,1.571,0,0,1-.943-.27,1.445,1.445,0,0,1-.27-.809.5.5,0,0,1,.135-.4c0-.135.135-.27.27-.4s.27-.135.4-.27c.135,0,.4-.135.539-.135a.5.5,0,0,1,.4.135c.135,0,.27.135.4.27s.135.27.27.4c0,.135.135.27.135.4a1.139,1.139,0,0,1-.27.809A1.621,1.621,0,0,1,183.387,4.791Z" transform="translate(-102.116 -2.096)" fill="#292f6c"/>
      <path id="Caminho_17" data-name="Caminho 17" d="M185.5,10.317a8.158,8.158,0,0,1,.27-2.022,3.213,3.213,0,0,1,.809-1.483,4.841,4.841,0,0,1,1.348-.943,3.7,3.7,0,0,1,1.752-.27,3.867,3.867,0,0,1,3.1,1.213,5.578,5.578,0,0,1,1.078,3.639,5.578,5.578,0,0,1-1.078,3.639,4.568,4.568,0,0,1-6.2,0A6.274,6.274,0,0,1,185.5,10.317Zm4.178,3.235a1.353,1.353,0,0,0,1.348-.809,5.631,5.631,0,0,0,.4-2.426,5.631,5.631,0,0,0-.4-2.426,1.482,1.482,0,0,0-1.348-.809,1.353,1.353,0,0,0-1.348.809,5.631,5.631,0,0,0-.4,2.426,5.631,5.631,0,0,0,.4,2.426A1.245,1.245,0,0,0,189.678,13.552Z" transform="translate(-100.725 -1.018)" fill="#292f6c"/>
    </g>
    <g id="Agrupar_3" data-name="Agrupar 3" transform="translate(0 20.891)">
      <path id="Caminho_18" data-name="Caminho 18" d="M122.6,18.5h7.278v2.022h-4.987v3.235H128.8v1.887h-3.909v3.774h4.987v2.022H122.6Z" transform="translate(-122.6 -17.422)" fill="#2a2469"/>
      <path id="Caminho_19" data-name="Caminho 19" d="M129,26.965a7.955,7.955,0,0,1,.27-1.887,4.982,4.982,0,0,1,.674-1.483,2.151,2.151,0,0,1,1.213-.943,3.589,3.589,0,0,1,1.617-.4,2,2,0,0,1,.943.135c.27.135.539.135.674.27a1.861,1.861,0,0,1,.539.4V17.935c.135,0,.27,0,.27-.135h.674a2,2,0,0,1,.943.135,1.029,1.029,0,0,1,.27.674V31.682h-1.617l-.27-.809h0l-.539.539a1.445,1.445,0,0,1-.809.27,2.627,2.627,0,0,1-1.078.135,2.874,2.874,0,0,1-1.617-.4,3.067,3.067,0,0,1-1.213-1.078,4.981,4.981,0,0,1-.674-1.483A4.284,4.284,0,0,1,129,26.965Zm5.93-2.561c-.135-.135-.27-.27-.4-.27-.135-.135-.27-.135-.539-.27a5.836,5.836,0,0,0-.674-.135,1.71,1.71,0,0,0-.809.135,1.346,1.346,0,0,0-.674.539,6.571,6.571,0,0,0-.4.943,5.053,5.053,0,0,0-.135,1.483,5.053,5.053,0,0,0,.135,1.483,6.571,6.571,0,0,0,.4.943,1.346,1.346,0,0,0,.674.539,1.71,1.71,0,0,0,.809.135,1.01,1.01,0,0,0,.674-.135c.135-.135.4-.135.539-.27l.4-.4Z" transform="translate(-120.374 -17.665)" fill="#2a2469"/>
      <path id="Caminho_20" data-name="Caminho 20" d="M144.548,30.5H142.93l-.27-1.078h0c-.135.27-.4.4-.674.674l-.809.4a3.936,3.936,0,0,1-1.213.27,3.382,3.382,0,0,1-1.348-.27,1.812,1.812,0,0,1-.943-.809,3.33,3.33,0,0,1-.539-1.213A6.562,6.562,0,0,1,137,26.861V21.335c.135,0,.135,0,.27-.135h.674a2,2,0,0,1,.943.135,1.029,1.029,0,0,1,.27.674v4.717a2.874,2.874,0,0,0,.4,1.617,1.871,1.871,0,0,0,2.022.4,1.86,1.86,0,0,0,.539-.4c.135-.135.4-.27.539-.539V21.335h2.156V30.5Z" transform="translate(-117.592 -16.483)" fill="#2a2469"/>
      <path id="Caminho_21" data-name="Caminho 21" d="M144,25.817a3.731,3.731,0,0,1,.135-1.213,2.539,2.539,0,0,1,.27-1.078,2.172,2.172,0,0,1,.539-.943,4.575,4.575,0,0,1,.809-.809,2.709,2.709,0,0,1,1.078-.539,4.155,4.155,0,0,1,1.348-.135,2.294,2.294,0,0,1,.943.135,5.837,5.837,0,0,1,.674.135c.27.135.4.135.539.27l.4.4a.81.81,0,0,1,.135.539,1.916,1.916,0,0,1-.27.809c-.135-.135-.4-.135-.539-.27-.135,0-.4-.135-.539-.135-.27,0-.4-.135-.674-.135a2.539,2.539,0,0,0-1.078.27,1.624,1.624,0,0,0-.674.674,6.571,6.571,0,0,0-.4.943,3.731,3.731,0,0,0-.135,1.213,3.731,3.731,0,0,0,.135,1.213,6.571,6.571,0,0,0,.4.943,1.624,1.624,0,0,0,.674.674,2.539,2.539,0,0,0,1.078.27,1.01,1.01,0,0,0,.674-.135c.27,0,.4-.135.539-.135.135-.135.4-.135.539-.27L151.143,30a2.946,2.946,0,0,1-.674.4,1.948,1.948,0,0,1-.943.27,3.732,3.732,0,0,1-1.213.135,4.155,4.155,0,0,1-1.348-.135,2.709,2.709,0,0,1-1.078-.539l-.809-.809c-.135-.27-.4-.674-.539-.943a3.172,3.172,0,0,1-.27-1.078A3.446,3.446,0,0,1,144,25.817Z" transform="translate(-115.157 -16.518)" fill="#2a2469"/>
      <path id="Caminho_22" data-name="Caminho 22" d="M150,28.413a3.382,3.382,0,0,1,.27-1.348,1.812,1.812,0,0,1,.943-.809,2.277,2.277,0,0,1,1.348-.4,6.562,6.562,0,0,1,1.617-.135h1.078V24.1a1.03,1.03,0,0,0-.27-.674,1.861,1.861,0,0,0-.539-.4,2,2,0,0,0-.943-.135,2.293,2.293,0,0,0-.943.135c-.27,0-.539.135-.809.135-.27.135-.539.135-.809.27l-.27-1.617c.27-.135.674-.27.943-.4s.674-.135,1.078-.27A4.155,4.155,0,0,1,154.043,21a5.982,5.982,0,0,1,1.752.27,2.934,2.934,0,0,1,1.078.674,3.33,3.33,0,0,1,.539,1.213,7.121,7.121,0,0,1,.135,1.752v3.774a.471.471,0,0,0,.135.27c.135,0,.135.135.27.135h.4v.539c0,.135-.135.27-.27.4a.7.7,0,0,1-.539.27,1.215,1.215,0,0,1-.674.135h-.4c-.135,0-.27-.135-.4-.135a.29.29,0,0,1-.27-.27c-.135-.135-.135-.27-.27-.4v-.809h0a1.981,1.981,0,0,1-.674.809c-.135.135-.27.27-.4.27-.135.135-.27.135-.539.27a.81.81,0,0,1-.539.135c-.27,0-.4.135-.674.135a2.635,2.635,0,0,1-1.887-.539C150.135,29.761,150,29.221,150,28.413Zm2.022-.27c0,.135,0,.4.135.4a.29.29,0,0,0,.27.27.5.5,0,0,0,.4.135h.4c.27,0,.674,0,.809-.135.27-.135.4-.27.674-.4a2.939,2.939,0,0,0,.539-.674V26.8h-.943a2.627,2.627,0,0,0-1.078.135,1.029,1.029,0,0,0-.674.27c-.135.135-.27.27-.27.4A.538.538,0,0,0,152.022,28.143Z" transform="translate(-113.071 -16.552)" fill="#2a2469"/>
      <path id="Caminho_23" data-name="Caminho 23" d="M157,25.817a3.731,3.731,0,0,1,.135-1.213,2.539,2.539,0,0,1,.27-1.078,2.173,2.173,0,0,1,.539-.943,4.575,4.575,0,0,1,.809-.809,2.709,2.709,0,0,1,1.078-.539,4.155,4.155,0,0,1,1.348-.135,2.293,2.293,0,0,1,.943.135,5.837,5.837,0,0,1,.674.135c.27.135.4.135.539.27l.4.4a.81.81,0,0,1,.135.539,1.916,1.916,0,0,1-.27.809c-.135-.135-.4-.135-.539-.27-.135,0-.4-.135-.539-.135-.27,0-.4-.135-.674-.135a2.539,2.539,0,0,0-1.078.27,1.624,1.624,0,0,0-.674.674,6.571,6.571,0,0,0-.4.943,3.731,3.731,0,0,0-.135,1.213,3.731,3.731,0,0,0,.135,1.213,6.571,6.571,0,0,0,.4.943,1.624,1.624,0,0,0,.674.674,2.539,2.539,0,0,0,1.078.27,1.01,1.01,0,0,0,.674-.135c.27,0,.4-.135.539-.135.135-.135.4-.135.539-.27L164.143,30a2.946,2.946,0,0,1-.674.4,1.948,1.948,0,0,1-.943.27,3.731,3.731,0,0,1-1.213.135,4.155,4.155,0,0,1-1.348-.135,2.709,2.709,0,0,1-1.078-.539l-.809-.809c-.135-.27-.4-.674-.539-.943a3.171,3.171,0,0,1-.27-1.078A3.446,3.446,0,0,1,157,25.817Z" transform="translate(-110.636 -16.518)" fill="#2a2469"/>
      <path id="Caminho_24" data-name="Caminho 24" d="M164.009,24.435v-.4c0-.135-.135-.135-.135-.27a.471.471,0,0,0-.27-.135h-.4v-.539c0-.135.135-.27.27-.4a.7.7,0,0,1,.539-.27,1.01,1.01,0,0,1,.674-.135,1.215,1.215,0,0,1,.674.135,1.022,1.022,0,0,1,.539.27.7.7,0,0,1,.27.539,1.709,1.709,0,0,1,.135.809v7.682h-2.156V24.435Zm1.078-4.043a1.571,1.571,0,0,1-.943-.27,1.445,1.445,0,0,1-.27-.809.5.5,0,0,1,.135-.4c0-.135.135-.27.27-.4s.27-.135.4-.27c.135,0,.4-.135.539-.135a.5.5,0,0,1,.4.135c.135,0,.27.135.4.27s.135.27.27.4c0,.135.135.27.135.4a1.139,1.139,0,0,1-.27.809A2.539,2.539,0,0,1,165.087,20.391Z" transform="translate(-108.48 -17.561)" fill="#2a2469"/>
      <path id="Caminho_25" data-name="Caminho 25" d="M167.1,25.817a8.159,8.159,0,0,1,.27-2.022,3.213,3.213,0,0,1,.809-1.483,4.84,4.84,0,0,1,1.348-.943,3.7,3.7,0,0,1,1.752-.27,3.867,3.867,0,0,1,3.1,1.213,5.578,5.578,0,0,1,1.078,3.639,5.578,5.578,0,0,1-1.078,3.639,4.567,4.567,0,0,1-6.2,0A5.481,5.481,0,0,1,167.1,25.817Zm4.043,3.235a1.353,1.353,0,0,0,1.348-.809,5.632,5.632,0,0,0,.4-2.426,5.632,5.632,0,0,0-.4-2.426,1.482,1.482,0,0,0-1.348-.809,1.353,1.353,0,0,0-1.348.809,5.631,5.631,0,0,0-.4,2.426,5.631,5.631,0,0,0,.4,2.426A1.353,1.353,0,0,0,171.143,29.052Z" transform="translate(-107.124 -16.518)" fill="#2a2469"/>
      <path id="Caminho_26" data-name="Caminho 26" d="M174.67,21.27h1.617l.27,1.078h0c.135-.27.4-.4.674-.674a6.57,6.57,0,0,1,.943-.4,3.935,3.935,0,0,1,1.213-.27,3.382,3.382,0,0,1,1.348.27,1.812,1.812,0,0,1,.943.809,3.33,3.33,0,0,1,.539,1.213,6.562,6.562,0,0,1,.135,1.617V30.3c-.135,0-.27,0-.27.135h-.809a2,2,0,0,1-.943-.135,1.029,1.029,0,0,1-.27-.674V25.043a2.874,2.874,0,0,0-.4-1.617,1.871,1.871,0,0,0-2.022-.4,1.86,1.86,0,0,0-.539.4c-.135.135-.4.27-.539.539v6.469H174.4V21.27Z" transform="translate(-104.585 -16.552)" fill="#2a2469"/>
      <path id="Caminho_27" data-name="Caminho 27" d="M181.8,28.413a3.382,3.382,0,0,1,.27-1.348,1.812,1.812,0,0,1,.943-.809,2.277,2.277,0,0,1,1.348-.4,6.562,6.562,0,0,1,1.617-.135h1.078V24.1a1.029,1.029,0,0,0-.27-.674,1.86,1.86,0,0,0-.539-.4,2,2,0,0,0-.943-.135,2.293,2.293,0,0,0-.943.135c-.27,0-.539.135-.809.135-.27.135-.539.135-.809.27l-.27-1.617c.27-.135.674-.27.943-.4s.674-.135,1.078-.27A4.155,4.155,0,0,1,185.843,21a5.981,5.981,0,0,1,1.752.27,2.935,2.935,0,0,1,1.078.674,3.331,3.331,0,0,1,.539,1.213,7.122,7.122,0,0,1,.135,1.752v3.774a.471.471,0,0,0,.135.27c.135,0,.135.135.27.135h.4v.539c0,.135-.135.27-.27.4a.7.7,0,0,1-.539.27,1.215,1.215,0,0,1-.674.135h-.4c-.135,0-.27-.135-.4-.135a.29.29,0,0,1-.27-.27c-.135-.135-.135-.27-.27-.4v-.809h0a1.981,1.981,0,0,1-.674.809c-.135.135-.27.27-.4.27-.135.135-.27.135-.539.27a.81.81,0,0,1-.539.135c-.27,0-.4.135-.674.135a2.635,2.635,0,0,1-1.887-.539C182.07,29.761,181.8,29.221,181.8,28.413Zm2.022-.27c0,.135,0,.4.135.4a.29.29,0,0,0,.27.27.5.5,0,0,0,.4.135h.4c.27,0,.674,0,.809-.135.27-.135.4-.27.674-.4a2.94,2.94,0,0,0,.539-.674V26.8h-.943a2.627,2.627,0,0,0-1.078.135,1.029,1.029,0,0,0-.674.27c-.135.135-.27.27-.27.4A1.022,1.022,0,0,0,183.822,28.143Z" transform="translate(-102.011 -16.552)" fill="#2a2469"/>
      <path id="Caminho_28" data-name="Caminho 28" d="M189.5,18.778v-.943c.135,0,.135,0,.27-.135h.809a2,2,0,0,1,.943.135,1.029,1.029,0,0,1,.27.674V29.83c0,.135.135.135.135.27a.471.471,0,0,0,.27.135h.4v.539c0,.135-.135.27-.27.4a.7.7,0,0,1-.539.27,1.01,1.01,0,0,1-.674.135,1.215,1.215,0,0,1-.674-.135,1.022,1.022,0,0,1-.539-.27.7.7,0,0,1-.27-.539,1.709,1.709,0,0,1-.135-.809V18.778Z" transform="translate(-99.333 -17.7)" fill="#2a2469"/>
    </g>
  </g>
  <line id="Linha_1" data-name="Linha 1" y2="74.128" transform="translate(153.647)" fill="none" stroke="#00b2a7" stroke-miterlimit="10" stroke-width="2"/>
  <g id="Agrupar_5" data-name="Agrupar 5" transform="translate(97.175 2.965)">
    <path id="Caminho_29" data-name="Caminho 29" d="M72.1,3.009c1.752-.135,3.5-.27,5.391-.4,1.617-.135,3.369-.135,5.526-.27C85.039,2.2,87.2,2.2,89.352,2.2a44.341,44.341,0,0,1,9.839.943,20.211,20.211,0,0,1,7.548,3.1,14.879,14.879,0,0,1,4.852,5.526,18.989,18.989,0,0,1,1.752,8.221,12.772,12.772,0,0,1-.539,4.043,17.956,17.956,0,0,1-1.348,3.235,12.6,12.6,0,0,1-1.887,2.561,26.986,26.986,0,0,1-2.156,1.887,17.055,17.055,0,0,1-5.93,2.7v.135a22.248,22.248,0,0,1,7.278,3.235,20.324,20.324,0,0,1,2.7,2.291,13.207,13.207,0,0,1,2.291,3.1,16.992,16.992,0,0,1,1.617,3.909,18.594,18.594,0,0,1,.674,4.987,19.956,19.956,0,0,1-1.887,8.761,16.222,16.222,0,0,1-5.256,6.065,24.686,24.686,0,0,1-8.087,3.639,43.268,43.268,0,0,1-10.513,1.213c-2.561,0-4.987,0-7.143-.135s-4.043-.27-5.661-.27c-1.887-.135-3.639-.27-5.122-.4V3.009ZM83.96,31.042a58.426,58.426,0,0,0,6.874,0,21.81,21.81,0,0,0,5.661-1.348,8.558,8.558,0,0,0,3.774-3.1,8.966,8.966,0,0,0,1.348-5.256,10.929,10.929,0,0,0-.809-4.448,7.792,7.792,0,0,0-2.426-3.1,10.833,10.833,0,0,0-3.774-1.752,17.328,17.328,0,0,0-4.717-.674H87.33a8.288,8.288,0,0,0-1.887.135l-1.617.135V31.042Zm0,30.864c.4,0,.943.135,1.617.135.539,0,1.213.135,2.022.135h2.7a21.566,21.566,0,0,0,5.256-.674,11.245,11.245,0,0,0,4.043-1.887,10.149,10.149,0,0,0,2.7-3.5,11.6,11.6,0,0,0,.943-5.122,10.368,10.368,0,0,0-1.348-5.661,10.221,10.221,0,0,0-3.909-3.639,15.328,15.328,0,0,0-6.065-1.752,39.173,39.173,0,0,0-7.952,0Z" transform="translate(-72.1 -2.2)" fill="#2a2469"/>
  </g>
  <path id="Caminho_30" data-name="Caminho 30" d="M38.2,2.1H75.534V12.747H49.926V29.864H69.6V39.7H49.926V59.92H75.534V70.432H38.2Z" transform="translate(13.285 0.73)" fill="#2a2469"/>
  <g id="Agrupar_41" data-name="Agrupar 41" transform="translate(0 2.696)">
    <g id="Agrupar_10" data-name="Agrupar 10" transform="translate(24.799 52.698)">
      <g id="Agrupar_9" data-name="Agrupar 9">
        <g id="Agrupar_6" data-name="Agrupar 6" transform="translate(6.604 3.504)">
          <path id="Caminho_31" data-name="Caminho 31" d="M35.16,43.7l-.135,13.478L23.3,58.8V45.317Z" transform="translate(-23.3 -43.7)" fill="#82b238"/>
        </g>
        <g id="Agrupar_7" data-name="Agrupar 7" transform="translate(0 1.617)">
          <path id="Caminho_32" data-name="Caminho 32" d="M25,59.282l-6.6-3.5L18.535,42.3,25,45.8Z" transform="translate(-18.4 -42.3)" fill="#527821"/>
        </g>
        <g id="Agrupar_8" data-name="Agrupar 8" transform="translate(0.135)">
          <path id="Caminho_33" data-name="Caminho 33" d="M24.969,46.222l-6.469-3.5L30.226,41.1l6.6,3.5Z" transform="translate(-18.5 -41.1)" fill="#6c982e"/>
        </g>
      </g>
    </g>
    <g id="Agrupar_15" data-name="Agrupar 15" transform="translate(12.4 54.316)">
      <g id="Agrupar_14" data-name="Agrupar 14">
        <g id="Agrupar_11" data-name="Agrupar 11" transform="translate(6.469 3.639)">
          <path id="Caminho_34" data-name="Caminho 34" d="M25.86,45V58.343L14,60.1V46.617Z" transform="translate(-14 -45)" fill="#252863"/>
        </g>
        <g id="Agrupar_12" data-name="Agrupar 12" transform="translate(0 1.752)">
          <path id="Caminho_35" data-name="Caminho 35" d="M15.669,60.582,9.2,57.078V43.6l6.469,3.5Z" transform="translate(-9.2 -43.6)" fill="#141448"/>
        </g>
        <g id="Agrupar_13" data-name="Agrupar 13">
          <path id="Caminho_36" data-name="Caminho 36" d="M15.669,47.556,9.2,44.052,21.06,42.3l6.469,3.639Z" transform="translate(-9.2 -42.3)" fill="#1e2057"/>
        </g>
      </g>
    </g>
    <g id="Agrupar_20" data-name="Agrupar 20" transform="translate(0 56.068)">
      <g id="Agrupar_19" data-name="Agrupar 19">
        <g id="Agrupar_16" data-name="Agrupar 16" transform="translate(6.469 3.504)">
          <path id="Caminho_37" data-name="Caminho 37" d="M16.66,46.2V59.678L4.8,61.3V47.817Z" transform="translate(-4.8 -46.2)" fill="#009f95"/>
        </g>
        <g id="Agrupar_17" data-name="Agrupar 17" transform="translate(0 1.617)">
          <path id="Caminho_38" data-name="Caminho 38" d="M6.469,61.782,0,58.278V44.8l6.469,3.5Z" transform="translate(0 -44.8)" fill="#006d65"/>
        </g>
        <g id="Agrupar_18" data-name="Agrupar 18">
          <path id="Caminho_39" data-name="Caminho 39" d="M6.469,48.722,0,45.217,11.86,43.6l6.469,3.5Z" transform="translate(0 -43.6)" fill="#008880"/>
        </g>
      </g>
    </g>
    <g id="Agrupar_25" data-name="Agrupar 25" transform="translate(0 42.051)">
      <g id="Agrupar_24" data-name="Agrupar 24">
        <g id="Agrupar_21" data-name="Agrupar 21" transform="translate(6.469 3.504)">
          <path id="Caminho_40" data-name="Caminho 40" d="M16.66,35.8V49.278L4.8,50.9V37.417Z" transform="translate(-4.8 -35.8)" fill="#82b238"/>
        </g>
        <g id="Agrupar_22" data-name="Agrupar 22" transform="translate(0 1.617)">
          <path id="Caminho_41" data-name="Caminho 41" d="M6.469,51.382,0,47.878V34.4l6.469,3.5Z" transform="translate(0 -34.4)" fill="#527821"/>
        </g>
        <g id="Agrupar_23" data-name="Agrupar 23">
          <path id="Caminho_42" data-name="Caminho 42" d="M6.469,38.322,0,34.817,11.86,33.2l6.469,3.5Z" transform="translate(0 -33.2)" fill="#6c982e"/>
        </g>
      </g>
    </g>
    <g id="Agrupar_30" data-name="Agrupar 30" transform="translate(0 28.034)">
      <g id="Agrupar_29" data-name="Agrupar 29">
        <g id="Agrupar_26" data-name="Agrupar 26" transform="translate(6.469 3.504)">
          <path id="Caminho_43" data-name="Caminho 43" d="M16.66,25.4V38.878L4.8,40.5V27.152Z" transform="translate(-4.8 -25.4)" fill="#252863"/>
        </g>
        <g id="Agrupar_27" data-name="Agrupar 27" transform="translate(0 1.617)">
          <path id="Caminho_44" data-name="Caminho 44" d="M6.469,40.982,0,37.478V24l6.469,3.639Z" transform="translate(0 -24)" fill="#141448"/>
        </g>
        <g id="Agrupar_28" data-name="Agrupar 28">
          <path id="Caminho_45" data-name="Caminho 45" d="M6.469,28.056,0,24.417,11.86,22.8l6.469,3.5Z" transform="translate(0 -22.8)" fill="#1e2057"/>
        </g>
      </g>
    </g>
    <g id="Agrupar_35" data-name="Agrupar 35" transform="translate(0 14.017)">
      <g id="Agrupar_34" data-name="Agrupar 34">
        <g id="Agrupar_31" data-name="Agrupar 31" transform="translate(6.469 3.504)">
          <path id="Caminho_46" data-name="Caminho 46" d="M16.66,15V28.478L4.8,30.1V16.752Z" transform="translate(-4.8 -15)" fill="#009f95"/>
        </g>
        <g id="Agrupar_32" data-name="Agrupar 32" transform="translate(0 1.617)">
          <path id="Caminho_47" data-name="Caminho 47" d="M6.469,30.582,0,27.078V13.6l6.469,3.639Z" transform="translate(0 -13.6)" fill="#006d65"/>
        </g>
        <g id="Agrupar_33" data-name="Agrupar 33">
          <path id="Caminho_48" data-name="Caminho 48" d="M6.469,17.656,0,14.017,11.86,12.4l6.469,3.5Z" transform="translate(0 -12.4)" fill="#008880"/>
        </g>
      </g>
    </g>
    <g id="Agrupar_40" data-name="Agrupar 40">
      <g id="Agrupar_39" data-name="Agrupar 39">
        <g id="Agrupar_36" data-name="Agrupar 36" transform="translate(6.469 3.504)">
          <path id="Caminho_49" data-name="Caminho 49" d="M16.66,4.6V18.078L4.8,19.83V6.352Z" transform="translate(-4.8 -4.6)" fill="#82b238"/>
        </g>
        <g id="Agrupar_37" data-name="Agrupar 37" transform="translate(0 1.752)">
          <path id="Caminho_50" data-name="Caminho 50" d="M6.469,20.282,0,16.643V3.3L6.469,6.8Z" transform="translate(0 -3.3)" fill="#527821"/>
        </g>
        <g id="Agrupar_38" data-name="Agrupar 38">
          <path id="Caminho_51" data-name="Caminho 51" d="M6.469,7.256,0,3.752,11.86,2,18.33,5.5Z" transform="translate(0 -2)" fill="#6c982e"/>
        </g>
      </g>
    </g>
  </g>
</svg>
